SplineFontDB: 3.0
FontName: mnicmp-BoldItalic
FullName: mnicmp Bold Italic
FamilyName: mnicmp
Weight: Bold
Copyright: Copyright (c) 2017, Stewart C. Russell,,,
Version: 001.000
ItalicAngle: -12.08
UnderlinePosition: -100
UnderlineWidth: 50
Ascent: 800
Descent: 200
InvalidEm: 0
sfntRevision: 0x00010000
LayerCount: 2
Layer: 0 0 "Back" 1
Layer: 1 0 "Fore" 0
XUID: [1021 132 1422713231 7689057]
StyleMap: 0x0021
FSType: 0
OS2Version: 0
OS2_WeightWidthSlopeOnly: 0
OS2_UseTypoMetrics: 1
CreationTime: 1486247825
ModificationTime: 1486414887
PfmFamily: 49
TTFWeight: 700
TTFWidth: 5
LineGap: 90
VLineGap: 0
Panose: 2 0 8 9 0 0 0 0 0 0
OS2TypoAscent: 800
OS2TypoAOffset: 0
OS2TypoDescent: -200
OS2TypoDOffset: 0
OS2TypoLinegap: 90
OS2WinAscent: 800
OS2WinAOffset: 0
OS2WinDescent: -200
OS2WinDOffset: 0
HheadAscent: 800
HheadAOffset: 0
HheadDescent: 0
HheadDOffset: 0
OS2SubXSize: 650
OS2SubYSize: 700
OS2SubXOff: 29
OS2SubYOff: 140
OS2SupXSize: 650
OS2SupYSize: 700
OS2SupXOff: -100
OS2SupYOff: 480
OS2StrikeYSize: 49
OS2StrikeYPos: 258
OS2CapHeight: 800
OS2XHeight: 675
OS2Vendor: 'PfEd'
OS2CodePages: 00000001.00000000
OS2UnicodeRanges: 800000cf.00004022.00000000.00000000
MarkAttachClasses: 1
DEI: 91125

StartChar: .notdef
Encoding: 65536 -1 0
Width: 600
Flags: MW
HStem: 0 50<100 500 100 550> 483 50<100 500 100 100>
VStem: 50 50<50 50 50 483> 500 50<50 483 483 483>
LayerCount: 2
Back
Fore
SplineSet
50 0 m 1
 50 533 l 1
 550 533 l 1
 550 0 l 1
 50 0 l 1
100 50 m 1
 500 50 l 1
 500 483 l 1
 100 483 l 1
 100 50 l 1
EndSplineSet
EndChar

StartChar: exclam
Encoding: 33 33 2
Width: 600
Flags: MW
HStem: 200 100<126 144.5 185.5 204> 780 20G<233 251.5 292.5 311>
VStem: 90 150<236 264> 126 150<403 424 403 428> 144 150<493 507 489 511> 161 150<576 590 572 594> 179 150<660 674 656 678> 197 150<743 764>
LayerCount: 2
Back
Fore
SplineSet
276 417 m 0xd0
 276 389 254 367 226 367 c 0
 217 367 208 370 201 374 c 1
 194 370 185 367 176 367 c 0
 148 367 126 389 126 417 c 0xd0
 126 439 140 457 159 464 c 1
 150 473 144 486 144 500 c 0xc8
 144 522 158 540 177 547 c 1
 168 556 161 569 161 583 c 0xc4
 161 605 175 623 195 630 c 1
 185 639 179 653 179 667 c 0xc2
 179 689 193 707 212 714 c 1
 203 723 197 736 197 750 c 0
 197 778 219 800 247 800 c 0
 256 800 265 797 272 793 c 1
 279 797 288 800 297 800 c 0
 325 800 347 778 347 750 c 0xc1
 347 728 333 710 314 703 c 1
 323 694 329 681 329 667 c 0xc2
 329 645 315 627 295 620 c 1
 305 611 311 597 311 583 c 0xc4
 311 561 297 543 278 536 c 1
 287 527 294 514 294 500 c 0xc8
 294 478 279 460 260 453 c 1
 269 444 276 431 276 417 c 0xd0
240 250 m 0xe0
 240 222 218 200 190 200 c 0
 181 200 172 203 165 207 c 1
 158 203 149 200 140 200 c 0
 112 200 90 222 90 250 c 0
 90 278 112 300 140 300 c 0
 149 300 158 297 165 293 c 1
 172 297 181 300 190 300 c 0
 218 300 240 278 240 250 c 0xe0
EndSplineSet
EndChar

StartChar: quotedbl
Encoding: 34 34 3
Width: 600
Flags: MW
HStem: 533 267<126 180.5 162 195 162 250.5 162 310>
VStem: 90 256<569 590 569 594> 108 256<660 674 656 678> 126 256<743 764>
LayerCount: 2
Back
Fore
SplineSet
346 583 m 0xc0
 346 555 324 533 296 533 c 0
 287 533 278 536 271 540 c 1
 264 536 255 533 246 533 c 0
 236 533 226 537 218 542 c 1
 210 537 200 533 190 533 c 0
 181 533 172 536 165 540 c 1
 158 536 149 533 140 533 c 0
 112 533 90 555 90 583 c 0xc0
 90 605 104 623 124 630 c 1
 114 639 108 653 108 667 c 0xa0
 108 689 122 707 141 714 c 1
 132 723 126 736 126 750 c 0
 126 778 148 800 176 800 c 0
 185 800 194 797 201 793 c 1
 208 797 217 800 226 800 c 0
 236 800 246 796 254 791 c 1
 262 796 272 800 282 800 c 0
 291 800 300 797 307 793 c 1
 314 797 323 800 332 800 c 0
 360 800 382 778 382 750 c 0x90
 382 728 368 710 349 703 c 1
 358 694 364 681 364 667 c 0xa0
 364 645 350 627 330 620 c 1
 340 611 346 597 346 583 c 0xc0
EndSplineSet
EndChar

StartChar: numbersign
Encoding: 35 35 4
Width: 600
Flags: MW
HStem: 200 21G<197 215.5 256.5 266 312 321.5 362.5 381> 200 21G<197 215.5 256.5 266 312 321.5 362.5 381> 367 100<126 144.5 185.5 190 190 192 458 460 460 464.5 505.5 524> 533 100<161 179.5 220.5 225 225 227 493 495 495 499.5 540.5 559> 780 20G<304 322.5 363.5 373 419 428.5 469.5 488>
VStem: 161 256<236 257 236 261> 268 256<743 764>
LayerCount: 2
Back
Fore
SplineSet
417 250 m 0xbc
 417 222 395 200 367 200 c 0
 358 200 349 203 342 207 c 1
 335 203 326 200 317 200 c 0
 307 200 297 204 289 209 c 1
 281 204 271 200 261 200 c 0
 252 200 243 203 236 207 c 1
 229 203 220 200 211 200 c 0
 183 200 161 222 161 250 c 0xbc
 161 272 175 290 194 297 c 1
 185 306 179 319 179 333 c 0
 179 346 184 358 192 367 c 1
 190 367 l 2
 181 367 172 370 165 374 c 1
 158 370 149 367 140 367 c 0
 112 367 90 389 90 417 c 0
 90 445 112 467 140 467 c 0
 149 467 158 464 165 460 c 1
 172 464 181 467 190 467 c 0
 201 467 210 464 218 458 c 1
 222 460 226 463 230 464 c 1
 221 473 215 486 215 500 c 0
 215 513 219 524 227 533 c 1
 225 533 l 2
 216 533 207 536 200 540 c 1
 193 536 184 533 175 533 c 0
 147 533 125 555 125 583 c 0
 125 611 147 633 175 633 c 0
 184 633 193 630 200 626 c 1
 207 630 216 633 225 633 c 0
 236 633 246 630 254 624 c 1
 258 627 262 628 266 630 c 1
 256 639 250 653 250 667 c 0
 250 689 264 707 283 714 c 1
 274 723 268 736 268 750 c 0
 268 778 290 800 318 800 c 0
 327 800 336 797 343 793 c 1
 350 797 359 800 368 800 c 0
 378 800 388 796 396 791 c 1
 404 796 414 800 424 800 c 0
 433 800 442 797 449 793 c 1
 456 797 465 800 474 800 c 0
 502 800 524 778 524 750 c 0xba
 524 728 510 710 491 703 c 1
 500 694 506 681 506 667 c 0
 506 654 501 642 493 633 c 1
 495 633 l 2
 504 633 513 630 520 626 c 1
 527 630 536 633 545 633 c 0
 573 633 595 611 595 583 c 0
 595 555 573 533 545 533 c 0
 536 533 527 536 520 540 c 1
 513 536 504 533 495 533 c 0
 484 533 475 536 467 542 c 1
 463 540 459 537 455 536 c 1
 464 527 471 514 471 500 c 0
 471 487 466 476 458 467 c 1
 460 467 l 2
 469 467 478 464 485 460 c 1
 492 464 501 467 510 467 c 0
 538 467 560 445 560 417 c 0
 560 389 538 367 510 367 c 0
 501 367 492 370 485 374 c 1
 478 370 469 367 460 367 c 0
 449 367 439 370 431 376 c 1
 427 373 423 372 419 370 c 1
 429 361 435 347 435 333 c 0
 435 311 421 293 402 286 c 1
 411 277 417 264 417 250 c 0xbc
EndSplineSet
EndChar

StartChar: dollar
Encoding: 36 36 5
Width: 600
Flags: MW
HStem: 200 21G<215 233.5 274.5 293> 200 21G<215 233.5 274.5 293> 283 100<126 144.5 185.5 190 190 191 351 354 354 358.5> 367 100 533 100 617 100<256.5 261 261 264 424 425 425 429.5 470.5 489> 780 20G<322 340.5 381.5 400>
VStem: 90 150<576.5 590 576.5 597> 179 150<236 256.5> 215 150<410.5 423.5> 250 150<576.5 589.5> 286 150<743.5 764 743.5 764> 375 150<410 423.5>
LayerCount: 2
Back
Fore
SplineSet
228 550 m 1x0720
 238 550 246 546 254 541 c 0
 258 543 262 546 266 547 c 1
 257 556 250 569 250 583 c 0
 250 596 256 608 264 617 c 1
 261 617 l 2
 252 617 243 620 236 624 c 0
 233 622 229 620 225 619 c 1
 234 610 240 597 240 583 c 0
 240 570 236 559 228 550 c 1x0720
349 453 m 1
 358 444 365 431 365 417 c 0
 365 404 359 392 351 383 c 1
 354 383 l 2
 363 383 372 380 379 376 c 0
 382 378 386 380 390 381 c 1
 381 390 375 403 375 417 c 0x2248
 375 430 379 441 387 450 c 1
 377 450 369 454 361 459 c 0
 357 457 353 454 349 453 c 1
329 250 m 0x2288
 329 222 307 200 279 200 c 0
 270 200 261 203 254 207 c 1
 247 203 238 200 229 200 c 0
 201 200 179 222 179 250 c 0xa288
 179 263 183 274 191 283 c 1
 190 283 l 2
 181 283 172 286 165 290 c 1
 158 286 149 283 140 283 c 0
 112 283 90 305 90 333 c 0xa3
 90 361 112 383 140 383 c 0
 149 383 158 380 165 376 c 1
 172 380 181 383 190 383 c 0
 201 383 210 380 218 374 c 1
 222 377 227 378 231 380 c 1
 221 389 215 403 215 417 c 0xa240
 215 430 219 441 227 450 c 1
 226 450 l 2
 217 450 208 453 201 457 c 1
 194 453 185 450 176 450 c 0
 148 450 126 472 126 500 c 0
 126 513 130 524 138 533 c 1
 111 534 90 556 90 583 c 0
 90 611 112 633 140 633 c 0xab
 149 633 158 630 165 626 c 0
 168 628 172 630 176 631 c 1
 167 640 161 653 161 667 c 0
 161 695 183 717 211 717 c 0
 220 717 229 714 236 710 c 1
 243 714 252 717 261 717 c 0
 272 717 282 714 290 708 c 1
 294 710 297 713 301 714 c 1
 292 723 286 736 286 750 c 0
 286 778 308 800 336 800 c 0
 345 800 354 797 361 793 c 1
 368 797 377 800 386 800 c 0
 414 800 436 778 436 750 c 0x0710
 436 737 432 726 424 717 c 1
 425 717 l 2
 434 717 443 714 450 710 c 1
 457 714 466 717 475 717 c 0
 503 717 525 695 525 667 c 0x0608
 525 639 503 617 475 617 c 0
 466 617 457 620 450 624 c 1
 443 620 434 617 425 617 c 0
 414 617 405 620 397 626 c 1
 393 623 388 622 384 620 c 1
 394 611 400 597 400 583 c 0x0620
 400 570 396 559 388 550 c 1
 390 550 l 2
 399 550 408 547 415 543 c 1
 422 547 431 550 440 550 c 0
 468 550 490 528 490 500 c 0
 490 487 485 476 477 467 c 1
 504 466 525 444 525 417 c 0
 525 389 503 367 475 367 c 0x1608
 466 367 457 370 450 374 c 0
 447 372 443 370 439 369 c 1
 448 360 454 347 454 333 c 0
 454 305 432 283 404 283 c 0
 395 283 386 286 379 290 c 1
 372 286 363 283 354 283 c 0
 343 283 333 286 325 292 c 1
 321 290 318 287 314 286 c 1
 323 277 329 264 329 250 c 0x2288
EndSplineSet
EndChar

StartChar: percent
Encoding: 37 37 6
Width: 600
Flags: MW
HStem: 200 100<126 144.5 126 204> 200 183<126 215.5 197 204 197 357.5 523.5 524> 617 183<233 233.5 233 284.5 233 340.5 233 386 233 388 553 560> 700 100<612.5 631>
VStem: 90 150<236 257 236 264> 161 150<326 340 319 347> 197 257<743 764> 233 150<410.5 424 410.5 431> 303 257<236 257 236 261> 304 150<493 507 486 514> 374 150<576 589.5> 446 150<660 674 653 681> 517 150<743 764>
LayerCount: 2
Back
Fore
SplineSet
560 250 m 0x6080
 560 222 538 200 510 200 c 0
 501 200 492 203 485 207 c 1
 478 203 469 200 460 200 c 0
 449 200 440 203 432 209 c 1
 424 203 414 200 403 200 c 0x6080
 394 200 385 203 378 207 c 1
 371 203 362 200 353 200 c 0
 325 200 303 222 303 250 c 0x8080
 303 272 317 290 336 297 c 1
 327 306 321 319 321 333 c 0
 321 346 326 358 334 367 c 1
 333 367 l 2
 324 367 315 370 308 374 c 0
 304 372 300 370 296 369 c 1
 305 360 311 347 311 333 c 0x84
 311 305 289 283 261 283 c 0
 252 283 243 286 236 290 c 0
 233 288 230 286 226 285 c 1
 235 276 240 264 240 250 c 0
 240 222 218 200 190 200 c 0x48
 181 200 172 203 165 207 c 1
 158 203 149 200 140 200 c 0
 112 200 90 222 90 250 c 0x88
 90 278 112 300 140 300 c 0
 149 300 158 297 165 293 c 0
 168 295 171 297 175 298 c 1
 166 307 161 319 161 333 c 0x84
 161 361 183 383 211 383 c 0
 220 383 229 380 236 376 c 0
 240 378 244 380 248 381 c 1
 239 390 233 403 233 417 c 0x41
 233 445 255 467 283 467 c 0
 292 467 301 464 308 460 c 0
 311 462 314 464 318 465 c 1
 309 474 304 486 304 500 c 0x4040
 304 528 326 550 354 550 c 0
 363 550 372 547 379 543 c 0
 382 545 385 547 389 548 c 1
 380 557 374 569 374 583 c 0x4020
 374 596 380 608 388 617 c 1
 386 617 l 2
 377 617 368 620 361 624 c 1
 354 620 345 617 336 617 c 0
 325 617 316 620 308 626 c 1
 300 620 290 617 279 617 c 0
 270 617 261 620 254 624 c 1
 247 620 238 617 229 617 c 0
 201 617 179 639 179 667 c 0
 179 689 193 707 212 714 c 1
 203 723 197 736 197 750 c 0
 197 778 219 800 247 800 c 0
 256 800 265 797 272 793 c 1
 279 797 288 800 297 800 c 0
 308 800 318 797 326 791 c 1
 334 797 343 800 354 800 c 0x62
 363 800 372 797 379 793 c 1
 386 797 395 800 404 800 c 0
 432 800 454 778 454 750 c 0x12
 454 728 440 710 421 703 c 1
 430 694 436 681 436 667 c 0
 436 654 431 642 423 633 c 1
 424 633 l 2
 433 633 442 630 449 626 c 0
 453 628 457 630 461 631 c 1
 452 640 446 653 446 667 c 0x1010
 446 695 468 717 496 717 c 0
 505 717 514 714 521 710 c 0
 524 712 528 714 532 715 c 1
 523 724 517 736 517 750 c 0
 517 778 539 800 567 800 c 0x2008
 576 800 585 797 592 793 c 1
 599 797 608 800 617 800 c 0
 645 800 667 778 667 750 c 0x1008
 667 722 645 700 617 700 c 0
 608 700 599 703 592 707 c 0
 589 705 586 703 582 702 c 1
 591 693 596 681 596 667 c 0x1010
 596 639 574 617 546 617 c 0
 537 617 528 620 521 624 c 0
 517 622 513 620 509 619 c 1
 518 610 524 597 524 583 c 0x2020
 524 555 502 533 474 533 c 0
 465 533 456 536 449 540 c 0
 446 538 443 536 439 535 c 1
 448 526 454 514 454 500 c 0x2040
 454 472 432 450 404 450 c 0
 395 450 386 453 379 457 c 0
 376 455 372 453 368 452 c 1
 377 443 383 431 383 417 c 0x21
 383 404 377 392 369 383 c 1
 371 383 l 2
 380 383 389 380 396 376 c 1
 403 380 412 383 421 383 c 0
 432 383 441 380 449 374 c 1
 457 380 467 383 478 383 c 0
 487 383 496 380 503 376 c 1
 510 380 519 383 528 383 c 0
 556 383 578 361 578 333 c 0
 578 311 564 293 545 286 c 1
 554 277 560 264 560 250 c 0x6080
EndSplineSet
EndChar

StartChar: ampersand
Encoding: 38 38 7
Width: 600
Flags: MW
HStem: 200 100<161 232 227 230.5 276.5 286.5 227 337.5> 283 100 367 100<197 266.5 197 316 470.5 489> 613 20G<298 303 347.5 357.5> 617 100<210 210> 700 100<327.5 337.5 383.5 387>
VStem: 90 150<326.5 340 326.5 347> 161 150<660.5 674 660.5 681> 196 257<569.5 589.5> 232 257<743.5 764> 233 150<493.5 506.5> 303 150<326.5 339.5> 374 150<660 673.5>
LayerCount: 2
Back
Fore
SplineSet
298 633 m 1x1508
 308 633 317 629 325 624 c 1
 333 630 342 633 353 633 c 0
 362 633 371 630 378 626 c 0
 381 628 385 630 389 631 c 1
 380 640 374 653 374 667 c 0
 374 680 379 691 387 700 c 1
 377 700 369 704 361 709 c 1
 353 703 343 700 332 700 c 0
 323 700 314 703 307 707 c 0
 304 705 301 703 297 702 c 1
 306 693 311 681 311 667 c 0
 311 654 306 642 298 633 c 1x1508
227 300 m 1xa210
 237 300 246 296 254 291 c 1
 262 297 271 300 282 300 c 0
 291 300 300 297 307 293 c 0
 310 295 313 297 317 298 c 1
 308 307 303 319 303 333 c 0
 303 346 308 358 316 367 c 1
 306 367 297 371 289 376 c 1
 281 370 272 367 261 367 c 0
 252 367 243 370 236 374 c 0
 233 372 229 370 225 369 c 1
 234 360 240 347 240 333 c 0
 240 320 235 309 227 300 c 1xa210
489 250 m 0xa840
 489 222 467 200 439 200 c 0
 430 200 421 203 414 207 c 1
 407 203 398 200 389 200 c 0
 378 200 369 203 361 209 c 1
 353 203 343 200 332 200 c 0
 323 200 314 203 307 207 c 1
 300 203 291 200 282 200 c 0
 271 200 262 203 254 209 c 1
 246 203 236 200 225 200 c 0
 216 200 207 203 200 207 c 1
 193 203 184 200 175 200 c 0xa840
 147 200 125 222 125 250 c 0
 125 263 129 274 137 283 c 1
 110 284 90 306 90 333 c 0x42
 90 361 112 383 140 383 c 0
 149 383 158 380 165 376 c 0
 168 378 172 380 176 381 c 1
 167 390 161 403 161 417 c 0x41
 161 445 183 467 211 467 c 0
 220 467 229 464 236 460 c 0
 239 462 243 464 247 465 c 1
 238 474 233 486 233 500 c 0x2020
 233 513 237 524 245 533 c 1
 218 534 196 556 196 583 c 0x2080
 196 596 202 608 210 617 c 1
 183 618 161 640 161 667 c 0
 161 695 183 717 211 717 c 0x29
 220 717 229 714 236 710 c 0
 239 712 243 714 247 715 c 1
 238 724 232 736 232 750 c 0
 232 778 254 800 282 800 c 0
 291 800 300 797 307 793 c 1
 314 797 323 800 332 800 c 0
 343 800 353 797 361 791 c 1
 369 797 378 800 389 800 c 0
 398 800 407 797 414 793 c 1
 421 797 430 800 439 800 c 0
 467 800 489 778 489 750 c 0x0440
 489 737 485 726 477 717 c 1
 504 716 524 694 524 667 c 0x0808
 524 639 502 617 474 617 c 0
 465 617 456 620 449 624 c 0
 446 622 442 620 438 619 c 1
 447 610 453 597 453 583 c 0x0880
 453 555 431 533 403 533 c 0
 394 533 385 536 378 540 c 0
 375 538 372 536 368 535 c 1
 377 526 383 514 383 500 c 0x0820
 383 487 378 476 370 467 c 1
 380 467 388 463 396 458 c 1
 404 464 414 467 425 467 c 0
 434 467 443 464 450 460 c 1
 457 464 466 467 475 467 c 0
 503 467 525 445 525 417 c 0
 525 389 503 367 475 367 c 0
 466 367 457 370 450 374 c 0
 446 372 442 370 438 369 c 1
 447 360 453 347 453 333 c 0x2810
 453 320 448 309 440 300 c 1
 467 299 489 277 489 250 c 0xa840
EndSplineSet
EndChar

StartChar: quotesingle
Encoding: 39 39 8
Width: 600
Flags: MW
HStem: 533 100<126 144.5 126 204> 700 100<327.5 346>
VStem: 90 150<569 590 569 597> 161 150<660 674 653 681> 232 150<743 764>
LayerCount: 2
Back
Fore
SplineSet
240 583 m 0xe0
 240 555 218 533 190 533 c 0
 181 533 172 536 165 540 c 1
 158 536 149 533 140 533 c 0
 112 533 90 555 90 583 c 0xe0
 90 611 112 633 140 633 c 0
 149 633 158 630 165 626 c 0
 168 628 172 630 176 631 c 1
 167 640 161 653 161 667 c 0xd0
 161 695 183 717 211 717 c 0
 220 717 229 714 236 710 c 0
 239 712 243 714 247 715 c 1
 238 724 232 736 232 750 c 0
 232 778 254 800 282 800 c 0
 291 800 300 797 307 793 c 1
 314 797 323 800 332 800 c 0
 360 800 382 778 382 750 c 0xc8
 382 722 360 700 332 700 c 0
 323 700 314 703 307 707 c 0
 304 705 301 703 297 702 c 1
 306 693 311 681 311 667 c 0xd0
 311 639 289 617 261 617 c 0
 252 617 243 620 236 624 c 0
 233 622 229 620 225 619 c 1
 234 610 240 597 240 583 c 0xe0
EndSplineSet
EndChar

StartChar: parenleft
Encoding: 40 40 9
Width: 600
Flags: MW
HStem: 200 21G<196 214.5 255.5 274> 200 100 613 20G<161 179.5> 700 100<362.5 381>
VStem: 108 150<493 507 489 511> 125 150<326.5 339.5 576 590> 160 150<236 256.5> 196 150<660 674 653 681> 267 150<743 764>
LayerCount: 2
Back
Fore
SplineSet
310 250 m 0x72
 310 222 288 200 260 200 c 0
 251 200 242 203 235 207 c 1
 228 203 219 200 210 200 c 0
 182 200 160 222 160 250 c 0xb2
 160 263 164 274 172 283 c 1
 145 284 125 306 125 333 c 0xb4
 125 346 130 358 138 367 c 1
 111 368 90 390 90 417 c 0
 90 439 104 457 123 464 c 1
 114 473 108 486 108 500 c 0xb8
 108 522 122 540 141 547 c 1
 132 556 125 569 125 583 c 0xb4
 125 611 147 633 175 633 c 0
 184 633 193 630 200 626 c 0
 203 628 207 630 211 631 c 1
 202 640 196 653 196 667 c 0xb1
 196 695 218 717 246 717 c 0
 255 717 264 714 271 710 c 0
 274 712 278 714 282 715 c 1
 273 724 267 736 267 750 c 0
 267 778 289 800 317 800 c 0
 326 800 335 797 342 793 c 1
 349 797 358 800 367 800 c 0
 395 800 417 778 417 750 c 0xb080
 417 722 395 700 367 700 c 0
 358 700 349 703 342 707 c 0
 339 705 336 703 332 702 c 1
 341 693 346 681 346 667 c 0xb1
 346 639 324 617 296 617 c 0
 287 617 278 620 271 624 c 0
 268 622 264 620 260 619 c 1
 269 610 275 597 275 583 c 0xb4
 275 561 261 543 242 536 c 1
 251 527 258 514 258 500 c 0xb8
 258 478 243 460 224 453 c 1
 233 444 240 431 240 417 c 0
 240 404 234 392 226 383 c 1
 253 382 275 360 275 333 c 0xb4
 275 320 270 309 262 300 c 1
 289 299 310 277 310 250 c 0x72
EndSplineSet
EndChar

StartChar: parenright
Encoding: 41 41 10
Width: 600
Flags: MW
HStem: 200 21G<126 144.5 185.5 204> 200 100<126 144.5 126 204> 700 100
VStem: 90 150<236 257 236 264> 161 150<326 340 319 347> 197 150<743.5 764 743.5 764> 232 150<410 424 403 428 660.5 673.5> 250 150<493 507 489 511>
LayerCount: 2
Back
Fore
SplineSet
240 250 m 0x70
 240 222 218 200 190 200 c 0xb0
 181 200 172 203 165 207 c 1
 158 203 149 200 140 200 c 0
 112 200 90 222 90 250 c 0x70
 90 278 112 300 140 300 c 0
 149 300 158 297 165 293 c 0
 168 295 171 297 175 298 c 1
 166 307 161 319 161 333 c 0x68
 161 361 183 383 211 383 c 0
 220 383 229 380 236 376 c 0
 239 378 243 380 247 381 c 1
 238 390 232 403 232 417 c 0x62
 232 439 246 457 265 464 c 1
 256 473 250 486 250 500 c 0x61
 250 522 264 540 283 547 c 1
 274 556 267 569 267 583 c 0
 267 596 273 608 281 617 c 1
 254 618 232 640 232 667 c 0x62
 232 680 237 691 245 700 c 1
 218 701 197 723 197 750 c 0
 197 778 219 800 247 800 c 0
 256 800 265 797 272 793 c 1
 279 797 288 800 297 800 c 0
 325 800 347 778 347 750 c 0x64
 347 737 343 726 335 717 c 1
 362 716 382 694 382 667 c 0x62
 382 654 377 642 369 633 c 1
 396 632 417 610 417 583 c 0
 417 561 403 543 384 536 c 1
 393 527 400 514 400 500 c 0x61
 400 478 385 460 366 453 c 1
 375 444 382 431 382 417 c 0x62
 382 389 360 367 332 367 c 0
 323 367 314 370 307 374 c 0
 304 372 300 370 296 369 c 1
 305 360 311 347 311 333 c 0x68
 311 305 289 283 261 283 c 0
 252 283 243 286 236 290 c 0
 233 288 230 286 226 285 c 1
 235 276 240 264 240 250 c 0x70
EndSplineSet
EndChar

StartChar: asterisk
Encoding: 42 42 11
Width: 600
Flags: MW
HStem: 200 21G<268 286.5 327.5 346> 200 21G<268 286.5 327.5 346> 283 100<126 144.5 126 204> 617 100<576.5 595> 780 20G<375 393.5 434.5 453>
VStem: 90 150<319 340 319 347> 161 150<660.5 681 660.5 681> 232 150<236 257 236 261> 250 150<326 339.5> 321 150<660.5 674 660.5 678> 339 150<743 764> 410 150<319 339.5> 481 150<660 681>
LayerCount: 2
Back
Fore
SplineSet
382 250 m 0xb9
 382 222 360 200 332 200 c 0
 323 200 314 203 307 207 c 1
 300 203 291 200 282 200 c 0
 254 200 232 222 232 250 c 0xb9
 232 272 246 290 265 297 c 1
 256 306 250 319 250 333 c 0
 250 346 255 358 263 367 c 1
 261 367 l 2
 252 367 243 370 236 374 c 0
 233 372 229 370 225 369 c 1
 234 360 240 347 240 333 c 0
 240 305 218 283 190 283 c 0
 181 283 172 286 165 290 c 1
 158 286 149 283 140 283 c 0
 112 283 90 305 90 333 c 0xbc80
 90 361 112 383 140 383 c 0
 149 383 158 380 165 376 c 0
 168 378 172 380 176 381 c 1
 167 390 161 403 161 417 c 0
 161 445 183 467 211 467 c 0
 220 467 229 464 236 460 c 0
 239 462 243 464 247 465 c 1
 238 474 233 486 233 500 c 0
 233 513 237 524 245 533 c 1
 218 534 196 556 196 583 c 0
 196 596 202 608 210 617 c 1
 183 618 161 640 161 667 c 0
 161 695 183 717 211 717 c 0
 220 717 229 714 236 710 c 1
 243 714 252 717 261 717 c 0
 289 717 311 695 311 667 c 0
 311 654 306 642 298 633 c 1
 308 633 317 629 325 624 c 1
 329 627 333 628 337 630 c 1
 327 639 321 653 321 667 c 0xba40
 321 689 335 707 354 714 c 1
 345 723 339 736 339 750 c 0
 339 778 361 800 389 800 c 0
 398 800 407 797 414 793 c 1
 421 797 430 800 439 800 c 0
 467 800 489 778 489 750 c 0xb820
 489 728 475 710 456 703 c 1
 465 694 471 681 471 667 c 0
 471 654 466 642 458 633 c 1
 460 633 l 2
 469 633 478 630 485 626 c 0
 488 628 492 630 496 631 c 1
 487 640 481 653 481 667 c 0
 481 695 503 717 531 717 c 0
 540 717 549 714 556 710 c 1
 563 714 572 717 581 717 c 0
 609 717 631 695 631 667 c 0xb848
 631 639 609 617 581 617 c 0
 572 617 563 620 556 624 c 0
 553 622 549 620 545 619 c 1
 554 610 560 597 560 583 c 0xb810
 560 555 538 533 510 533 c 0
 501 533 492 536 485 540 c 0
 482 538 478 536 474 535 c 1
 483 526 489 514 489 500 c 0xb820
 489 487 484 476 476 467 c 1
 503 466 525 444 525 417 c 0
 525 404 519 392 511 383 c 1
 538 382 560 360 560 333 c 0
 560 305 538 283 510 283 c 0
 501 283 492 286 485 290 c 1
 478 286 469 283 460 283 c 0
 432 283 410 305 410 333 c 0
 410 346 415 358 423 367 c 1
 413 367 404 371 396 376 c 1
 392 373 388 372 384 370 c 1
 394 361 400 347 400 333 c 0xb890
 400 311 386 293 367 286 c 1
 376 277 382 264 382 250 c 0xb9
EndSplineSet
EndChar

StartChar: plus
Encoding: 43 43 12
Width: 600
Flags: MW
HStem: 200 21G<232 250.5 291.5 310> 200 21G<232 250.5 291.5 310> 450 100<126 144.5 185.5 195.5 241.5 244 405 408.5 454.5 464.5 505.5 524> 780 20G<339 357.5 398.5 417>
VStem: 196 150<236 257 236 261> 214 150<326 340 322 344> 232 150<410 423.5> 267 150<576.5 590 576.5 594> 285 150<660 674 656 678> 303 150<743 764>
LayerCount: 2
Back
Fore
SplineSet
346 250 m 0xb8
 346 222 324 200 296 200 c 0
 287 200 278 203 271 207 c 1
 264 203 255 200 246 200 c 0
 218 200 196 222 196 250 c 0xb8
 196 272 210 290 229 297 c 1
 220 306 214 319 214 333 c 0xb4
 214 355 228 373 248 380 c 1
 238 389 232 403 232 417 c 0xb2
 232 430 236 441 244 450 c 1
 234 450 226 454 218 459 c 1
 210 453 201 450 190 450 c 0
 181 450 172 453 165 457 c 1
 158 453 149 450 140 450 c 0
 112 450 90 472 90 500 c 0
 90 528 112 550 140 550 c 0
 149 550 158 547 165 543 c 1
 172 547 181 550 190 550 c 0
 201 550 210 547 218 541 c 1
 226 547 236 550 247 550 c 0
 256 550 265 547 272 543 c 0
 275 545 278 547 282 548 c 1
 273 557 267 569 267 583 c 0xb1
 267 605 281 623 301 630 c 1
 291 639 285 653 285 667 c 0xb080
 285 689 299 707 318 714 c 1
 309 723 303 736 303 750 c 0
 303 778 325 800 353 800 c 0
 362 800 371 797 378 793 c 1
 385 797 394 800 403 800 c 0
 431 800 453 778 453 750 c 0xb040
 453 728 439 710 420 703 c 1
 429 694 435 681 435 667 c 0xb080
 435 645 421 627 401 620 c 1
 411 611 417 597 417 583 c 0xb1
 417 570 413 559 405 550 c 1
 415 550 423 546 431 541 c 1
 439 547 449 550 460 550 c 0
 469 550 478 547 485 543 c 1
 492 547 501 550 510 550 c 0
 538 550 560 528 560 500 c 0
 560 472 538 450 510 450 c 0
 501 450 492 453 485 457 c 1
 478 453 469 450 460 450 c 0
 449 450 439 453 431 459 c 1
 423 453 414 450 403 450 c 0
 394 450 385 453 378 457 c 0
 375 455 371 453 367 452 c 1
 376 443 382 431 382 417 c 0xb2
 382 395 368 377 348 370 c 1
 358 361 364 347 364 333 c 0xb4
 364 311 350 293 331 286 c 1
 340 277 346 264 346 250 c 0xb8
EndSplineSet
EndChar

StartChar: comma
Encoding: 44 44 13
Width: 600
Flags: MW
HStem: 200 21G<126 144.5 185.5 204> 200 100<126 144.5 126 204>
VStem: 90 150<236 257 236 264> 126 256<403.5 424 403 428> 144 256<493 514> 161 150<326 339.5>
LayerCount: 2
Back
Fore
SplineSet
240 250 m 0x60
 240 222 218 200 190 200 c 0xa0
 181 200 172 203 165 207 c 1
 158 203 149 200 140 200 c 0
 112 200 90 222 90 250 c 0x60
 90 278 112 300 140 300 c 0
 149 300 158 297 165 293 c 0
 168 295 171 297 175 298 c 1
 166 307 161 319 161 333 c 0x44
 161 346 166 358 174 367 c 1
 147 368 126 390 126 417 c 0x50
 126 439 140 457 159 464 c 1
 150 473 144 486 144 500 c 0
 144 528 166 550 194 550 c 0
 203 550 212 547 219 543 c 1
 226 547 235 550 244 550 c 0
 254 550 264 546 272 541 c 1
 280 546 290 550 300 550 c 0
 309 550 318 547 325 543 c 1
 332 547 341 550 350 550 c 0
 378 550 400 528 400 500 c 0x48
 400 478 385 460 366 453 c 1
 375 444 382 431 382 417 c 0x50
 382 389 360 367 332 367 c 0
 323 367 314 370 307 374 c 0
 304 372 300 370 296 369 c 1
 305 360 311 347 311 333 c 0x44
 311 305 289 283 261 283 c 0
 252 283 243 286 236 290 c 0
 233 288 230 286 226 285 c 1
 235 276 240 264 240 250 c 0x60
EndSplineSet
EndChar

StartChar: hyphen
Encoding: 45 45 14
Width: 600
Flags: MW
HStem: 450 100<126 144.5 185.5 195.5 241.5 251.5 292.5 302 348 357.5 398.5 408.5 454.5 464.5 505.5 524>
LayerCount: 2
Back
Fore
SplineSet
560 500 m 0
 560 472 538 450 510 450 c 0
 501 450 492 453 485 457 c 1
 478 453 469 450 460 450 c 0
 449 450 439 453 431 459 c 1
 423 453 414 450 403 450 c 0
 394 450 385 453 378 457 c 1
 371 453 362 450 353 450 c 0
 343 450 333 454 325 459 c 1
 317 454 307 450 297 450 c 0
 288 450 279 453 272 457 c 1
 265 453 256 450 247 450 c 0
 236 450 226 453 218 459 c 1
 210 453 201 450 190 450 c 0
 181 450 172 453 165 457 c 1
 158 453 149 450 140 450 c 0
 112 450 90 472 90 500 c 0
 90 528 112 550 140 550 c 0
 149 550 158 547 165 543 c 1
 172 547 181 550 190 550 c 0
 201 550 210 547 218 541 c 1
 226 547 236 550 247 550 c 0
 256 550 265 547 272 543 c 1
 279 547 288 550 297 550 c 0
 307 550 317 546 325 541 c 1
 333 546 343 550 353 550 c 0
 362 550 371 547 378 543 c 1
 385 547 394 550 403 550 c 0
 414 550 423 547 431 541 c 1
 439 547 449 550 460 550 c 0
 469 550 478 547 485 543 c 1
 492 547 501 550 510 550 c 0
 538 550 560 528 560 500 c 0
EndSplineSet
EndChar

StartChar: period
Encoding: 46 46 15
Width: 600
Flags: MW
HStem: 200 21G<161 179.5 220.5 239> 200 21G<161 179.5 220.5 239> 283 100<296 296>
VStem: 90 256<319.5 346.5 319 347> 125 150<236 256.5> 161 150<410.5 431 410.5 431>
LayerCount: 2
Back
Fore
SplineSet
275 250 m 0xa8
 275 222 253 200 225 200 c 0
 216 200 207 203 200 207 c 1
 193 203 184 200 175 200 c 0
 147 200 125 222 125 250 c 0xa8
 125 263 129 274 137 283 c 1
 110 284 90 306 90 333 c 0xb0
 90 361 112 383 140 383 c 0
 149 383 158 380 165 376 c 0
 168 378 172 380 176 381 c 1
 167 390 161 403 161 417 c 0
 161 445 183 467 211 467 c 0
 220 467 229 464 236 460 c 1
 243 464 252 467 261 467 c 0
 289 467 311 445 311 417 c 0xa4
 311 404 305 392 297 383 c 1
 324 382 346 360 346 333 c 0xb0
 346 305 324 283 296 283 c 0
 287 283 278 286 271 290 c 0
 268 288 265 286 261 285 c 1
 270 276 275 264 275 250 c 0xa8
EndSplineSet
EndChar

StartChar: slash
Encoding: 47 47 16
Width: 600
Flags: MW
HStem: 200 21G<126 144.5 185.5 204> 200 100<126 144.5 126 204> 613 20G<410 428.5> 700 100<612.5 631>
VStem: 90 150<236 257 236 264> 161 150<326 340 319 347> 233 150<410 424 403 431> 304 150<493 507 486 514> 374 150<576 590 569 597> 446 150<660 674 653 681> 517 150<743 764>
LayerCount: 2
Back
Fore
SplineSet
240 250 m 0x78
 240 222 218 200 190 200 c 0xb8
 181 200 172 203 165 207 c 1
 158 203 149 200 140 200 c 0
 112 200 90 222 90 250 c 0x78
 90 278 112 300 140 300 c 0
 149 300 158 297 165 293 c 0
 168 295 171 297 175 298 c 1
 166 307 161 319 161 333 c 0x74
 161 361 183 383 211 383 c 0
 220 383 229 380 236 376 c 0
 240 378 244 380 248 381 c 1
 239 390 233 403 233 417 c 0x72
 233 445 255 467 283 467 c 0
 292 467 301 464 308 460 c 0
 311 462 314 464 318 465 c 1
 309 474 304 486 304 500 c 0x71
 304 528 326 550 354 550 c 0
 363 550 372 547 379 543 c 0
 382 545 385 547 389 548 c 1
 380 557 374 569 374 583 c 0x7080
 374 611 396 633 424 633 c 0
 433 633 442 630 449 626 c 0
 453 628 457 630 461 631 c 1
 452 640 446 653 446 667 c 0x7040
 446 695 468 717 496 717 c 0
 505 717 514 714 521 710 c 0
 524 712 528 714 532 715 c 1
 523 724 517 736 517 750 c 0
 517 778 539 800 567 800 c 0
 576 800 585 797 592 793 c 1
 599 797 608 800 617 800 c 0
 645 800 667 778 667 750 c 0x7020
 667 722 645 700 617 700 c 0
 608 700 599 703 592 707 c 0
 589 705 586 703 582 702 c 1
 591 693 596 681 596 667 c 0x7040
 596 639 574 617 546 617 c 0
 537 617 528 620 521 624 c 0
 517 622 513 620 509 619 c 1
 518 610 524 597 524 583 c 0x7080
 524 555 502 533 474 533 c 0
 465 533 456 536 449 540 c 0
 446 538 443 536 439 535 c 1
 448 526 454 514 454 500 c 0x71
 454 472 432 450 404 450 c 0
 395 450 386 453 379 457 c 0
 376 455 372 453 368 452 c 1
 377 443 383 431 383 417 c 0x72
 383 389 361 367 333 367 c 0
 324 367 315 370 308 374 c 0
 304 372 300 370 296 369 c 1
 305 360 311 347 311 333 c 0x74
 311 305 289 283 261 283 c 0
 252 283 243 286 236 290 c 0
 233 288 230 286 226 285 c 1
 235 276 240 264 240 250 c 0x78
EndSplineSet
EndChar

StartChar: zero
Encoding: 48 48 17
Width: 600
Flags: MW
HStem: 200 100<197 267 262 266 312 321.5 262 381> 613 20G<161 179.5> 700 100<363.5 373 419 423>
VStem: 108 150<493 507 489 511> 125 150<326.5 339.5 576 590> 161 256<236 256.5> 196 150<660 674 653 681> 268 256<743.5 764 743.5 764> 339 150<326 340 319 347> 410 150<410 424 403 428 660.5 673.5> 428 150<493 507 489 511>
LayerCount: 2
Back
Fore
SplineSet
346 667 m 0xe240
 346 639 324 617 296 617 c 0
 287 617 278 620 271 624 c 0
 268 622 264 620 260 619 c 1
 269 610 275 597 275 583 c 0xe8
 275 561 261 543 242 536 c 1
 251 527 258 514 258 500 c 0xf0
 258 478 243 460 224 453 c 1
 233 444 240 431 240 417 c 0
 240 404 234 392 226 383 c 1
 253 382 275 360 275 333 c 0
 275 320 270 309 262 300 c 1
 272 300 281 296 289 291 c 1
 297 296 307 300 317 300 c 0
 326 300 335 297 342 293 c 0
 345 295 349 297 353 298 c 1
 344 307 339 319 339 333 c 0xe880
 339 361 361 383 389 383 c 0
 398 383 407 380 414 376 c 0
 417 378 421 380 425 381 c 1
 416 390 410 403 410 417 c 0xe040
 410 439 424 457 443 464 c 1
 434 473 428 486 428 500 c 0xe020
 428 522 442 540 461 547 c 1
 452 556 445 569 445 583 c 0
 445 596 451 608 459 617 c 1
 432 618 410 640 410 667 c 0
 410 680 415 691 423 700 c 1
 413 700 404 704 396 709 c 1
 388 704 378 700 368 700 c 0
 359 700 350 703 343 707 c 0
 340 705 336 703 332 702 c 1
 341 693 346 681 346 667 c 0xe240
417 250 m 0xe4
 417 222 395 200 367 200 c 0
 358 200 349 203 342 207 c 1
 335 203 326 200 317 200 c 0
 307 200 297 204 289 209 c 1
 281 204 271 200 261 200 c 0
 252 200 243 203 236 207 c 1
 229 203 220 200 211 200 c 0
 183 200 161 222 161 250 c 0xe4
 161 263 165 274 173 283 c 1
 146 284 125 306 125 333 c 0xe8
 125 346 130 358 138 367 c 1
 111 368 90 390 90 417 c 0
 90 439 104 457 123 464 c 1
 114 473 108 486 108 500 c 0xf0
 108 522 122 540 141 547 c 1
 132 556 125 569 125 583 c 0xe8
 125 611 147 633 175 633 c 0
 184 633 193 630 200 626 c 0
 203 628 207 630 211 631 c 1
 202 640 196 653 196 667 c 0xe2
 196 695 218 717 246 717 c 0
 255 717 264 714 271 710 c 0
 274 712 278 714 282 715 c 1
 273 724 268 736 268 750 c 0
 268 778 290 800 318 800 c 0
 327 800 336 797 343 793 c 1
 350 797 359 800 368 800 c 0
 378 800 388 796 396 791 c 1
 404 796 414 800 424 800 c 0
 433 800 442 797 449 793 c 1
 456 797 465 800 474 800 c 0
 502 800 524 778 524 750 c 0xe1
 524 737 520 726 512 717 c 1
 539 716 560 694 560 667 c 0xe040
 560 654 555 642 547 633 c 1
 574 632 595 610 595 583 c 0
 595 561 581 543 562 536 c 1
 571 527 578 514 578 500 c 0xe020
 578 478 563 460 544 453 c 1
 553 444 560 431 560 417 c 0xe040
 560 389 538 367 510 367 c 0
 501 367 492 370 485 374 c 0
 482 372 478 370 474 369 c 1
 483 360 489 347 489 333 c 0xe080
 489 305 467 283 439 283 c 0
 430 283 421 286 414 290 c 0
 411 288 407 286 403 285 c 1
 412 276 417 264 417 250 c 0xe4
EndSplineSet
EndChar

StartChar: one
Encoding: 49 49 18
Width: 600
Flags: MW
HStem: 200 100<126 144.5 185.5 195.5 126 251.5 352 354 354 358.5 399.5 418> 617 100<215 233.5 274.5 279 279 282> 780 20G<340 358.5 399.5 418>
VStem: 179 257<656 674 656 681> 215 150<326.5 340 326.5 344> 233 150<410 424 406 428> 251 150<493 507 489 511> 268 150<576 589.5> 304 150<743 764>
LayerCount: 2
Back
Fore
SplineSet
454 250 m 0xe080
 454 222 432 200 404 200 c 0
 395 200 386 203 379 207 c 1
 372 203 363 200 354 200 c 0
 343 200 334 203 326 209 c 1
 318 203 308 200 297 200 c 0
 288 200 279 203 272 207 c 1
 265 203 256 200 247 200 c 0
 236 200 227 203 219 209 c 1
 211 203 201 200 190 200 c 0
 181 200 172 203 165 207 c 1
 158 203 149 200 140 200 c 0
 112 200 90 222 90 250 c 0
 90 278 112 300 140 300 c 0
 149 300 158 297 165 293 c 1
 172 297 181 300 190 300 c 0
 201 300 211 297 219 291 c 1
 223 293 226 296 230 297 c 1
 221 306 215 319 215 333 c 0xe8
 215 355 229 373 249 380 c 1
 239 389 233 403 233 417 c 0xe4
 233 439 247 457 266 464 c 1
 257 473 251 486 251 500 c 0xe2
 251 522 265 540 284 547 c 1
 275 556 268 569 268 583 c 0xe1
 268 596 274 608 282 617 c 1
 279 617 l 2
 270 617 261 620 254 624 c 1
 247 620 238 617 229 617 c 0
 201 617 179 639 179 667 c 0xf0
 179 695 201 717 229 717 c 0
 238 717 247 714 254 710 c 1
 261 714 270 717 279 717 c 0
 290 717 300 714 308 708 c 1
 312 710 315 713 319 714 c 1
 310 723 304 736 304 750 c 0
 304 778 326 800 354 800 c 0
 363 800 372 797 379 793 c 1
 386 797 395 800 404 800 c 0
 432 800 454 778 454 750 c 0xe080
 454 728 440 710 421 703 c 1
 430 694 436 681 436 667 c 0xf0
 436 645 422 627 402 620 c 1
 412 611 418 597 418 583 c 0xe1
 418 561 404 543 385 536 c 1
 394 527 401 514 401 500 c 0xe2
 401 478 386 460 367 453 c 1
 376 444 383 431 383 417 c 0xe4
 383 395 369 377 349 370 c 1
 359 361 365 347 365 333 c 0xe8
 365 320 360 309 352 300 c 1
 354 300 l 2
 363 300 372 297 379 293 c 1
 386 297 395 300 404 300 c 0
 432 300 454 278 454 250 c 0xe080
EndSplineSet
EndChar

StartChar: two
Encoding: 50 50 19
Width: 600
Flags: MW
HStem: 200 100<126 144.5 126 195.5 126 251.5 298 302 348 357.5 398.5 408.5 454.5 464.5 505.5 524> 200 183<126 215.5 185.5 215.5 197 251.5 197 302 197 357.5> 367 100<322 340.5 381.5 400> 450 100<447 465.5 447 525> 617 100<215 233.5 215 293> 700 100<345.5 355.5 401.5 411.5 452.5 462.5 508.5 512>
VStem: 161 150<326.5 347 326.5 347> 179 150<653 674 653 681> 286 150<403 431> 411 150<486 507 486 514> 481 150<576 590 569 594> 499 150<660 673.5>
LayerCount: 2
Back
Fore
SplineSet
561 500 m 0x0840
 561 472 539 450 511 450 c 0
 502 450 493 453 486 457 c 1
 479 453 470 450 461 450 c 0
 433 450 411 472 411 500 c 0x1840
 411 528 433 550 461 550 c 0
 470 550 479 547 486 543 c 0
 489 545 492 547 496 548 c 1
 487 557 481 569 481 583 c 0x1820
 481 605 495 623 515 630 c 1
 505 639 499 653 499 667 c 0
 499 680 504 691 512 700 c 1
 502 700 494 704 486 709 c 1
 478 703 468 700 457 700 c 0
 448 700 439 703 432 707 c 1
 425 703 416 700 407 700 c 0
 396 700 387 703 379 709 c 1
 371 703 361 700 350 700 c 0x1410
 341 700 332 703 325 707 c 0
 322 705 319 703 315 702 c 1
 324 693 329 681 329 667 c 0
 329 639 307 617 279 617 c 0
 270 617 261 620 254 624 c 1
 247 620 238 617 229 617 c 0
 201 617 179 639 179 667 c 0
 179 695 201 717 229 717 c 0x0910
 238 717 247 714 254 710 c 0
 257 712 261 714 265 715 c 1
 256 724 250 736 250 750 c 0
 250 778 272 800 300 800 c 0
 309 800 318 797 325 793 c 1
 332 797 341 800 350 800 c 0
 361 800 371 797 379 791 c 1
 387 797 396 800 407 800 c 0
 416 800 425 797 432 793 c 1
 439 797 448 800 457 800 c 0
 468 800 478 797 486 791 c 1
 494 797 503 800 514 800 c 0
 523 800 532 797 539 793 c 1
 546 797 555 800 564 800 c 0x0510
 592 800 614 778 614 750 c 0
 614 737 610 726 602 717 c 1
 629 716 649 694 649 667 c 0x0910
 649 645 635 627 615 620 c 1
 625 611 631 597 631 583 c 0x0820
 631 555 609 533 581 533 c 0
 572 533 563 536 556 540 c 0
 553 538 550 536 546 535 c 1
 555 526 561 514 561 500 c 0x0840
436 417 m 0x2080
 436 389 414 367 386 367 c 0
 377 367 368 370 361 374 c 1
 354 370 345 367 336 367 c 0
 308 367 286 389 286 417 c 0
 286 445 308 467 336 467 c 0
 345 467 354 464 361 460 c 1
 368 464 377 467 386 467 c 0
 414 467 436 445 436 417 c 0x2080
560 250 m 0
 560 222 538 200 510 200 c 0
 501 200 492 203 485 207 c 1
 478 203 469 200 460 200 c 0
 449 200 440 203 432 209 c 1
 424 203 414 200 403 200 c 0
 394 200 385 203 378 207 c 1
 371 203 362 200 353 200 c 0x82
 343 200 333 204 325 209 c 1
 317 204 307 200 297 200 c 0
 288 200 279 203 272 207 c 1
 265 203 256 200 247 200 c 0
 236 200 227 203 219 209 c 1
 211 203 201 200 190 200 c 0x42
 181 200 172 203 165 207 c 1
 158 203 149 200 140 200 c 0
 112 200 90 222 90 250 c 0
 90 278 112 300 140 300 c 0x82
 149 300 158 297 165 293 c 0
 168 295 171 297 175 298 c 1
 166 307 161 319 161 333 c 0
 161 361 183 383 211 383 c 0
 220 383 229 380 236 376 c 1
 243 380 252 383 261 383 c 0x42
 289 383 311 361 311 333 c 0
 311 320 306 309 298 300 c 1
 308 300 317 296 325 291 c 1
 333 296 343 300 353 300 c 0
 362 300 371 297 378 293 c 1
 385 297 394 300 403 300 c 0
 414 300 424 297 432 291 c 1
 440 297 449 300 460 300 c 0
 469 300 478 297 485 293 c 1
 492 297 501 300 510 300 c 0x82
 538 300 560 278 560 250 c 0
EndSplineSet
EndChar

StartChar: three
Encoding: 51 51 20
Width: 600
Flags: MW
HStem: 200 100<161 232 227 230.5 276.5 286.5 327.5 337.5 383.5 393.5> 283 100 450 100<322 340.5 322 391.5 322 440> 613 20G<392 410.5> 700 100<215 233.5 274.5 284.5 330.5 340.5 381.5 391 437 441 594.5 613>
VStem: 90 150<326.5 347 326.5 347> 410 150<326 340 319 344> 428 150<410 423.5 660 673.5>
LayerCount: 2
Back
Fore
SplineSet
489 250 m 0x7e
 489 222 467 200 439 200 c 0
 430 200 421 203 414 207 c 1
 407 203 398 200 389 200 c 0
 378 200 369 203 361 209 c 1
 353 203 343 200 332 200 c 0
 323 200 314 203 307 207 c 1
 300 203 291 200 282 200 c 0
 271 200 262 203 254 209 c 1
 246 203 236 200 225 200 c 0
 216 200 207 203 200 207 c 1
 193 203 184 200 175 200 c 0xbe
 147 200 125 222 125 250 c 0
 125 263 129 274 137 283 c 1
 110 284 90 306 90 333 c 0
 90 361 112 383 140 383 c 0
 149 383 158 380 165 376 c 1
 172 380 181 383 190 383 c 0x7e
 218 383 240 361 240 333 c 0
 240 320 235 309 227 300 c 1
 237 300 246 296 254 291 c 1
 262 297 271 300 282 300 c 0
 291 300 300 297 307 293 c 1
 314 297 323 300 332 300 c 0
 343 300 353 297 361 291 c 1
 369 297 378 300 389 300 c 0
 398 300 407 297 414 293 c 0
 417 295 420 297 424 298 c 1
 415 307 410 319 410 333 c 0xbe
 410 355 424 373 444 380 c 1
 434 389 428 403 428 417 c 0
 428 430 432 441 440 450 c 1
 430 450 422 454 414 459 c 1
 406 453 397 450 386 450 c 0
 377 450 368 453 361 457 c 1
 354 453 345 450 336 450 c 0
 308 450 286 472 286 500 c 0
 286 528 308 550 336 550 c 0
 345 550 354 547 361 543 c 0
 364 545 367 547 371 548 c 1
 362 557 356 569 356 583 c 0
 356 611 378 633 406 633 c 0
 415 633 424 630 431 626 c 0
 435 628 439 630 443 631 c 1
 434 640 428 653 428 667 c 0
 428 680 433 691 441 700 c 1
 431 700 422 704 414 709 c 1
 406 704 396 700 386 700 c 0
 377 700 368 703 361 707 c 1
 354 703 345 700 336 700 c 0
 325 700 316 703 308 709 c 1
 300 703 290 700 279 700 c 0
 270 700 261 703 254 707 c 1
 247 703 238 700 229 700 c 0
 201 700 179 722 179 750 c 0
 179 778 201 800 229 800 c 0
 238 800 247 797 254 793 c 1
 261 797 270 800 279 800 c 0
 290 800 300 797 308 791 c 1
 316 797 325 800 336 800 c 0
 345 800 354 797 361 793 c 1
 368 797 377 800 386 800 c 0
 396 800 406 796 414 791 c 1
 422 796 432 800 442 800 c 0
 451 800 460 797 467 793 c 1
 474 797 483 800 492 800 c 0
 503 800 513 797 521 791 c 1
 529 797 538 800 549 800 c 0
 558 800 567 797 574 793 c 1
 581 797 590 800 599 800 c 0
 627 800 649 778 649 750 c 0
 649 722 627 700 599 700 c 0
 590 700 581 703 574 707 c 0
 571 705 568 703 564 702 c 1
 573 693 578 681 578 667 c 0
 578 639 556 617 528 617 c 0
 519 617 510 620 503 624 c 0
 499 622 495 620 491 619 c 1
 500 610 506 597 506 583 c 0
 506 570 502 559 494 550 c 1
 521 549 543 527 543 500 c 0
 543 487 538 476 530 467 c 1
 557 466 578 444 578 417 c 0xbd
 578 395 564 377 544 370 c 1
 554 361 560 347 560 333 c 0
 560 305 538 283 510 283 c 0
 501 283 492 286 485 290 c 0
 482 288 479 286 475 285 c 1
 484 276 489 264 489 250 c 0x7e
EndSplineSet
EndChar

StartChar: four
Encoding: 52 52 21
Width: 600
Flags: MW
HStem: 200 21G<357 375.5 416.5 435> 200 21G<357 375.5 416.5 435> 367 100<126 144.5 126 195.5 126 251.5 298 302 348 352> 613 20G<268 286.5> 780 20G<410 428.5 469.5 488>
VStem: 161 150<493.5 507 493.5 514> 321 150<236 257 236 261> 339 150<326 339.5> 375 150<493.5 507 493.5 511>
LayerCount: 2
Back
Fore
SplineSet
382 583 m 0x3c80
 382 555 360 533 332 533 c 0
 323 533 314 536 307 540 c 0
 304 538 300 536 296 535 c 1
 305 526 311 514 311 500 c 0
 311 487 306 476 298 467 c 1
 308 467 317 463 325 458 c 1
 333 463 343 467 353 467 c 0
 362 467 371 464 378 460 c 0
 381 462 385 464 389 465 c 1
 380 474 375 486 375 500 c 0
 375 522 389 540 408 547 c 1
 399 556 392 569 392 583 c 0
 392 596 398 608 406 617 c 1
 403 617 l 2
 394 617 385 620 378 624 c 0
 375 622 371 620 367 619 c 1
 376 610 382 597 382 583 c 0x3c80
471 250 m 0xbe
 471 222 449 200 421 200 c 0
 412 200 403 203 396 207 c 1
 389 203 380 200 371 200 c 0
 343 200 321 222 321 250 c 0xbe
 321 272 335 290 354 297 c 1
 345 306 339 319 339 333 c 0xbd
 339 346 344 358 352 367 c 1
 342 367 333 371 325 376 c 1
 317 371 307 367 297 367 c 0
 288 367 279 370 272 374 c 1
 265 370 256 367 247 367 c 0
 236 367 226 370 218 376 c 1
 210 370 201 367 190 367 c 0
 181 367 172 370 165 374 c 1
 158 370 149 367 140 367 c 0
 112 367 90 389 90 417 c 0
 90 445 112 467 140 467 c 0
 149 467 158 464 165 460 c 0
 168 462 171 464 175 465 c 1
 166 474 161 486 161 500 c 0
 161 528 183 550 211 550 c 0
 220 550 229 547 236 543 c 0
 239 545 243 547 247 548 c 1
 238 557 232 569 232 583 c 0
 232 611 254 633 282 633 c 0
 291 633 300 630 307 626 c 0
 310 628 314 630 318 631 c 1
 309 640 303 653 303 667 c 0
 303 695 325 717 353 717 c 0
 362 717 371 714 378 710 c 0
 381 712 385 714 389 715 c 1
 380 724 374 736 374 750 c 0
 374 778 396 800 424 800 c 0
 433 800 442 797 449 793 c 1
 456 797 465 800 474 800 c 0
 502 800 524 778 524 750 c 0
 524 737 520 726 512 717 c 1
 539 716 560 694 560 667 c 0
 560 645 546 627 526 620 c 1
 536 611 542 597 542 583 c 0
 542 561 528 543 509 536 c 1
 518 527 525 514 525 500 c 0xbc80
 525 487 520 476 512 467 c 1
 539 466 560 444 560 417 c 0
 560 389 538 367 510 367 c 0
 501 367 492 370 485 374 c 0
 482 372 478 370 474 369 c 1
 483 360 489 347 489 333 c 0xbd
 489 311 475 293 456 286 c 1
 465 277 471 264 471 250 c 0xbe
EndSplineSet
EndChar

StartChar: five
Encoding: 53 53 22
Width: 600
Flags: MW
HStem: 200 100<161 232 227 230.5 276.5 286.5 327.5 337.5 383.5 393.5> 283 100 533 100<238.5 300 298 300 300 304.5 345.5 355 401 410.5 451.5 456 456 458> 700 100<330.5 340.5 381.5 391 437 446.5 487.5 497.5 543.5 553.5 594.5 613>
VStem: 90 150<326.5 347 326.5 347> 161 150<660.5 674 660.5 678> 410 150<326 340 319 344> 428 150<410 424 406 428> 446 150<493 506.5>
LayerCount: 2
Back
Fore
SplineSet
489 250 m 0x72
 489 222 467 200 439 200 c 0
 430 200 421 203 414 207 c 1
 407 203 398 200 389 200 c 0
 378 200 369 203 361 209 c 1
 353 203 343 200 332 200 c 0
 323 200 314 203 307 207 c 1
 300 203 291 200 282 200 c 0
 271 200 262 203 254 209 c 1
 246 203 236 200 225 200 c 0
 216 200 207 203 200 207 c 1
 193 203 184 200 175 200 c 0xb2
 147 200 125 222 125 250 c 0
 125 263 129 274 137 283 c 1
 110 284 90 306 90 333 c 0
 90 361 112 383 140 383 c 0
 149 383 158 380 165 376 c 1
 172 380 181 383 190 383 c 0x7a
 218 383 240 361 240 333 c 0
 240 320 235 309 227 300 c 1
 237 300 246 296 254 291 c 1
 262 297 271 300 282 300 c 0
 291 300 300 297 307 293 c 1
 314 297 323 300 332 300 c 0
 343 300 353 297 361 291 c 1
 369 297 378 300 389 300 c 0
 398 300 407 297 414 293 c 0
 417 295 420 297 424 298 c 1
 415 307 410 319 410 333 c 0xba
 410 355 424 373 444 380 c 1
 434 389 428 403 428 417 c 0xb1
 428 439 442 457 461 464 c 1
 452 473 446 486 446 500 c 0
 446 513 450 524 458 533 c 1
 456 533 l 2
 447 533 438 536 431 540 c 1
 424 536 415 533 406 533 c 0
 396 533 386 537 378 542 c 1
 370 537 360 533 350 533 c 0
 341 533 332 536 325 540 c 1
 318 536 309 533 300 533 c 0
 289 533 280 536 272 542 c 1
 264 536 254 533 243 533 c 0
 234 533 225 536 218 540 c 1
 211 536 202 533 193 533 c 0
 165 533 143 555 143 583 c 0
 143 605 157 623 177 630 c 1
 167 639 161 653 161 667 c 0
 161 689 175 707 194 714 c 1
 185 723 179 736 179 750 c 0
 179 778 201 800 229 800 c 0
 238 800 247 797 254 793 c 1
 261 797 270 800 279 800 c 0
 290 800 300 797 308 791 c 1
 316 797 325 800 336 800 c 0
 345 800 354 797 361 793 c 1
 368 797 377 800 386 800 c 0
 396 800 406 796 414 791 c 1
 422 796 432 800 442 800 c 0
 451 800 460 797 467 793 c 1
 474 797 483 800 492 800 c 0
 503 800 513 797 521 791 c 1
 529 797 538 800 549 800 c 0
 558 800 567 797 574 793 c 1
 581 797 590 800 599 800 c 0
 627 800 649 778 649 750 c 0
 649 722 627 700 599 700 c 0
 590 700 581 703 574 707 c 1
 567 703 558 700 549 700 c 0
 538 700 529 703 521 709 c 1
 513 703 503 700 492 700 c 0
 483 700 474 703 467 707 c 1
 460 703 451 700 442 700 c 0
 432 700 422 704 414 709 c 1
 406 704 396 700 386 700 c 0
 377 700 368 703 361 707 c 1
 354 703 345 700 336 700 c 0
 325 700 316 703 308 709 c 1
 304 707 300 704 296 703 c 1
 305 694 311 681 311 667 c 0
 311 654 306 642 298 633 c 1
 300 633 l 2
 309 633 318 630 325 626 c 1
 332 630 341 633 350 633 c 0
 360 633 370 629 378 624 c 1
 386 629 396 633 406 633 c 0
 415 633 424 630 431 626 c 1
 438 630 447 633 456 633 c 0
 484 633 506 611 506 583 c 0
 506 570 502 559 494 550 c 1
 496 550 l 2
 505 550 514 547 521 543 c 1
 528 547 537 550 546 550 c 0
 574 550 596 528 596 500 c 0xb480
 596 478 581 460 562 453 c 1
 571 444 578 431 578 417 c 0xb1
 578 395 564 377 544 370 c 1
 554 361 560 347 560 333 c 0
 560 305 538 283 510 283 c 0
 501 283 492 286 485 290 c 0
 482 288 479 286 475 285 c 1
 484 276 489 264 489 250 c 0x72
EndSplineSet
EndChar

StartChar: six
Encoding: 54 54 23
Width: 600
Flags: MW
HStem: 200 100<161 232 227 230.5 276.5 286.5 327.5 337.5 383.5 393.5> 450 100<215 284.5 215 340.5 388 391.5 437.5 440> 613 20G<286 304.5> 700 100<487.5 506>
VStem: 90 150<326.5 340 326.5 344> 108 150<410 424 406 431> 250 150<576.5 590 576.5 597> 321 150<660 674 653 681> 392 150<743 764> 410 150<326 340 319 344> 428 150<410 423.5>
LayerCount: 2
Back
Fore
SplineSet
227 300 m 1xf8
 237 300 246 296 254 291 c 1
 262 297 271 300 282 300 c 0
 291 300 300 297 307 293 c 1
 314 297 323 300 332 300 c 0
 343 300 353 297 361 291 c 1
 369 297 378 300 389 300 c 0
 398 300 407 297 414 293 c 0
 417 295 420 297 424 298 c 1
 415 307 410 319 410 333 c 0xf840
 410 355 424 373 444 380 c 1
 434 389 428 403 428 417 c 0
 428 430 432 441 440 450 c 1
 430 450 422 454 414 459 c 1
 406 453 397 450 386 450 c 0
 377 450 368 453 361 457 c 1
 354 453 345 450 336 450 c 0
 325 450 315 453 307 459 c 1
 299 453 290 450 279 450 c 0
 270 450 261 453 254 457 c 0
 251 455 247 453 243 452 c 1
 252 443 258 431 258 417 c 0xf420
 258 395 244 377 224 370 c 1
 234 361 240 347 240 333 c 0
 240 320 235 309 227 300 c 1xf8
489 250 m 0
 489 222 467 200 439 200 c 0
 430 200 421 203 414 207 c 1
 407 203 398 200 389 200 c 0
 378 200 369 203 361 209 c 1
 353 203 343 200 332 200 c 0
 323 200 314 203 307 207 c 1
 300 203 291 200 282 200 c 0
 271 200 262 203 254 209 c 1
 246 203 236 200 225 200 c 0
 216 200 207 203 200 207 c 1
 193 203 184 200 175 200 c 0
 147 200 125 222 125 250 c 0
 125 263 129 274 137 283 c 1
 110 284 90 306 90 333 c 0xf840
 90 355 104 373 124 380 c 1
 114 389 108 403 108 417 c 0xf4
 108 445 130 467 158 467 c 0
 167 467 176 464 183 460 c 0
 186 462 189 464 193 465 c 1
 184 474 179 486 179 500 c 0
 179 528 201 550 229 550 c 0
 238 550 247 547 254 543 c 0
 257 545 261 547 265 548 c 1
 256 557 250 569 250 583 c 0xf2
 250 611 272 633 300 633 c 0
 309 633 318 630 325 626 c 0
 328 628 332 630 336 631 c 1
 327 640 321 653 321 667 c 0xf1
 321 695 343 717 371 717 c 0
 380 717 389 714 396 710 c 0
 399 712 403 714 407 715 c 1
 398 724 392 736 392 750 c 0
 392 778 414 800 442 800 c 0
 451 800 460 797 467 793 c 1
 474 797 483 800 492 800 c 0
 520 800 542 778 542 750 c 0xf080
 542 722 520 700 492 700 c 0
 483 700 474 703 467 707 c 0
 464 705 461 703 457 702 c 1
 466 693 471 681 471 667 c 0xf1
 471 639 449 617 421 617 c 0
 412 617 403 620 396 624 c 0
 393 622 389 620 385 619 c 1
 394 610 400 597 400 583 c 0
 400 570 396 559 388 550 c 1
 398 550 406 546 414 541 c 1
 422 547 432 550 443 550 c 0
 452 550 461 547 468 543 c 1
 475 547 484 550 493 550 c 0
 521 550 543 528 543 500 c 0
 543 487 538 476 530 467 c 1
 557 466 578 444 578 417 c 0xf220
 578 395 564 377 544 370 c 1
 554 361 560 347 560 333 c 0
 560 305 538 283 510 283 c 0
 501 283 492 286 485 290 c 0
 482 288 479 286 475 285 c 1
 484 276 489 264 489 250 c 0
EndSplineSet
EndChar

StartChar: seven
Encoding: 55 55 24
Width: 600
Flags: MW
HStem: 200 21G<126 144.5 185.5 204> 200 100<126 144.5 126 204> 613 20G<411 429.5> 700 100<180 198.5 239.5 249.5 295.5 305.5 346.5 356 402 411.5 452.5 457 457 459>
VStem: 90 150<236 257 236 264> 162 150<326 340 319 347> 233 150<410 424 403 431> 304 150<493 507 486 514> 375 150<576 590 569 597> 446 150<660 673.5>
LayerCount: 2
Back
Fore
SplineSet
240 250 m 0x78
 240 222 218 200 190 200 c 0xb8
 181 200 172 203 165 207 c 1
 158 203 149 200 140 200 c 0
 112 200 90 222 90 250 c 0x78
 90 278 112 300 140 300 c 0
 149 300 158 297 165 293 c 0
 168 295 172 297 176 298 c 1
 167 307 162 319 162 333 c 0x74
 162 361 184 383 212 383 c 0
 221 383 230 380 237 376 c 0
 240 378 244 380 248 381 c 1
 239 390 233 403 233 417 c 0x72
 233 445 255 467 283 467 c 0
 292 467 301 464 308 460 c 0
 311 462 314 464 318 465 c 1
 309 474 304 486 304 500 c 0x71
 304 528 326 550 354 550 c 0
 363 550 372 547 379 543 c 0
 382 545 386 547 390 548 c 1
 381 557 375 569 375 583 c 0x7080
 375 611 397 633 425 633 c 0
 434 633 443 630 450 626 c 0
 453 628 457 630 461 631 c 1
 452 640 446 653 446 667 c 0
 446 680 451 691 459 700 c 1
 457 700 l 2
 448 700 439 703 432 707 c 1
 425 703 416 700 407 700 c 0
 397 700 387 704 379 709 c 1
 371 704 361 700 351 700 c 0
 342 700 333 703 326 707 c 1
 319 703 310 700 301 700 c 0
 290 700 281 703 273 709 c 1
 265 703 255 700 244 700 c 0
 235 700 226 703 219 707 c 1
 212 703 203 700 194 700 c 0
 166 700 144 722 144 750 c 0
 144 778 166 800 194 800 c 0
 203 800 212 797 219 793 c 1
 226 797 235 800 244 800 c 0
 255 800 265 797 273 791 c 1
 281 797 290 800 301 800 c 0
 310 800 319 797 326 793 c 1
 333 797 342 800 351 800 c 0
 361 800 371 796 379 791 c 1
 387 796 397 800 407 800 c 0
 416 800 425 797 432 793 c 1
 439 797 448 800 457 800 c 0
 468 800 478 797 486 791 c 1
 494 797 503 800 514 800 c 0
 523 800 532 797 539 793 c 1
 546 797 555 800 564 800 c 0
 592 800 614 778 614 750 c 0
 614 728 600 710 581 703 c 1
 590 694 596 681 596 667 c 0x7040
 596 639 574 617 546 617 c 0
 537 617 528 620 521 624 c 0
 518 622 514 620 510 619 c 1
 519 610 525 597 525 583 c 0x7080
 525 555 503 533 475 533 c 0
 466 533 457 536 450 540 c 0
 447 538 443 536 439 535 c 1
 448 526 454 514 454 500 c 0x71
 454 472 432 450 404 450 c 0
 395 450 386 453 379 457 c 0
 376 455 372 453 368 452 c 1
 377 443 383 431 383 417 c 0x72
 383 389 361 367 333 367 c 0
 324 367 315 370 308 374 c 0
 305 372 301 370 297 369 c 1
 306 360 312 347 312 333 c 0x74
 312 305 290 283 262 283 c 0
 253 283 244 286 237 290 c 0
 234 288 230 286 226 285 c 1
 235 276 240 264 240 250 c 0x78
EndSplineSet
EndChar

StartChar: eight
Encoding: 56 56 25
Width: 600
Flags: MW
HStem: 200 100<161 232 227 230.5 276.5 286.5 327.5 337.5 383.5 393.5> 450 100<281 284.5 330.5 340.5 381.5 391.5 437.5 440> 700 100<327.5 337.5 383.5 393.5 434.5 444.5 490.5 494>
VStem: 90 150<326.5 340 326.5 344> 108 150<410 424 406 431> 143 150<576.5 590 576.5 594> 161 150<660 674 656 681> 410 150<326 340 319 344> 428 150<410 423.5> 463 150<576 590 569 594> 481 150<660 673.5>
CounterMasks: 1 e0
LayerCount: 2
Back
Fore
SplineSet
281 550 m 1xe4
 291 550 299 546 307 541 c 1
 315 547 325 550 336 550 c 0
 345 550 354 547 361 543 c 1
 368 547 377 550 386 550 c 0
 397 550 406 547 414 541 c 1
 422 547 432 550 443 550 c 0
 452 550 461 547 468 543 c 0
 471 545 474 547 478 548 c 1
 469 557 463 569 463 583 c 0xe440
 463 605 477 623 497 630 c 1
 487 639 481 653 481 667 c 0
 481 680 486 691 494 700 c 1
 484 700 476 704 468 709 c 1
 460 703 450 700 439 700 c 0
 430 700 421 703 414 707 c 1
 407 703 398 700 389 700 c 0
 378 700 369 703 361 709 c 1
 353 703 343 700 332 700 c 0
 323 700 314 703 307 707 c 0
 304 705 301 703 297 702 c 1
 306 693 311 681 311 667 c 0xe220
 311 645 297 627 277 620 c 1
 287 611 293 597 293 583 c 0
 293 570 289 559 281 550 c 1xe4
227 300 m 1
 237 300 246 296 254 291 c 1
 262 297 271 300 282 300 c 0
 291 300 300 297 307 293 c 1
 314 297 323 300 332 300 c 0
 343 300 353 297 361 291 c 1
 369 297 378 300 389 300 c 0
 398 300 407 297 414 293 c 0
 417 295 420 297 424 298 c 1
 415 307 410 319 410 333 c 0xf1
 410 355 424 373 444 380 c 1
 434 389 428 403 428 417 c 0
 428 430 432 441 440 450 c 1
 430 450 422 454 414 459 c 1
 406 453 397 450 386 450 c 0
 377 450 368 453 361 457 c 1
 354 453 345 450 336 450 c 0
 325 450 315 453 307 459 c 1
 299 453 290 450 279 450 c 0
 270 450 261 453 254 457 c 0
 251 455 247 453 243 452 c 1
 252 443 258 431 258 417 c 0xe880
 258 395 244 377 224 370 c 1
 234 361 240 347 240 333 c 0xf0
 240 320 235 309 227 300 c 1
489 250 m 0
 489 222 467 200 439 200 c 0
 430 200 421 203 414 207 c 1
 407 203 398 200 389 200 c 0
 378 200 369 203 361 209 c 1
 353 203 343 200 332 200 c 0
 323 200 314 203 307 207 c 1
 300 203 291 200 282 200 c 0
 271 200 262 203 254 209 c 1
 246 203 236 200 225 200 c 0
 216 200 207 203 200 207 c 1
 193 203 184 200 175 200 c 0
 147 200 125 222 125 250 c 0
 125 263 129 274 137 283 c 1
 110 284 90 306 90 333 c 0xf1
 90 355 104 373 124 380 c 1
 114 389 108 403 108 417 c 0xe8
 108 445 130 467 158 467 c 0
 167 467 176 464 183 460 c 0
 186 462 189 464 193 465 c 1
 184 474 179 486 179 500 c 0
 179 513 183 524 191 533 c 1
 164 534 143 556 143 583 c 0xe4
 143 605 157 623 177 630 c 1
 167 639 161 653 161 667 c 0
 161 695 183 717 211 717 c 0
 220 717 229 714 236 710 c 0
 239 712 243 714 247 715 c 1
 238 724 232 736 232 750 c 0
 232 778 254 800 282 800 c 0
 291 800 300 797 307 793 c 1
 314 797 323 800 332 800 c 0
 343 800 353 797 361 791 c 1
 369 797 378 800 389 800 c 0
 398 800 407 797 414 793 c 1
 421 797 430 800 439 800 c 0
 450 800 460 797 468 791 c 1
 476 797 485 800 496 800 c 0
 505 800 514 797 521 793 c 1
 528 797 537 800 546 800 c 0
 574 800 596 778 596 750 c 0
 596 737 592 726 584 717 c 1
 611 716 631 694 631 667 c 0xe220
 631 645 617 627 597 620 c 1
 607 611 613 597 613 583 c 0xe040
 613 555 591 533 563 533 c 0
 554 533 545 536 538 540 c 0
 535 538 532 536 528 535 c 1
 537 526 543 514 543 500 c 0
 543 487 538 476 530 467 c 1
 557 466 578 444 578 417 c 0xe080
 578 395 564 377 544 370 c 1
 554 361 560 347 560 333 c 0
 560 305 538 283 510 283 c 0
 501 283 492 286 485 290 c 0
 482 288 479 286 475 285 c 1
 484 276 489 264 489 250 c 0
EndSplineSet
EndChar

StartChar: nine
Encoding: 57 57 26
Width: 600
Flags: MW
HStem: 200 21G<162 180.5 221.5 240> 200 100<162 180.5 162 240> 450 100<162 233 228 231.5 277.5 280> 700 100<274.5 284.5 330.5 340.5 381.5 391.5 437.5 441>
VStem: 90 150<576.5 590 576.5 594> 108 150<660 674 656 681> 126 150<236 257 236 264> 197 150<326 340 319 347> 268 150<410 423.5> 410 150<576 590 569 594> 428 150<660 673.5>
LayerCount: 2
Back
Fore
SplineSet
228 550 m 1x38
 238 550 246 546 254 541 c 1
 262 547 272 550 283 550 c 0
 292 550 301 547 308 543 c 1
 315 547 324 550 333 550 c 0
 344 550 353 547 361 541 c 1
 369 547 379 550 390 550 c 0
 399 550 408 547 415 543 c 0
 418 545 421 547 425 548 c 1
 416 557 410 569 410 583 c 0x3840
 410 605 424 623 444 630 c 1
 434 639 428 653 428 667 c 0
 428 680 433 691 441 700 c 1
 431 700 423 704 415 709 c 1
 407 703 397 700 386 700 c 0
 377 700 368 703 361 707 c 1
 354 703 345 700 336 700 c 0
 325 700 316 703 308 709 c 1
 300 703 290 700 279 700 c 0
 270 700 261 703 254 707 c 0
 251 705 248 703 244 702 c 1
 253 693 258 681 258 667 c 0x3420
 258 645 244 627 224 620 c 1
 234 611 240 597 240 583 c 0
 240 570 236 559 228 550 c 1x38
276 250 m 0x72
 276 222 254 200 226 200 c 0xb2
 217 200 208 203 201 207 c 1
 194 203 185 200 176 200 c 0
 148 200 126 222 126 250 c 0x72
 126 278 148 300 176 300 c 0
 185 300 194 297 201 293 c 0
 204 295 207 297 211 298 c 1
 202 307 197 319 197 333 c 0x71
 197 361 219 383 247 383 c 0
 256 383 265 380 272 376 c 0
 275 378 279 380 283 381 c 1
 274 390 268 403 268 417 c 0x7080
 268 430 272 441 280 450 c 1
 270 450 262 454 254 459 c 1
 246 453 237 450 226 450 c 0
 217 450 208 453 201 457 c 1
 194 453 185 450 176 450 c 0
 148 450 126 472 126 500 c 0x72
 126 513 130 524 138 533 c 1
 111 534 90 556 90 583 c 0x78
 90 605 104 623 124 630 c 1
 114 639 108 653 108 667 c 0
 108 695 130 717 158 717 c 0
 167 717 176 714 183 710 c 0
 186 712 190 714 194 715 c 1
 185 724 179 736 179 750 c 0
 179 778 201 800 229 800 c 0
 238 800 247 797 254 793 c 1
 261 797 270 800 279 800 c 0
 290 800 300 797 308 791 c 1
 316 797 325 800 336 800 c 0
 345 800 354 797 361 793 c 1
 368 797 377 800 386 800 c 0
 397 800 407 797 415 791 c 1
 423 797 432 800 443 800 c 0
 452 800 461 797 468 793 c 1
 475 797 484 800 493 800 c 0
 521 800 543 778 543 750 c 0
 543 737 539 726 531 717 c 1
 558 716 578 694 578 667 c 0x7420
 578 645 564 627 544 620 c 1
 554 611 560 597 560 583 c 0x7040
 560 555 538 533 510 533 c 0
 501 533 492 536 485 540 c 0
 482 538 479 536 475 535 c 1
 484 526 490 514 490 500 c 0
 490 472 468 450 440 450 c 0
 431 450 422 453 415 457 c 0
 412 455 407 453 403 452 c 1
 412 443 418 431 418 417 c 0x7080
 418 389 396 367 368 367 c 0
 359 367 350 370 343 374 c 0
 340 372 336 370 332 369 c 1
 341 360 347 347 347 333 c 0x71
 347 305 325 283 297 283 c 0
 288 283 279 286 272 290 c 0
 269 288 266 286 262 285 c 1
 271 276 276 264 276 250 c 0x72
EndSplineSet
EndChar

StartChar: colon
Encoding: 58 58 27
Width: 600
Flags: MW
HStem: 200 21G<161 179.5 220.5 239> 200 21G<161 179.5 220.5 239> 283 100<296 296> 617 100<210 210> 780 20G<268 286.5 327.5 346>
VStem: 90 256<319.5 346.5 319 347> 125 150<236 256.5> 161 150<410.5 431 410.5 431> 161 256<410 680.5 653.5 680.5 653 681> 196 150<569 589.5> 232 150<743.5 764 743.5 764>
LayerCount: 2
Back
Fore
SplineSet
346 583 m 0x3840
 346 555 324 533 296 533 c 0
 287 533 278 536 271 540 c 1
 264 536 255 533 246 533 c 0
 218 533 196 555 196 583 c 0x3840
 196 596 202 608 210 617 c 1
 183 618 161 640 161 667 c 0x3880
 161 695 183 717 211 717 c 0
 220 717 229 714 236 710 c 0
 239 712 243 714 247 715 c 1
 238 724 232 736 232 750 c 0
 232 778 254 800 282 800 c 0
 291 800 300 797 307 793 c 1
 314 797 323 800 332 800 c 0
 360 800 382 778 382 750 c 0x3820
 382 737 378 726 370 717 c 1
 397 716 417 694 417 667 c 0x3880
 417 639 395 617 367 617 c 0
 358 617 349 620 342 624 c 0
 339 622 335 620 331 619 c 1
 340 610 346 597 346 583 c 0x3840
275 250 m 0xba
 275 222 253 200 225 200 c 0
 216 200 207 203 200 207 c 1
 193 203 184 200 175 200 c 0
 147 200 125 222 125 250 c 0xba
 125 263 129 274 137 283 c 1
 110 284 90 306 90 333 c 0xbc
 90 361 112 383 140 383 c 0
 149 383 158 380 165 376 c 0
 168 378 172 380 176 381 c 1
 167 390 161 403 161 417 c 0
 161 445 183 467 211 467 c 0
 220 467 229 464 236 460 c 1
 243 464 252 467 261 467 c 0
 289 467 311 445 311 417 c 0xb9
 311 404 305 392 297 383 c 1
 324 382 346 360 346 333 c 0xbc
 346 305 324 283 296 283 c 0
 287 283 278 286 271 290 c 0
 268 288 265 286 261 285 c 1
 270 276 275 264 275 250 c 0xba
EndSplineSet
EndChar

StartChar: semicolon
Encoding: 59 59 28
Width: 600
Flags: MW
HStem: 200 21G<126 144.5 185.5 204> 200 100<126 144.5 126 204> 617 100<215 233.5 215 284 215 339.5> 617 183<215 304.5 274.5 304.5 286 339.5 286 399>
VStem: 90 150<236 257 236 264> 126 256<403.5 424 403 428> 144 256<493 514> 161 150<326 339.5> 179 256<653 680.5 653 681> 250 150<743.5 764>
LayerCount: 2
Back
Fore
SplineSet
435 667 m 0x2080
 435 639 413 617 385 617 c 0
 376 617 367 620 360 624 c 1
 353 620 344 617 335 617 c 0
 325 617 315 621 307 626 c 1
 299 621 289 617 279 617 c 0x1080
 270 617 261 620 254 624 c 1
 247 620 238 617 229 617 c 0
 201 617 179 639 179 667 c 0
 179 695 201 717 229 717 c 0x2080
 238 717 247 714 254 710 c 0
 257 712 261 714 265 715 c 1
 256 724 250 736 250 750 c 0
 250 778 272 800 300 800 c 0
 309 800 318 797 325 793 c 1
 332 797 341 800 350 800 c 0
 378 800 400 778 400 750 c 0x1040
 400 737 396 726 388 717 c 1
 415 716 435 694 435 667 c 0x2080
240 250 m 0x48
 240 222 218 200 190 200 c 0x88
 181 200 172 203 165 207 c 1
 158 203 149 200 140 200 c 0
 112 200 90 222 90 250 c 0x48
 90 278 112 300 140 300 c 0
 149 300 158 297 165 293 c 0
 168 295 171 297 175 298 c 1
 166 307 161 319 161 333 c 0x41
 161 346 166 358 174 367 c 1
 147 368 126 390 126 417 c 0x44
 126 439 140 457 159 464 c 1
 150 473 144 486 144 500 c 0
 144 528 166 550 194 550 c 0
 203 550 212 547 219 543 c 1
 226 547 235 550 244 550 c 0
 254 550 264 546 272 541 c 1
 280 546 290 550 300 550 c 0
 309 550 318 547 325 543 c 1
 332 547 341 550 350 550 c 0
 378 550 400 528 400 500 c 0x42
 400 478 385 460 366 453 c 1
 375 444 382 431 382 417 c 0x44
 382 389 360 367 332 367 c 0
 323 367 314 370 307 374 c 0
 304 372 300 370 296 369 c 1
 305 360 311 347 311 333 c 0x41
 311 305 289 283 261 283 c 0
 252 283 243 286 236 290 c 0
 233 288 230 286 226 285 c 1
 235 276 240 264 240 250 c 0x48
EndSplineSet
EndChar

StartChar: less
Encoding: 60 60 29
Width: 600
Flags: MW
HStem: 200 100<404 406 406 410.5 451.5 470> 283 100<315 317 317 321.5 362.5 367 367 368> 367 100<227 229 229 233.5 274.5 279 279 280> 450 100<126 144.5 185.5 190 190 191> 533 100<250 268.5 309.5 328> 617 100<374 392.5 433.5 452> 700 100<499 517.5 558.5 577>
VStem: 90 150<493.5 514 493.5 514> 179 150<410.5 423.5> 214 150<569 597> 267 150<326.5 339.5> 338 150<653 681> 356 150<236 256.5> 463 150<736 764>
LayerCount: 2
Back
Fore
SplineSet
613 750 m 0x0204
 613 722 591 700 563 700 c 0
 554 700 545 703 538 707 c 1
 531 703 522 700 513 700 c 0
 485 700 463 722 463 750 c 0
 463 778 485 800 513 800 c 0
 522 800 531 797 538 793 c 1
 545 797 554 800 563 800 c 0
 591 800 613 778 613 750 c 0x0204
488 667 m 0x0410
 488 639 466 617 438 617 c 0
 429 617 420 620 413 624 c 1
 406 620 397 617 388 617 c 0
 360 617 338 639 338 667 c 0
 338 695 360 717 388 717 c 0
 397 717 406 714 413 710 c 1
 420 714 429 717 438 717 c 0
 466 717 488 695 488 667 c 0x0410
364 583 m 0x0840
 364 555 342 533 314 533 c 0
 305 533 296 536 289 540 c 1
 282 536 273 533 264 533 c 0
 236 533 214 555 214 583 c 0
 214 611 236 633 264 633 c 0
 273 633 282 630 289 626 c 1
 296 630 305 633 314 633 c 0
 342 633 364 611 364 583 c 0x0840
506 250 m 0x8008
 506 222 484 200 456 200 c 0
 447 200 438 203 431 207 c 1
 424 203 415 200 406 200 c 0
 378 200 356 222 356 250 c 0x8008
 356 263 360 274 368 283 c 1
 367 283 l 2
 358 283 349 286 342 290 c 1
 335 286 326 283 317 283 c 0
 289 283 267 305 267 333 c 0x4020
 267 346 272 358 280 367 c 1
 279 367 l 2
 270 367 261 370 254 374 c 1
 247 370 238 367 229 367 c 0
 201 367 179 389 179 417 c 0x2080
 179 430 183 441 191 450 c 1
 190 450 l 2
 181 450 172 453 165 457 c 1
 158 453 149 450 140 450 c 0
 112 450 90 472 90 500 c 0
 90 528 112 550 140 550 c 0
 149 550 158 547 165 543 c 1
 172 547 181 550 190 550 c 0
 218 550 240 528 240 500 c 0x11
 240 487 235 476 227 467 c 1
 229 467 l 2
 238 467 247 464 254 460 c 1
 261 464 270 467 279 467 c 0
 307 467 329 445 329 417 c 0x2080
 329 404 323 392 315 383 c 1
 317 383 l 2
 326 383 335 380 342 376 c 1
 349 380 358 383 367 383 c 0
 395 383 417 361 417 333 c 0x4020
 417 320 412 309 404 300 c 1
 406 300 l 2
 415 300 424 297 431 293 c 1
 438 297 447 300 456 300 c 0
 484 300 506 278 506 250 c 0x8008
EndSplineSet
EndChar

StartChar: equal
Encoding: 61 61 30
Width: 600
Flags: MW
HStem: 367 100<126 144.5 185.5 195.5 241.5 251.5 292.5 302 348 357.5 398.5 408.5 454.5 464.5 505.5 524> 533 100<161 179.5 220.5 230.5 276.5 286.5 327.5 337 383 392.5 433.5 443.5 489.5 499.5 540.5 559>
LayerCount: 2
Back
Fore
SplineSet
595 583 m 0
 595 555 573 533 545 533 c 0
 536 533 527 536 520 540 c 1
 513 536 504 533 495 533 c 0
 484 533 475 536 467 542 c 1
 459 536 449 533 438 533 c 0
 429 533 420 536 413 540 c 1
 406 536 397 533 388 533 c 0
 378 533 368 537 360 542 c 1
 352 537 342 533 332 533 c 0
 323 533 314 536 307 540 c 1
 300 536 291 533 282 533 c 0
 271 533 262 536 254 542 c 1
 246 536 236 533 225 533 c 0
 216 533 207 536 200 540 c 1
 193 536 184 533 175 533 c 0
 147 533 125 555 125 583 c 0
 125 611 147 633 175 633 c 0
 184 633 193 630 200 626 c 1
 207 630 216 633 225 633 c 0
 236 633 246 630 254 624 c 1
 262 630 271 633 282 633 c 0
 291 633 300 630 307 626 c 1
 314 630 323 633 332 633 c 0
 342 633 352 629 360 624 c 1
 368 629 378 633 388 633 c 0
 397 633 406 630 413 626 c 1
 420 630 429 633 438 633 c 0
 449 633 459 630 467 624 c 1
 475 630 484 633 495 633 c 0
 504 633 513 630 520 626 c 1
 527 630 536 633 545 633 c 0
 573 633 595 611 595 583 c 0
560 417 m 0
 560 389 538 367 510 367 c 0
 501 367 492 370 485 374 c 1
 478 370 469 367 460 367 c 0
 449 367 439 370 431 376 c 1
 423 370 414 367 403 367 c 0
 394 367 385 370 378 374 c 1
 371 370 362 367 353 367 c 0
 343 367 333 371 325 376 c 1
 317 371 307 367 297 367 c 0
 288 367 279 370 272 374 c 1
 265 370 256 367 247 367 c 0
 236 367 226 370 218 376 c 1
 210 370 201 367 190 367 c 0
 181 367 172 370 165 374 c 1
 158 370 149 367 140 367 c 0
 112 367 90 389 90 417 c 0
 90 445 112 467 140 467 c 0
 149 467 158 464 165 460 c 1
 172 464 181 467 190 467 c 0
 201 467 210 464 218 458 c 1
 226 464 236 467 247 467 c 0
 256 467 265 464 272 460 c 1
 279 464 288 467 297 467 c 0
 307 467 317 463 325 458 c 1
 333 463 343 467 353 467 c 0
 362 467 371 464 378 460 c 1
 385 464 394 467 403 467 c 0
 414 467 423 464 431 458 c 1
 439 464 449 467 460 467 c 0
 469 467 478 464 485 460 c 1
 492 464 501 467 510 467 c 0
 538 467 560 445 560 417 c 0
EndSplineSet
EndChar

StartChar: greater
Encoding: 62 62 31
Width: 600
Flags: MW
HStem: 200 100<126 144.5 185.5 204> 283 100<251 269.5 310.5 329> 367 100<375 393.5 434.5 453> 450 100<512 514 514 518.5 559.5 578> 533 100<423 424 424 428.5 469.5 474 474 476> 617 100<335 336 336 340.5 381.5 386 386 388> 700 100<233 251.5 292.5 297 297 299>
VStem: 90 150<236 264> 197 150<743.5 764 743.5 764> 215 150<319 347> 286 150<660.5 673.5> 339 150<403 431> 374 150<576.5 589.5> 464 150<486 506.5>
LayerCount: 2
Back
Fore
SplineSet
614 500 m 0x1004
 614 472 592 450 564 450 c 0
 555 450 546 453 539 457 c 1
 532 453 523 450 514 450 c 0
 486 450 464 472 464 500 c 0x1004
 464 513 468 524 476 533 c 1
 474 533 l 2
 465 533 456 536 449 540 c 1
 442 536 433 533 424 533 c 0
 396 533 374 555 374 583 c 0x0808
 374 596 380 608 388 617 c 1
 386 617 l 2
 377 617 368 620 361 624 c 1
 354 620 345 617 336 617 c 0
 308 617 286 639 286 667 c 0x0420
 286 680 291 691 299 700 c 1
 297 700 l 2
 288 700 279 703 272 707 c 1
 265 703 256 700 247 700 c 0
 219 700 197 722 197 750 c 0
 197 778 219 800 247 800 c 0
 256 800 265 797 272 793 c 1
 279 797 288 800 297 800 c 0
 325 800 347 778 347 750 c 0x0280
 347 737 343 726 335 717 c 1
 336 717 l 2
 345 717 354 714 361 710 c 1
 368 714 377 717 386 717 c 0
 414 717 436 695 436 667 c 0x0420
 436 654 431 642 423 633 c 1
 424 633 l 2
 433 633 442 630 449 626 c 1
 456 630 465 633 474 633 c 0
 502 633 524 611 524 583 c 0x0808
 524 570 520 559 512 550 c 1
 514 550 l 2
 523 550 532 547 539 543 c 1
 546 547 555 550 564 550 c 0
 592 550 614 528 614 500 c 0x1004
489 417 m 0x2010
 489 389 467 367 439 367 c 0
 430 367 421 370 414 374 c 1
 407 370 398 367 389 367 c 0
 361 367 339 389 339 417 c 0
 339 445 361 467 389 467 c 0
 398 467 407 464 414 460 c 1
 421 464 430 467 439 467 c 0
 467 467 489 445 489 417 c 0x2010
365 333 m 0x4040
 365 305 343 283 315 283 c 0
 306 283 297 286 290 290 c 1
 283 286 274 283 265 283 c 0
 237 283 215 305 215 333 c 0
 215 361 237 383 265 383 c 0
 274 383 283 380 290 376 c 1
 297 380 306 383 315 383 c 0
 343 383 365 361 365 333 c 0x4040
240 250 m 0x81
 240 222 218 200 190 200 c 0
 181 200 172 203 165 207 c 1
 158 203 149 200 140 200 c 0
 112 200 90 222 90 250 c 0
 90 278 112 300 140 300 c 0
 149 300 158 297 165 293 c 1
 172 297 181 300 190 300 c 0
 218 300 240 278 240 250 c 0x81
EndSplineSet
EndChar

StartChar: question
Encoding: 63 63 32
Width: 600
Flags: MW
HStem: 200 100<197 215.5 256.5 275> 533 100<383.5 393.5> 617 100<126 144.5 126 204> 700 100<256.5 266.5 312.5 322.5 363.5 373.5 419.5 423>
VStem: 90 150<653 674 653 681> 161 150<236 264> 197 150<403 424 403 428> 215 150<493 507 489 511> 410 150<660 673.5>
LayerCount: 2
Back
Fore
SplineSet
347 417 m 0xc280
 347 389 325 367 297 367 c 0
 288 367 279 370 272 374 c 1
 265 370 256 367 247 367 c 0
 219 367 197 389 197 417 c 0xc280
 197 439 211 457 230 464 c 1
 221 473 215 486 215 500 c 0
 215 522 229 540 248 547 c 1
 239 556 232 569 232 583 c 0
 232 611 254 633 282 633 c 0
 291 633 300 630 307 626 c 1
 314 630 323 633 332 633 c 0
 343 633 353 630 361 624 c 1
 369 630 378 633 389 633 c 0
 398 633 407 630 414 626 c 0
 417 628 421 630 425 631 c 1
 416 640 410 653 410 667 c 0
 410 680 415 691 423 700 c 1
 413 700 405 704 397 709 c 1
 389 703 379 700 368 700 c 0
 359 700 350 703 343 707 c 1
 336 703 327 700 318 700 c 0
 307 700 298 703 290 709 c 1
 282 703 272 700 261 700 c 0xd180
 252 700 243 703 236 707 c 0
 233 705 230 703 226 702 c 1
 235 693 240 681 240 667 c 0
 240 639 218 617 190 617 c 0
 181 617 172 620 165 624 c 1
 158 620 149 617 140 617 c 0
 112 617 90 639 90 667 c 0
 90 695 112 717 140 717 c 0xa880
 149 717 158 714 165 710 c 0
 168 712 172 714 176 715 c 1
 167 724 161 736 161 750 c 0
 161 778 183 800 211 800 c 0
 220 800 229 797 236 793 c 1
 243 797 252 800 261 800 c 0
 272 800 282 797 290 791 c 1
 298 797 307 800 318 800 c 0
 327 800 336 797 343 793 c 1
 350 797 359 800 368 800 c 0
 379 800 389 797 397 791 c 1
 405 797 414 800 425 800 c 0
 434 800 443 797 450 793 c 1
 457 797 466 800 475 800 c 0x9480
 503 800 525 778 525 750 c 0
 525 737 521 726 513 717 c 1
 540 716 560 694 560 667 c 0
 560 639 538 617 510 617 c 0xa480
 501 617 492 620 485 624 c 0
 482 622 478 620 474 619 c 1
 483 610 489 597 489 583 c 0
 489 555 467 533 439 533 c 0
 430 533 421 536 414 540 c 1
 407 536 398 533 389 533 c 0
 378 533 369 536 361 542 c 1
 357 540 353 537 349 536 c 1
 358 527 365 514 365 500 c 0xc180
 365 478 350 460 331 453 c 1
 340 444 347 431 347 417 c 0xc280
311 250 m 0x8480
 311 222 289 200 261 200 c 0
 252 200 243 203 236 207 c 1
 229 203 220 200 211 200 c 0
 183 200 161 222 161 250 c 0
 161 278 183 300 211 300 c 0
 220 300 229 297 236 293 c 1
 243 297 252 300 261 300 c 0
 289 300 311 278 311 250 c 0x8480
EndSplineSet
EndChar

StartChar: at
Encoding: 64 64 33
Width: 600
Flags: MW
HStem: 200 100<161 232 227 230.5 276.5 286.5 327.5 337.5 383.5 393.5 434.5 453> 613 20G<392 410.5 451.5 461.5> 700 100<327.5 337.5 383.5 393.5 434.5 444.5 490.5 494>
VStem: 90 150<326.5 340 326.5 344> 108 150<410 424 406 428> 126 150<493 507 489 511> 143 150<576 590 572 594> 161 150<660 674 656 681> 268 257<403 424 403 428> 286 150<493.5 507 493.5 514> 446 150<493 506.5> 481 150<660 673.5>
LayerCount: 2
Back
Fore
SplineSet
450 460 m 0xe060
 453 462 456 464 460 465 c 1
 451 474 446 486 446 500 c 0
 446 513 450 524 458 533 c 1
 456 533 l 2
 447 533 438 536 431 540 c 0
 428 538 425 536 421 535 c 1
 430 526 436 514 436 500 c 0
 436 487 431 476 423 467 c 1
 425 467 l 2
 434 467 443 464 450 460 c 0xe060
489 250 m 0
 489 222 467 200 439 200 c 0
 430 200 421 203 414 207 c 1
 407 203 398 200 389 200 c 0
 378 200 369 203 361 209 c 1
 353 203 343 200 332 200 c 0
 323 200 314 203 307 207 c 1
 300 203 291 200 282 200 c 0
 271 200 262 203 254 209 c 1
 246 203 236 200 225 200 c 0
 216 200 207 203 200 207 c 1
 193 203 184 200 175 200 c 0
 147 200 125 222 125 250 c 0
 125 263 129 274 137 283 c 1
 110 284 90 306 90 333 c 0xf0
 90 355 104 373 124 380 c 1
 114 389 108 403 108 417 c 0xe8
 108 439 122 457 141 464 c 1
 132 473 126 486 126 500 c 0xe4
 126 522 140 540 159 547 c 1
 150 556 143 569 143 583 c 0xe2
 143 605 157 623 177 630 c 1
 167 639 161 653 161 667 c 0
 161 695 183 717 211 717 c 0
 220 717 229 714 236 710 c 0
 239 712 243 714 247 715 c 1
 238 724 232 736 232 750 c 0
 232 778 254 800 282 800 c 0
 291 800 300 797 307 793 c 1
 314 797 323 800 332 800 c 0
 343 800 353 797 361 791 c 1
 369 797 378 800 389 800 c 0
 398 800 407 797 414 793 c 1
 421 797 430 800 439 800 c 0
 450 800 460 797 468 791 c 1
 476 797 485 800 496 800 c 0
 505 800 514 797 521 793 c 1
 528 797 537 800 546 800 c 0
 574 800 596 778 596 750 c 0xe120
 596 737 592 726 584 717 c 1
 611 716 631 694 631 667 c 0xe010
 631 645 617 627 597 620 c 1
 607 611 613 597 613 583 c 0
 613 561 599 543 580 536 c 1
 589 527 596 514 596 500 c 0xe020
 596 472 574 450 546 450 c 0
 537 450 528 453 521 457 c 0
 518 455 514 453 510 452 c 1
 519 443 525 431 525 417 c 0
 525 389 503 367 475 367 c 0
 466 367 457 370 450 374 c 1
 443 370 434 367 425 367 c 0
 414 367 404 370 396 376 c 1
 388 370 379 367 368 367 c 0
 359 367 350 370 343 374 c 1
 336 370 327 367 318 367 c 0
 290 367 268 389 268 417 c 0xe080
 268 439 282 457 301 464 c 1
 292 473 286 486 286 500 c 0xe040
 286 528 308 550 336 550 c 0
 345 550 354 547 361 543 c 0
 364 545 367 547 371 548 c 1
 362 557 356 569 356 583 c 0
 356 611 378 633 406 633 c 0
 415 633 424 630 431 626 c 1
 438 630 447 633 456 633 c 0
 467 633 477 630 485 624 c 1
 489 627 493 628 497 630 c 1
 487 639 481 653 481 667 c 0
 481 680 486 691 494 700 c 1
 484 700 476 704 468 709 c 1
 460 703 450 700 439 700 c 0
 430 700 421 703 414 707 c 1
 407 703 398 700 389 700 c 0
 378 700 369 703 361 709 c 1
 353 703 343 700 332 700 c 0
 323 700 314 703 307 707 c 0
 304 705 301 703 297 702 c 1
 306 693 311 681 311 667 c 0xe110
 311 645 297 627 277 620 c 1
 287 611 293 597 293 583 c 0xe2
 293 561 279 543 260 536 c 1
 269 527 276 514 276 500 c 0xe4
 276 478 261 460 242 453 c 1
 251 444 258 431 258 417 c 0xe8
 258 395 244 377 224 370 c 1
 234 361 240 347 240 333 c 0xf0
 240 320 235 309 227 300 c 1
 237 300 246 296 254 291 c 1
 262 297 271 300 282 300 c 0
 291 300 300 297 307 293 c 1
 314 297 323 300 332 300 c 0
 343 300 353 297 361 291 c 1
 369 297 378 300 389 300 c 0
 398 300 407 297 414 293 c 1
 421 297 430 300 439 300 c 0
 467 300 489 278 489 250 c 0
EndSplineSet
EndChar

StartChar: A
Encoding: 65 65 34
Width: 600
Flags: MW
HStem: 200 21G<126 144.5 185.5 204 446 464.5 505.5 524> 200 21G<126 144.5 185.5 204 446 464.5 505.5 524> 367 100<281 283 283 287.5 328.5 338 384 393.5 434.5 439 439 441> 613 20G<250 268.5 529 542.5> 780 20G<393 411.5 452.5 471>
VStem: 90 150<236 257 236 261> 108 150<326 340 322 344> 144 150<493.5 507 493.5 514> 214 150<576 590 569 597> 286 256<660.5 680.5 660.5 681> 357 150<743.5 764 743.5 764> 410 150<236 257 236 261> 428 150<326 339.5 576.5 589.5>
LayerCount: 2
Back
Fore
SplineSet
364 583 m 0x3888
 364 555 342 533 314 533 c 0
 305 533 296 536 289 540 c 0
 286 538 283 536 279 535 c 1
 288 526 294 514 294 500 c 0x39
 294 487 289 476 281 467 c 1
 283 467 l 2
 292 467 301 464 308 460 c 1
 315 464 324 467 333 467 c 0
 343 467 353 463 361 458 c 1
 369 463 379 467 389 467 c 0
 398 467 407 464 414 460 c 1
 421 464 430 467 439 467 c 0
 450 467 459 464 467 458 c 1
 471 460 475 463 479 464 c 1
 470 473 464 486 464 500 c 0
 464 513 468 524 476 533 c 1
 449 534 428 556 428 583 c 0
 428 596 434 608 442 617 c 1
 432 617 422 621 414 626 c 1
 406 621 396 617 386 617 c 0
 377 617 368 620 361 624 c 0
 357 622 353 620 349 619 c 1
 358 610 364 597 364 583 c 0x3888
560 250 m 0xb810
 560 222 538 200 510 200 c 0
 501 200 492 203 485 207 c 1
 478 203 469 200 460 200 c 0
 432 200 410 222 410 250 c 0xb810
 410 272 424 290 443 297 c 1
 434 306 428 319 428 333 c 0
 428 346 433 358 441 367 c 1
 439 367 l 2
 430 367 421 370 414 374 c 1
 407 370 398 367 389 367 c 0
 379 367 369 371 361 376 c 1
 353 371 343 367 333 367 c 0
 324 367 315 370 308 374 c 1
 301 370 292 367 283 367 c 0
 272 367 262 370 254 376 c 1
 250 373 246 372 242 370 c 1
 252 361 258 347 258 333 c 0xba08
 258 311 244 293 225 286 c 1
 234 277 240 264 240 250 c 0
 240 222 218 200 190 200 c 0
 181 200 172 203 165 207 c 1
 158 203 149 200 140 200 c 0
 112 200 90 222 90 250 c 0xbc
 90 272 104 290 123 297 c 1
 114 306 108 319 108 333 c 0xba
 108 355 122 373 142 380 c 1
 132 389 126 403 126 417 c 0
 126 439 140 457 159 464 c 1
 150 473 144 486 144 500 c 0xb9
 144 528 166 550 194 550 c 0
 203 550 212 547 219 543 c 0
 222 545 225 547 229 548 c 1
 220 557 214 569 214 583 c 0xb880
 214 611 236 633 264 633 c 0
 273 633 282 630 289 626 c 0
 293 628 297 630 301 631 c 1
 292 640 286 653 286 667 c 0xb840
 286 695 308 717 336 717 c 0
 345 717 354 714 361 710 c 0
 364 712 368 714 372 715 c 1
 363 724 357 736 357 750 c 0
 357 778 379 800 407 800 c 0
 416 800 425 797 432 793 c 1
 439 797 448 800 457 800 c 0
 485 800 507 778 507 750 c 0xb820
 507 737 503 726 495 717 c 1
 522 716 542 694 542 667 c 0xb840
 542 654 537 642 529 633 c 1
 556 633 578 610 578 583 c 0
 578 570 574 559 566 550 c 1
 593 549 614 527 614 500 c 0
 614 478 599 460 580 453 c 1
 589 444 596 431 596 417 c 0
 596 395 582 377 562 370 c 1
 572 361 578 347 578 333 c 0xb808
 578 311 564 293 545 286 c 1
 554 277 560 264 560 250 c 0xb810
EndSplineSet
EndChar

StartChar: B
Encoding: 66 66 35
Width: 600
Flags: MW
HStem: 200 100<126 144.5 126 195.5 126 251.5 298 302 348 357.5 398.5 417> 450 100<352 354 354 358.5 399.5 409.5 455.5 458> 700 100<399.5 409 455 464.5 505.5 510 510 512>
VStem: 161 150<326.5 340 326.5 344> 179 150<410 424 406 428> 214 150<576.5 590 576.5 594> 232 150<660 673.5> 428 150<319 340 319 344> 446 150<410 423.5> 481 150<576 590 569 594> 499 150<660 673.5>
CounterMasks: 1 e0
LayerCount: 2
Back
Fore
SplineSet
348 620 m 1xe220
 358 611 364 597 364 583 c 0
 364 570 360 559 352 550 c 1
 354 550 l 2
 363 550 372 547 379 543 c 1
 386 547 395 550 404 550 c 0
 415 550 424 547 432 541 c 1
 440 547 450 550 461 550 c 0
 470 550 479 547 486 543 c 0
 489 545 492 547 496 548 c 1
 487 557 481 569 481 583 c 0xe440
 481 605 495 623 515 630 c 1
 505 639 499 653 499 667 c 0
 499 680 504 691 512 700 c 1
 510 700 l 2
 501 700 492 703 485 707 c 1
 478 703 469 700 460 700 c 0
 450 700 440 704 432 709 c 1
 424 704 414 700 404 700 c 0
 395 700 386 703 379 707 c 0
 376 705 372 703 368 702 c 1
 377 693 382 681 382 667 c 0
 382 645 368 627 348 620 c 1xe220
453 250 m 0
 453 222 431 200 403 200 c 0
 394 200 385 203 378 207 c 1
 371 203 362 200 353 200 c 0
 343 200 333 204 325 209 c 1
 317 204 307 200 297 200 c 0
 288 200 279 203 272 207 c 1
 265 203 256 200 247 200 c 0
 236 200 227 203 219 209 c 1
 211 203 201 200 190 200 c 0
 181 200 172 203 165 207 c 1
 158 203 149 200 140 200 c 0
 112 200 90 222 90 250 c 0
 90 278 112 300 140 300 c 0
 149 300 158 297 165 293 c 0
 168 295 171 297 175 298 c 1
 166 307 161 319 161 333 c 0xf0
 161 355 175 373 195 380 c 1
 185 389 179 403 179 417 c 0xe8
 179 439 193 457 212 464 c 1
 203 473 197 486 197 500 c 0
 197 522 211 540 230 547 c 1
 221 556 214 569 214 583 c 0xe4
 214 605 228 623 248 630 c 1
 238 639 232 653 232 667 c 0
 232 680 237 691 245 700 c 1
 218 701 197 723 197 750 c 0
 197 778 219 800 247 800 c 0
 256 800 265 797 272 793 c 1
 279 797 288 800 297 800 c 0
 308 800 318 797 326 791 c 1
 334 797 343 800 354 800 c 0
 363 800 372 797 379 793 c 1
 386 797 395 800 404 800 c 0
 414 800 424 796 432 791 c 1
 440 796 450 800 460 800 c 0
 469 800 478 797 485 793 c 1
 492 797 501 800 510 800 c 0
 538 800 560 778 560 750 c 0
 560 737 556 726 548 717 c 1
 549 717 l 2
 558 717 567 714 574 710 c 1
 581 714 590 717 599 717 c 0
 627 717 649 695 649 667 c 0xe220
 649 645 635 627 615 620 c 1
 625 611 631 597 631 583 c 0xe040
 631 555 609 533 581 533 c 0
 572 533 563 536 556 540 c 0
 553 538 550 536 546 535 c 1
 555 526 561 514 561 500 c 0
 561 487 556 476 548 467 c 1
 575 466 596 444 596 417 c 0xe080
 596 395 582 377 562 370 c 1
 572 361 578 347 578 333 c 0
 578 305 556 283 528 283 c 0
 519 283 510 286 503 290 c 1
 496 286 487 283 478 283 c 0
 450 283 428 305 428 333 c 0xe1
 428 355 442 373 462 380 c 1
 452 389 446 403 446 417 c 0
 446 430 450 441 458 450 c 1
 448 450 440 454 432 459 c 1
 424 453 415 450 404 450 c 0
 395 450 386 453 379 457 c 1
 372 453 363 450 354 450 c 0
 343 450 333 453 325 459 c 1
 321 457 317 454 313 453 c 1
 322 444 329 431 329 417 c 0xe880
 329 395 315 377 295 370 c 1
 305 361 311 347 311 333 c 0xf0
 311 320 306 309 298 300 c 1
 308 300 317 296 325 291 c 1
 333 296 343 300 353 300 c 0
 362 300 371 297 378 293 c 1
 385 297 394 300 403 300 c 0
 431 300 453 278 453 250 c 0
EndSplineSet
EndChar

StartChar: C
Encoding: 67 67 36
Width: 600
Flags: MW
HStem: 200 100<161 232 227 230.5 276.5 286.5 327.5 337.5 383.5 393.5> 283 100<505.5 524> 617 100 700 100<327.5 337.5 383.5 393.5 434.5 444.5 490.5 494>
VStem: 90 150<326.5 340 326.5 344> 108 150<410 424 406 428> 126 150<493 507 489 511> 143 150<576 590 572 594> 161 150<660 674 656 681> 410 150<326 347> 481 150<653 673.5>
LayerCount: 2
Back
Fore
SplineSet
489 250 m 0x4840
 489 222 467 200 439 200 c 0
 430 200 421 203 414 207 c 1
 407 203 398 200 389 200 c 0
 378 200 369 203 361 209 c 1
 353 203 343 200 332 200 c 0
 323 200 314 203 307 207 c 1
 300 203 291 200 282 200 c 0
 271 200 262 203 254 209 c 1
 246 203 236 200 225 200 c 0
 216 200 207 203 200 207 c 1
 193 203 184 200 175 200 c 0x8840
 147 200 125 222 125 250 c 0
 125 263 129 274 137 283 c 1
 110 284 90 306 90 333 c 0x4840
 90 355 104 373 124 380 c 1
 114 389 108 403 108 417 c 0x44
 108 439 122 457 141 464 c 1
 132 473 126 486 126 500 c 0x42
 126 522 140 540 159 547 c 1
 150 556 143 569 143 583 c 0x41
 143 605 157 623 177 630 c 1
 167 639 161 653 161 667 c 0
 161 695 183 717 211 717 c 0x6080
 220 717 229 714 236 710 c 0
 239 712 243 714 247 715 c 1
 238 724 232 736 232 750 c 0
 232 778 254 800 282 800 c 0
 291 800 300 797 307 793 c 1
 314 797 323 800 332 800 c 0
 343 800 353 797 361 791 c 1
 369 797 378 800 389 800 c 0
 398 800 407 797 414 793 c 1
 421 797 430 800 439 800 c 0
 450 800 460 797 468 791 c 1
 476 797 485 800 496 800 c 0
 505 800 514 797 521 793 c 1
 528 797 537 800 546 800 c 0x1080
 574 800 596 778 596 750 c 0
 596 737 592 726 584 717 c 1
 611 716 631 694 631 667 c 0
 631 639 609 617 581 617 c 0
 572 617 563 620 556 624 c 1
 549 620 540 617 531 617 c 0x20a0
 503 617 481 639 481 667 c 0
 481 680 486 691 494 700 c 1
 484 700 476 704 468 709 c 1
 460 703 450 700 439 700 c 0
 430 700 421 703 414 707 c 1
 407 703 398 700 389 700 c 0
 378 700 369 703 361 709 c 1
 353 703 343 700 332 700 c 0
 323 700 314 703 307 707 c 0
 304 705 301 703 297 702 c 1
 306 693 311 681 311 667 c 0x10a0
 311 645 297 627 277 620 c 1
 287 611 293 597 293 583 c 0x11
 293 561 279 543 260 536 c 1
 269 527 276 514 276 500 c 0x12
 276 478 261 460 242 453 c 1
 251 444 258 431 258 417 c 0x14
 258 395 244 377 224 370 c 1
 234 361 240 347 240 333 c 0
 240 320 235 309 227 300 c 1
 237 300 246 296 254 291 c 1
 262 297 271 300 282 300 c 0
 291 300 300 297 307 293 c 1
 314 297 323 300 332 300 c 0
 343 300 353 297 361 291 c 1
 369 297 378 300 389 300 c 0x98
 398 300 407 297 414 293 c 0
 417 295 420 297 424 298 c 1
 415 307 410 319 410 333 c 0
 410 361 432 383 460 383 c 0
 469 383 478 380 485 376 c 1
 492 380 501 383 510 383 c 0
 538 383 560 361 560 333 c 0
 560 305 538 283 510 283 c 0
 501 283 492 286 485 290 c 0
 482 288 479 286 475 285 c 1
 484 276 489 264 489 250 c 0x4840
EndSplineSet
EndChar

StartChar: D
Encoding: 68 68 37
Width: 600
Flags: MW
HStem: 200 100<126 144.5 126 195.5 126 251.5 298 302 348 357.5 398.5 417> 700 100<399.5 409 455 464.5 505.5 510 510 512>
VStem: 161 150<326.5 340 326.5 344> 179 150<410 424 406 428> 197 150<493 507 489 511> 214 150<576 590 572 594> 232 150<660 673.5> 428 150<319 340 319 344> 446 150<410 424 406 428> 464 150<493 507 489 511> 481 150<576 590 572 594> 499 150<660 673.5>
LayerCount: 2
Back
Fore
SplineSet
453 250 m 0xe0
 453 222 431 200 403 200 c 0
 394 200 385 203 378 207 c 1
 371 203 362 200 353 200 c 0
 343 200 333 204 325 209 c 1
 317 204 307 200 297 200 c 0
 288 200 279 203 272 207 c 1
 265 203 256 200 247 200 c 0
 236 200 227 203 219 209 c 1
 211 203 201 200 190 200 c 0
 181 200 172 203 165 207 c 1
 158 203 149 200 140 200 c 0
 112 200 90 222 90 250 c 0
 90 278 112 300 140 300 c 0
 149 300 158 297 165 293 c 0
 168 295 171 297 175 298 c 1
 166 307 161 319 161 333 c 0xe0
 161 355 175 373 195 380 c 1
 185 389 179 403 179 417 c 0xd0
 179 439 193 457 212 464 c 1
 203 473 197 486 197 500 c 0xc8
 197 522 211 540 230 547 c 1
 221 556 214 569 214 583 c 0xc4
 214 605 228 623 248 630 c 1
 238 639 232 653 232 667 c 0xc2
 232 680 237 691 245 700 c 1
 218 701 197 723 197 750 c 0
 197 778 219 800 247 800 c 0
 256 800 265 797 272 793 c 1
 279 797 288 800 297 800 c 0
 308 800 318 797 326 791 c 1
 334 797 343 800 354 800 c 0
 363 800 372 797 379 793 c 1
 386 797 395 800 404 800 c 0
 414 800 424 796 432 791 c 1
 440 796 450 800 460 800 c 0
 469 800 478 797 485 793 c 1
 492 797 501 800 510 800 c 0
 538 800 560 778 560 750 c 0
 560 737 556 726 548 717 c 1
 549 717 l 2
 558 717 567 714 574 710 c 1
 581 714 590 717 599 717 c 0
 627 717 649 695 649 667 c 0xc810
 649 645 635 627 615 620 c 1
 625 611 631 597 631 583 c 0xc020
 631 561 617 543 598 536 c 1
 607 527 614 514 614 500 c 0xc040
 614 478 599 460 580 453 c 1
 589 444 596 431 596 417 c 0xc080
 596 395 582 377 562 370 c 1
 572 361 578 347 578 333 c 0
 578 305 556 283 528 283 c 0
 519 283 510 286 503 290 c 1
 496 286 487 283 478 283 c 0
 450 283 428 305 428 333 c 0xc1
 428 355 442 373 462 380 c 1
 452 389 446 403 446 417 c 0xc080
 446 439 460 457 479 464 c 1
 470 473 464 486 464 500 c 0xc040
 464 522 478 540 497 547 c 1
 488 556 481 569 481 583 c 0xc020
 481 605 495 623 515 630 c 1
 505 639 499 653 499 667 c 0
 499 680 504 691 512 700 c 1
 510 700 l 2
 501 700 492 703 485 707 c 1
 478 703 469 700 460 700 c 0
 450 700 440 704 432 709 c 1
 424 704 414 700 404 700 c 0
 395 700 386 703 379 707 c 0
 376 705 372 703 368 702 c 1
 377 693 382 681 382 667 c 0xc210
 382 645 368 627 348 620 c 1
 358 611 364 597 364 583 c 0xc4
 364 561 350 543 331 536 c 1
 340 527 347 514 347 500 c 0xc8
 347 478 332 460 313 453 c 1
 322 444 329 431 329 417 c 0xd0
 329 395 315 377 295 370 c 1
 305 361 311 347 311 333 c 0
 311 320 306 309 298 300 c 1
 308 300 317 296 325 291 c 1
 333 296 343 300 353 300 c 0
 362 300 371 297 378 293 c 1
 385 297 394 300 403 300 c 0
 431 300 453 278 453 250 c 0xe0
EndSplineSet
EndChar

StartChar: E
Encoding: 69 69 38
Width: 600
Flags: MW
HStem: 200 100<185.5 247 245 247 247 251.5 292.5 302 348 357.5 398.5 408.5 454.5 464.5 505.5 524> 450 100<299 301 301 305.5 346.5 356 402 411.5 452.5 471> 700 100<348.5 358.5 399.5 409 455 464.5 505.5 515.5 561.5 571.5 612.5 631>
VStem: 108 150<326.5 340 326.5 344> 126 150<410 424 406 428> 161 150<576.5 590 576.5 594> 179 150<660 674 656 678>
CounterMasks: 1 e0
LayerCount: 2
Back
Fore
SplineSet
560 250 m 0xf0
 560 222 538 200 510 200 c 0
 501 200 492 203 485 207 c 1
 478 203 469 200 460 200 c 0
 449 200 440 203 432 209 c 1
 424 203 414 200 403 200 c 0
 394 200 385 203 378 207 c 1
 371 203 362 200 353 200 c 0
 343 200 333 204 325 209 c 1
 317 204 307 200 297 200 c 0
 288 200 279 203 272 207 c 1
 265 203 256 200 247 200 c 0
 236 200 227 203 219 209 c 1
 211 203 201 200 190 200 c 0
 181 200 172 203 165 207 c 1
 158 203 149 200 140 200 c 0
 112 200 90 222 90 250 c 0
 90 272 104 290 123 297 c 1
 114 306 108 319 108 333 c 0xf0
 108 355 122 373 142 380 c 1
 132 389 126 403 126 417 c 0xe8
 126 439 140 457 159 464 c 1
 150 473 144 486 144 500 c 0
 144 522 158 540 177 547 c 1
 168 556 161 569 161 583 c 0xe4
 161 605 175 623 195 630 c 1
 185 639 179 653 179 667 c 0
 179 689 193 707 212 714 c 1
 203 723 197 736 197 750 c 0
 197 778 219 800 247 800 c 0
 256 800 265 797 272 793 c 1
 279 797 288 800 297 800 c 0
 308 800 318 797 326 791 c 1
 334 797 343 800 354 800 c 0
 363 800 372 797 379 793 c 1
 386 797 395 800 404 800 c 0
 414 800 424 796 432 791 c 1
 440 796 450 800 460 800 c 0
 469 800 478 797 485 793 c 1
 492 797 501 800 510 800 c 0
 521 800 531 797 539 791 c 1
 547 797 556 800 567 800 c 0
 576 800 585 797 592 793 c 1
 599 797 608 800 617 800 c 0
 645 800 667 778 667 750 c 0
 667 722 645 700 617 700 c 0
 608 700 599 703 592 707 c 1
 585 703 576 700 567 700 c 0
 556 700 547 703 539 709 c 1
 531 703 521 700 510 700 c 0
 501 700 492 703 485 707 c 1
 478 703 469 700 460 700 c 0
 450 700 440 704 432 709 c 1
 424 704 414 700 404 700 c 0
 395 700 386 703 379 707 c 1
 372 703 363 700 354 700 c 0
 343 700 334 703 326 709 c 1
 322 707 318 704 314 703 c 1
 323 694 329 681 329 667 c 0xe2
 329 645 315 627 295 620 c 1
 305 611 311 597 311 583 c 0xe4
 311 570 307 559 299 550 c 1
 301 550 l 2
 310 550 319 547 326 543 c 1
 333 547 342 550 351 550 c 0
 361 550 371 546 379 541 c 1
 387 546 397 550 407 550 c 0
 416 550 425 547 432 543 c 1
 439 547 448 550 457 550 c 0
 485 550 507 528 507 500 c 0
 507 472 485 450 457 450 c 0
 448 450 439 453 432 457 c 1
 425 453 416 450 407 450 c 0
 397 450 387 454 379 459 c 1
 371 454 361 450 351 450 c 0
 342 450 333 453 326 457 c 1
 319 453 310 450 301 450 c 0
 290 450 280 453 272 459 c 1
 268 457 264 454 260 453 c 1
 269 444 276 431 276 417 c 0xe8
 276 395 262 377 242 370 c 1
 252 361 258 347 258 333 c 0
 258 320 253 309 245 300 c 1
 247 300 l 2
 256 300 265 297 272 293 c 1
 279 297 288 300 297 300 c 0
 307 300 317 296 325 291 c 1
 333 296 343 300 353 300 c 0
 362 300 371 297 378 293 c 1
 385 297 394 300 403 300 c 0
 414 300 424 297 432 291 c 1
 440 297 449 300 460 300 c 0
 469 300 478 297 485 293 c 1
 492 297 501 300 510 300 c 0
 538 300 560 278 560 250 c 0xf0
EndSplineSet
EndChar

StartChar: F
Encoding: 70 70 39
Width: 600
Flags: MW
HStem: 200 21G<126 144.5 185.5 204> 200 21G<126 144.5 185.5 204> 450 100<299 301 301 305.5 346.5 356 402 411.5 452.5 471> 700 100<348.5 358.5 399.5 409 455 464.5 505.5 515.5 561.5 571.5 612.5 631>
VStem: 90 150<236 257 236 261> 108 150<326 340 322 344> 126 150<410 424 406 428> 161 150<576.5 590 576.5 594> 179 150<660 674 656 678>
LayerCount: 2
Back
Fore
SplineSet
240 250 m 0xb8
 240 222 218 200 190 200 c 0
 181 200 172 203 165 207 c 1
 158 203 149 200 140 200 c 0
 112 200 90 222 90 250 c 0xb8
 90 272 104 290 123 297 c 1
 114 306 108 319 108 333 c 0xb4
 108 355 122 373 142 380 c 1
 132 389 126 403 126 417 c 0xb2
 126 439 140 457 159 464 c 1
 150 473 144 486 144 500 c 0
 144 522 158 540 177 547 c 1
 168 556 161 569 161 583 c 0xb1
 161 605 175 623 195 630 c 1
 185 639 179 653 179 667 c 0
 179 689 193 707 212 714 c 1
 203 723 197 736 197 750 c 0
 197 778 219 800 247 800 c 0
 256 800 265 797 272 793 c 1
 279 797 288 800 297 800 c 0
 308 800 318 797 326 791 c 1
 334 797 343 800 354 800 c 0
 363 800 372 797 379 793 c 1
 386 797 395 800 404 800 c 0
 414 800 424 796 432 791 c 1
 440 796 450 800 460 800 c 0
 469 800 478 797 485 793 c 1
 492 797 501 800 510 800 c 0
 521 800 531 797 539 791 c 1
 547 797 556 800 567 800 c 0
 576 800 585 797 592 793 c 1
 599 797 608 800 617 800 c 0
 645 800 667 778 667 750 c 0
 667 722 645 700 617 700 c 0
 608 700 599 703 592 707 c 1
 585 703 576 700 567 700 c 0
 556 700 547 703 539 709 c 1
 531 703 521 700 510 700 c 0
 501 700 492 703 485 707 c 1
 478 703 469 700 460 700 c 0
 450 700 440 704 432 709 c 1
 424 704 414 700 404 700 c 0
 395 700 386 703 379 707 c 1
 372 703 363 700 354 700 c 0
 343 700 334 703 326 709 c 1
 322 707 318 704 314 703 c 1
 323 694 329 681 329 667 c 0xb080
 329 645 315 627 295 620 c 1
 305 611 311 597 311 583 c 0xb1
 311 570 307 559 299 550 c 1
 301 550 l 2
 310 550 319 547 326 543 c 1
 333 547 342 550 351 550 c 0
 361 550 371 546 379 541 c 1
 387 546 397 550 407 550 c 0
 416 550 425 547 432 543 c 1
 439 547 448 550 457 550 c 0
 485 550 507 528 507 500 c 0
 507 472 485 450 457 450 c 0
 448 450 439 453 432 457 c 1
 425 453 416 450 407 450 c 0
 397 450 387 454 379 459 c 1
 371 454 361 450 351 450 c 0
 342 450 333 453 326 457 c 1
 319 453 310 450 301 450 c 0
 290 450 280 453 272 459 c 1
 268 457 264 454 260 453 c 1
 269 444 276 431 276 417 c 0xb2
 276 395 262 377 242 370 c 1
 252 361 258 347 258 333 c 0xb4
 258 311 244 293 225 286 c 1
 234 277 240 264 240 250 c 0xb8
EndSplineSet
EndChar

StartChar: G
Encoding: 71 71 40
Width: 600
Flags: MW
HStem: 200 100<161 232 227 230.5 276.5 286.5 327.5 337.5 383.5 393.5> 450 100<375 393.5 434.5 439 439 440> 617 100 700 100<327.5 337.5 383.5 393.5 434.5 444.5 490.5 494>
VStem: 90 150<326.5 340 326.5 344> 108 150<410 424 406 428> 126 150<493 507 489 511> 143 150<576 590 572 594> 161 150<660 674 656 681> 339 257<489 514 489 514> 410 150<326 340 319 344> 428 150<410 423.5> 481 150<653 673.5>
LayerCount: 2
Back
Fore
SplineSet
489 250 m 0xd020
 489 222 467 200 439 200 c 0
 430 200 421 203 414 207 c 1
 407 203 398 200 389 200 c 0
 378 200 369 203 361 209 c 1
 353 203 343 200 332 200 c 0
 323 200 314 203 307 207 c 1
 300 203 291 200 282 200 c 0
 271 200 262 203 254 209 c 1
 246 203 236 200 225 200 c 0
 216 200 207 203 200 207 c 1
 193 203 184 200 175 200 c 0
 147 200 125 222 125 250 c 0
 125 263 129 274 137 283 c 1
 110 284 90 306 90 333 c 0xd820
 90 355 104 373 124 380 c 1
 114 389 108 403 108 417 c 0xd4
 108 439 122 457 141 464 c 1
 132 473 126 486 126 500 c 0xd2
 126 522 140 540 159 547 c 1
 150 556 143 569 143 583 c 0xd1
 143 605 157 623 177 630 c 1
 167 639 161 653 161 667 c 0
 161 695 183 717 211 717 c 0xe080
 220 717 229 714 236 710 c 0
 239 712 243 714 247 715 c 1
 238 724 232 736 232 750 c 0
 232 778 254 800 282 800 c 0
 291 800 300 797 307 793 c 1
 314 797 323 800 332 800 c 0
 343 800 353 797 361 791 c 1
 369 797 378 800 389 800 c 0
 398 800 407 797 414 793 c 1
 421 797 430 800 439 800 c 0
 450 800 460 797 468 791 c 1
 476 797 485 800 496 800 c 0
 505 800 514 797 521 793 c 1
 528 797 537 800 546 800 c 0
 574 800 596 778 596 750 c 0xd0c0
 596 737 592 726 584 717 c 1
 611 716 631 694 631 667 c 0
 631 639 609 617 581 617 c 0
 572 617 563 620 556 624 c 1
 549 620 540 617 531 617 c 0xe008
 503 617 481 639 481 667 c 0
 481 680 486 691 494 700 c 1
 484 700 476 704 468 709 c 1
 460 703 450 700 439 700 c 0
 430 700 421 703 414 707 c 1
 407 703 398 700 389 700 c 0
 378 700 369 703 361 709 c 1
 353 703 343 700 332 700 c 0
 323 700 314 703 307 707 c 0
 304 705 301 703 297 702 c 1
 306 693 311 681 311 667 c 0xd088
 311 645 297 627 277 620 c 1
 287 611 293 597 293 583 c 0xd1
 293 561 279 543 260 536 c 1
 269 527 276 514 276 500 c 0xd2
 276 478 261 460 242 453 c 1
 251 444 258 431 258 417 c 0xd4
 258 395 244 377 224 370 c 1
 234 361 240 347 240 333 c 0
 240 320 235 309 227 300 c 1
 237 300 246 296 254 291 c 1
 262 297 271 300 282 300 c 0
 291 300 300 297 307 293 c 1
 314 297 323 300 332 300 c 0
 343 300 353 297 361 291 c 1
 369 297 378 300 389 300 c 0
 398 300 407 297 414 293 c 0
 417 295 420 297 424 298 c 1
 415 307 410 319 410 333 c 0xd820
 410 355 424 373 444 380 c 1
 434 389 428 403 428 417 c 0xd010
 428 430 432 441 440 450 c 1
 439 450 l 2
 430 450 421 453 414 457 c 1
 407 453 398 450 389 450 c 0
 361 450 339 472 339 500 c 0
 339 528 361 550 389 550 c 0
 398 550 407 547 414 543 c 1
 421 547 430 550 439 550 c 0
 450 550 459 547 467 541 c 1
 475 547 485 550 496 550 c 0
 505 550 514 547 521 543 c 1
 528 547 537 550 546 550 c 0
 574 550 596 528 596 500 c 0xd040
 596 478 581 460 562 453 c 1
 571 444 578 431 578 417 c 0xd010
 578 395 564 377 544 370 c 1
 554 361 560 347 560 333 c 0
 560 305 538 283 510 283 c 0
 501 283 492 286 485 290 c 0
 482 288 479 286 475 285 c 1
 484 276 489 264 489 250 c 0xd020
EndSplineSet
EndChar

StartChar: H
Encoding: 72 72 41
Width: 600
Flags: MW
HStem: 200 21G<126 144.5 185.5 204 446 464.5 505.5 524> 200 21G<126 144.5 185.5 204 446 464.5 505.5 524> 450 100<299 301 301 305.5 346.5 356 402 411.5 452.5 457 457 458> 780 20G<233 251.5 292.5 311 553 571.5 612.5 631>
VStem: 90 150<236 257 236 261> 108 150<326 340 322 344> 126 150<410 424 406 428> 161 150<576.5 590 576.5 594> 179 150<660 674 656 678> 197 150<743 764> 410 150<236 257 236 261> 428 150<326 340 322 344> 446 150<410 423.5> 481 150<576 590 572 594> 499 150<660 674 656 678> 517 150<743 764>
LayerCount: 2
Back
Fore
SplineSet
560 250 m 0xb020
 560 222 538 200 510 200 c 0
 501 200 492 203 485 207 c 1
 478 203 469 200 460 200 c 0
 432 200 410 222 410 250 c 0xb020
 410 272 424 290 443 297 c 1
 434 306 428 319 428 333 c 0xb010
 428 355 442 373 462 380 c 1
 452 389 446 403 446 417 c 0
 446 430 450 441 458 450 c 1
 457 450 l 2
 448 450 439 453 432 457 c 1
 425 453 416 450 407 450 c 0
 397 450 387 454 379 459 c 1
 371 454 361 450 351 450 c 0
 342 450 333 453 326 457 c 1
 319 453 310 450 301 450 c 0
 290 450 280 453 272 459 c 1
 268 457 264 454 260 453 c 1
 269 444 276 431 276 417 c 0xb208
 276 395 262 377 242 370 c 1
 252 361 258 347 258 333 c 0xb4
 258 311 244 293 225 286 c 1
 234 277 240 264 240 250 c 0
 240 222 218 200 190 200 c 0
 181 200 172 203 165 207 c 1
 158 203 149 200 140 200 c 0
 112 200 90 222 90 250 c 0xb8
 90 272 104 290 123 297 c 1
 114 306 108 319 108 333 c 0xb4
 108 355 122 373 142 380 c 1
 132 389 126 403 126 417 c 0xb2
 126 439 140 457 159 464 c 1
 150 473 144 486 144 500 c 0
 144 522 158 540 177 547 c 1
 168 556 161 569 161 583 c 0xb1
 161 605 175 623 195 630 c 1
 185 639 179 653 179 667 c 0xb080
 179 689 193 707 212 714 c 1
 203 723 197 736 197 750 c 0
 197 778 219 800 247 800 c 0
 256 800 265 797 272 793 c 1
 279 797 288 800 297 800 c 0
 325 800 347 778 347 750 c 0xb040
 347 728 333 710 314 703 c 1
 323 694 329 681 329 667 c 0xb080
 329 645 315 627 295 620 c 1
 305 611 311 597 311 583 c 0
 311 570 307 559 299 550 c 1
 301 550 l 2
 310 550 319 547 326 543 c 1
 333 547 342 550 351 550 c 0
 361 550 371 546 379 541 c 1
 387 546 397 550 407 550 c 0
 416 550 425 547 432 543 c 1
 439 547 448 550 457 550 c 0
 468 550 477 547 485 541 c 1
 489 543 493 546 497 547 c 1
 488 556 481 569 481 583 c 0xb104
 481 605 495 623 515 630 c 1
 505 639 499 653 499 667 c 0xb002
 499 689 513 707 532 714 c 1
 523 723 517 736 517 750 c 0
 517 778 539 800 567 800 c 0
 576 800 585 797 592 793 c 1
 599 797 608 800 617 800 c 0
 645 800 667 778 667 750 c 0xb001
 667 728 653 710 634 703 c 1
 643 694 649 681 649 667 c 0xb002
 649 645 635 627 615 620 c 1
 625 611 631 597 631 583 c 0xb004
 631 561 617 543 598 536 c 1
 607 527 614 514 614 500 c 0
 614 478 599 460 580 453 c 1
 589 444 596 431 596 417 c 0xb008
 596 395 582 377 562 370 c 1
 572 361 578 347 578 333 c 0xb010
 578 311 564 293 545 286 c 1
 554 277 560 264 560 250 c 0xb020
EndSplineSet
EndChar

StartChar: I
Encoding: 73 73 42
Width: 600
Flags: MW
HStem: 200 100<126 144.5 185.5 195.5 126 251.5 352 354 354 358.5 399.5 418> 700 100<233 251.5 292.5 297 297 299 455.5 465.5 506.5 525>
VStem: 215 150<326.5 340 326.5 344> 233 150<410 424 406 428> 251 150<493 507 489 511> 268 150<576 590 572 594> 286 150<660 673.5>
LayerCount: 2
Back
Fore
SplineSet
454 250 m 0xe0
 454 222 432 200 404 200 c 0
 395 200 386 203 379 207 c 1
 372 203 363 200 354 200 c 0
 343 200 334 203 326 209 c 1
 318 203 308 200 297 200 c 0
 288 200 279 203 272 207 c 1
 265 203 256 200 247 200 c 0
 236 200 227 203 219 209 c 1
 211 203 201 200 190 200 c 0
 181 200 172 203 165 207 c 1
 158 203 149 200 140 200 c 0
 112 200 90 222 90 250 c 0
 90 278 112 300 140 300 c 0
 149 300 158 297 165 293 c 1
 172 297 181 300 190 300 c 0
 201 300 211 297 219 291 c 1
 223 293 226 296 230 297 c 1
 221 306 215 319 215 333 c 0xe0
 215 355 229 373 249 380 c 1
 239 389 233 403 233 417 c 0xd0
 233 439 247 457 266 464 c 1
 257 473 251 486 251 500 c 0xc8
 251 522 265 540 284 547 c 1
 275 556 268 569 268 583 c 0xc4
 268 605 282 623 302 630 c 1
 292 639 286 653 286 667 c 0
 286 680 291 691 299 700 c 1
 297 700 l 2
 288 700 279 703 272 707 c 1
 265 703 256 700 247 700 c 0
 219 700 197 722 197 750 c 0
 197 778 219 800 247 800 c 0
 256 800 265 797 272 793 c 1
 279 797 288 800 297 800 c 0
 308 800 318 797 326 791 c 1
 334 797 343 800 354 800 c 0
 363 800 372 797 379 793 c 1
 386 797 395 800 404 800 c 0
 415 800 425 797 433 791 c 1
 441 797 450 800 461 800 c 0
 470 800 479 797 486 793 c 1
 493 797 502 800 511 800 c 0
 539 800 561 778 561 750 c 0
 561 722 539 700 511 700 c 0
 502 700 493 703 486 707 c 1
 479 703 470 700 461 700 c 0
 450 700 441 703 433 709 c 1
 429 707 425 704 421 703 c 1
 430 694 436 681 436 667 c 0xc2
 436 645 422 627 402 620 c 1
 412 611 418 597 418 583 c 0xc4
 418 561 404 543 385 536 c 1
 394 527 401 514 401 500 c 0xc8
 401 478 386 460 367 453 c 1
 376 444 383 431 383 417 c 0xd0
 383 395 369 377 349 370 c 1
 359 361 365 347 365 333 c 0
 365 320 360 309 352 300 c 1
 354 300 l 2
 363 300 372 297 379 293 c 1
 386 297 395 300 404 300 c 0
 432 300 454 278 454 250 c 0xe0
EndSplineSet
EndChar

StartChar: J
Encoding: 74 74 43
Width: 600
Flags: MW
HStem: 200 100<161 232 227 230.5 276.5 286.5 327.5 337.5 383.5 393.5> 283 100 780 20G<535 553.5 594.5 613>
VStem: 90 150<326.5 347 326.5 347> 410 150<326 340 319 344> 428 150<410 424 406 428> 446 150<493 507 489 511> 463 150<576 590 572 594> 481 150<660 674 656 678> 499 150<743 764>
LayerCount: 2
Back
Fore
SplineSet
489 250 m 0x78
 489 222 467 200 439 200 c 0
 430 200 421 203 414 207 c 1
 407 203 398 200 389 200 c 0
 378 200 369 203 361 209 c 1
 353 203 343 200 332 200 c 0
 323 200 314 203 307 207 c 1
 300 203 291 200 282 200 c 0
 271 200 262 203 254 209 c 1
 246 203 236 200 225 200 c 0
 216 200 207 203 200 207 c 1
 193 203 184 200 175 200 c 0xb8
 147 200 125 222 125 250 c 0
 125 263 129 274 137 283 c 1
 110 284 90 306 90 333 c 0
 90 361 112 383 140 383 c 0
 149 383 158 380 165 376 c 1
 172 380 181 383 190 383 c 0x78
 218 383 240 361 240 333 c 0
 240 320 235 309 227 300 c 1
 237 300 246 296 254 291 c 1
 262 297 271 300 282 300 c 0
 291 300 300 297 307 293 c 1
 314 297 323 300 332 300 c 0
 343 300 353 297 361 291 c 1
 369 297 378 300 389 300 c 0
 398 300 407 297 414 293 c 0
 417 295 420 297 424 298 c 1
 415 307 410 319 410 333 c 0xb8
 410 355 424 373 444 380 c 1
 434 389 428 403 428 417 c 0xb4
 428 439 442 457 461 464 c 1
 452 473 446 486 446 500 c 0xb2
 446 522 460 540 479 547 c 1
 470 556 463 569 463 583 c 0xb1
 463 605 477 623 497 630 c 1
 487 639 481 653 481 667 c 0xb080
 481 689 495 707 514 714 c 1
 505 723 499 736 499 750 c 0
 499 778 521 800 549 800 c 0
 558 800 567 797 574 793 c 1
 581 797 590 800 599 800 c 0
 627 800 649 778 649 750 c 0xb040
 649 728 635 710 616 703 c 1
 625 694 631 681 631 667 c 0xb080
 631 645 617 627 597 620 c 1
 607 611 613 597 613 583 c 0xb1
 613 561 599 543 580 536 c 1
 589 527 596 514 596 500 c 0xb2
 596 478 581 460 562 453 c 1
 571 444 578 431 578 417 c 0xb4
 578 395 564 377 544 370 c 1
 554 361 560 347 560 333 c 0
 560 305 538 283 510 283 c 0
 501 283 492 286 485 290 c 0
 482 288 479 286 475 285 c 1
 484 276 489 264 489 250 c 0x78
EndSplineSet
EndChar

StartChar: K
Encoding: 75 75 44
Width: 600
Flags: MW
HStem: 200 100 613 20G<316 318 318 322.5 363.5 382> 617 100<428 446.5 487.5 506> 700 100<553 571.5 612.5 631>
VStem: 90 150<236 257 236 261> 108 150<326 340 322 344> 126 150<410 424 406 428> 144 150<493 507 489 511> 161 257<576.5 594> 179 150<660.5 674 660.5 678> 197 150<743 764> 304 150<493.5 506.5> 339 150<410.5 423.5> 375 150<326.5 339.5> 392 150<653 681> 410 150<236 256.5> 517 150<736 764>
LayerCount: 2
Back
Fore
SplineSet
667 750 m 0x900080
 667 722 645 700 617 700 c 0
 608 700 599 703 592 707 c 1
 585 703 576 700 567 700 c 0
 539 700 517 722 517 750 c 0
 517 778 539 800 567 800 c 0
 576 800 585 797 592 793 c 1
 599 797 608 800 617 800 c 0
 645 800 667 778 667 750 c 0x900080
542 667 m 0xa002
 542 639 520 617 492 617 c 0
 483 617 474 620 467 624 c 1
 460 620 451 617 442 617 c 0
 414 617 392 639 392 667 c 0
 392 695 414 717 442 717 c 0
 451 717 460 714 467 710 c 1
 474 714 483 717 492 717 c 0
 520 717 542 695 542 667 c 0xa002
560 250 m 0xd001
 560 222 538 200 510 200 c 0
 501 200 492 203 485 207 c 1
 478 203 469 200 460 200 c 0
 432 200 410 222 410 250 c 0xd001
 410 263 414 274 422 283 c 1
 395 284 375 306 375 333 c 0xd004
 375 346 380 358 388 367 c 1
 361 367 339 390 339 417 c 0xd008
 339 430 343 441 351 450 c 1
 324 451 304 473 304 500 c 0
 304 513 308 524 316 533 c 1
 306 533 298 537 290 542 c 0
 286 540 282 537 278 536 c 1
 287 527 294 514 294 500 c 0xd110
 294 478 279 460 260 453 c 1
 269 444 276 431 276 417 c 0xd2
 276 395 262 377 242 370 c 1
 252 361 258 347 258 333 c 0xd4
 258 311 244 293 225 286 c 1
 234 277 240 264 240 250 c 0
 240 222 218 200 190 200 c 0
 181 200 172 203 165 207 c 1
 158 203 149 200 140 200 c 0
 112 200 90 222 90 250 c 0xd8
 90 272 104 290 123 297 c 1
 114 306 108 319 108 333 c 0xd4
 108 355 122 373 142 380 c 1
 132 389 126 403 126 417 c 0xd2
 126 439 140 457 159 464 c 1
 150 473 144 486 144 500 c 0xd1
 144 522 158 540 177 547 c 1
 168 556 161 569 161 583 c 0xd080
 161 605 175 623 195 630 c 1
 185 639 179 653 179 667 c 0xd040
 179 689 193 707 212 714 c 1
 203 723 197 736 197 750 c 0
 197 778 219 800 247 800 c 0
 256 800 265 797 272 793 c 1
 279 797 288 800 297 800 c 0
 325 800 347 778 347 750 c 0xd020
 347 728 333 710 314 703 c 1
 323 694 329 681 329 667 c 0xd040
 329 654 324 642 316 633 c 1
 318 633 l 2
 327 633 336 630 343 626 c 1
 350 630 359 633 368 633 c 0
 396 633 418 611 418 583 c 0xd080
 418 570 414 559 406 550 c 1
 433 549 454 527 454 500 c 0xd010
 454 487 449 476 441 467 c 1
 468 466 489 444 489 417 c 0xd008
 489 404 483 392 475 383 c 1
 502 383 525 360 525 333 c 0xd004
 525 320 520 309 512 300 c 1
 539 299 560 277 560 250 c 0xd001
EndSplineSet
EndChar

StartChar: L
Encoding: 76 76 45
Width: 600
Flags: MW
HStem: 200 100<185.5 247 245 247 247 251.5 292.5 302 348 357.5 398.5 408.5 454.5 464.5 505.5 524> 780 20G<233 251.5 292.5 311>
VStem: 108 150<326.5 340 326.5 344> 126 150<410 424 406 428> 144 150<493 507 489 511> 161 150<576 590 572 594> 179 150<660 674 656 678> 197 150<743 764>
LayerCount: 2
Back
Fore
SplineSet
560 250 m 0xe0
 560 222 538 200 510 200 c 0
 501 200 492 203 485 207 c 1
 478 203 469 200 460 200 c 0
 449 200 440 203 432 209 c 1
 424 203 414 200 403 200 c 0
 394 200 385 203 378 207 c 1
 371 203 362 200 353 200 c 0
 343 200 333 204 325 209 c 1
 317 204 307 200 297 200 c 0
 288 200 279 203 272 207 c 1
 265 203 256 200 247 200 c 0
 236 200 227 203 219 209 c 1
 211 203 201 200 190 200 c 0
 181 200 172 203 165 207 c 1
 158 203 149 200 140 200 c 0
 112 200 90 222 90 250 c 0
 90 272 104 290 123 297 c 1
 114 306 108 319 108 333 c 0xe0
 108 355 122 373 142 380 c 1
 132 389 126 403 126 417 c 0xd0
 126 439 140 457 159 464 c 1
 150 473 144 486 144 500 c 0xc8
 144 522 158 540 177 547 c 1
 168 556 161 569 161 583 c 0xc4
 161 605 175 623 195 630 c 1
 185 639 179 653 179 667 c 0xc2
 179 689 193 707 212 714 c 1
 203 723 197 736 197 750 c 0
 197 778 219 800 247 800 c 0
 256 800 265 797 272 793 c 1
 279 797 288 800 297 800 c 0
 325 800 347 778 347 750 c 0xc1
 347 728 333 710 314 703 c 1
 323 694 329 681 329 667 c 0xc2
 329 645 315 627 295 620 c 1
 305 611 311 597 311 583 c 0xc4
 311 561 297 543 278 536 c 1
 287 527 294 514 294 500 c 0xc8
 294 478 279 460 260 453 c 1
 269 444 276 431 276 417 c 0xd0
 276 395 262 377 242 370 c 1
 252 361 258 347 258 333 c 0
 258 320 253 309 245 300 c 1
 247 300 l 2
 256 300 265 297 272 293 c 1
 279 297 288 300 297 300 c 0
 307 300 317 296 325 291 c 1
 333 296 343 300 353 300 c 0
 362 300 371 297 378 293 c 1
 385 297 394 300 403 300 c 0
 414 300 424 297 432 291 c 1
 440 297 449 300 460 300 c 0
 469 300 478 297 485 293 c 1
 492 297 501 300 510 300 c 0
 538 300 560 278 560 250 c 0xe0
EndSplineSet
EndChar

StartChar: M
Encoding: 77 77 46
Width: 600
Flags: MW
HStem: 200 21G<126 144.5 185.5 204 446 464.5 505.5 524> 200 21G<126 144.5 185.5 204 446 464.5 505.5 524> 613 20G<197 215.5 369 374 419 428.5> 700 100<612.5 631>
VStem: 90 150<236 257 236 261> 108 150<326 340 322 344> 126 150<410 424 406 428> 144 150<493 507 489 511> 197 150<743.5 764 743.5 764> 232 150<660.5 673.5> 304 150<486 506.5> 410 150<236 257 236 261> 428 150<326 340 322 344> 446 150<410 424 406 428 660.5 674> 517 150<743 764>
LayerCount: 2
Back
Fore
SplineSet
560 250 m 0xb010
 560 222 538 200 510 200 c 0
 501 200 492 203 485 207 c 1
 478 203 469 200 460 200 c 0
 432 200 410 222 410 250 c 0xb010
 410 272 424 290 443 297 c 1
 434 306 428 319 428 333 c 0xb008
 428 355 442 373 462 380 c 1
 452 389 446 403 446 417 c 0xb004
 446 439 460 457 479 464 c 1
 470 473 464 486 464 500 c 0
 464 513 468 524 476 533 c 1
 474 533 l 2
 465 533 456 536 449 540 c 0
 446 538 443 536 439 535 c 1
 448 526 454 514 454 500 c 0
 454 472 432 450 404 450 c 0
 395 450 386 453 379 457 c 1
 372 453 363 450 354 450 c 0
 326 450 304 472 304 500 c 0
 304 513 308 524 316 533 c 1
 306 533 298 537 290 542 c 0
 286 540 282 537 278 536 c 1
 287 527 294 514 294 500 c 0xb120
 294 478 279 460 260 453 c 1
 269 444 276 431 276 417 c 0xb2
 276 395 262 377 242 370 c 1
 252 361 258 347 258 333 c 0xb4
 258 311 244 293 225 286 c 1
 234 277 240 264 240 250 c 0
 240 222 218 200 190 200 c 0
 181 200 172 203 165 207 c 1
 158 203 149 200 140 200 c 0
 112 200 90 222 90 250 c 0xb8
 90 272 104 290 123 297 c 1
 114 306 108 319 108 333 c 0xb4
 108 355 122 373 142 380 c 1
 132 389 126 403 126 417 c 0xb2
 126 439 140 457 159 464 c 1
 150 473 144 486 144 500 c 0xb1
 144 522 158 540 177 547 c 1
 168 556 161 569 161 583 c 0
 161 611 183 633 211 633 c 0
 220 633 229 630 236 626 c 0
 239 628 243 630 247 631 c 1
 238 640 232 653 232 667 c 0xb040
 232 680 237 691 245 700 c 1
 218 701 197 723 197 750 c 0
 197 778 219 800 247 800 c 0
 256 800 265 797 272 793 c 1
 279 797 288 800 297 800 c 0
 325 800 347 778 347 750 c 0xb080
 347 737 343 726 335 717 c 1
 362 716 382 694 382 667 c 0
 382 654 377 642 369 633 c 1
 379 633 388 629 396 624 c 1
 404 629 414 633 424 633 c 0
 433 633 442 630 449 626 c 0
 453 628 457 630 461 631 c 1
 452 640 446 653 446 667 c 0xb044
 446 695 468 717 496 717 c 0
 505 717 514 714 521 710 c 0
 524 712 528 714 532 715 c 1
 523 724 517 736 517 750 c 0
 517 778 539 800 567 800 c 0
 576 800 585 797 592 793 c 1
 599 797 608 800 617 800 c 0
 645 800 667 778 667 750 c 0xb002
 667 722 645 700 617 700 c 0
 608 700 599 703 592 707 c 0
 589 705 586 703 582 702 c 1
 591 693 596 681 596 667 c 0
 596 654 591 642 583 633 c 1
 610 632 631 610 631 583 c 0
 631 561 617 543 598 536 c 1
 607 527 614 514 614 500 c 0
 614 478 599 460 580 453 c 1
 589 444 596 431 596 417 c 0xb004
 596 395 582 377 562 370 c 1
 572 361 578 347 578 333 c 0xb008
 578 311 564 293 545 286 c 1
 554 277 560 264 560 250 c 0xb010
EndSplineSet
EndChar

StartChar: N
Encoding: 78 78 47
Width: 600
Flags: MW
HStem: 200 100 613 20G<197 215.5 369 382.5> 700 100
VStem: 90 150<236 257 236 261> 108 150<326 340 322 344> 126 150<410 424 406 428> 144 150<493 507 489 511> 161 257<576.5 596.5 576.5 597> 197 150<743.5 764 743.5 764> 232 150<660.5 673.5> 304 150<493.5 506.5> 339 257<403.5 423.5> 375 150<326.5 339.5> 410 150<236 256.5> 464 150<493 507 489 511> 481 150<576 590 572 594> 499 150<660 674 656 678> 517 150<743 764>
LayerCount: 2
Back
Fore
SplineSet
560 250 m 0xe004
 560 222 538 200 510 200 c 0
 501 200 492 203 485 207 c 1
 478 203 469 200 460 200 c 0
 432 200 410 222 410 250 c 0xe004
 410 263 414 274 422 283 c 1
 395 284 375 306 375 333 c 0xe008
 375 346 380 358 388 367 c 1
 361 367 339 390 339 417 c 0xe010
 339 430 343 441 351 450 c 1
 324 451 304 473 304 500 c 0
 304 513 308 524 316 533 c 1
 306 533 298 537 290 542 c 0
 286 540 282 537 278 536 c 1
 287 527 294 514 294 500 c 0xe220
 294 478 279 460 260 453 c 1
 269 444 276 431 276 417 c 0xe4
 276 395 262 377 242 370 c 1
 252 361 258 347 258 333 c 0xe8
 258 311 244 293 225 286 c 1
 234 277 240 264 240 250 c 0
 240 222 218 200 190 200 c 0
 181 200 172 203 165 207 c 1
 158 203 149 200 140 200 c 0
 112 200 90 222 90 250 c 0xf0
 90 272 104 290 123 297 c 1
 114 306 108 319 108 333 c 0xe8
 108 355 122 373 142 380 c 1
 132 389 126 403 126 417 c 0xe4
 126 439 140 457 159 464 c 1
 150 473 144 486 144 500 c 0xe2
 144 522 158 540 177 547 c 1
 168 556 161 569 161 583 c 0xe1
 161 611 183 633 211 633 c 0
 220 633 229 630 236 626 c 0
 239 628 243 630 247 631 c 1
 238 640 232 653 232 667 c 0xe040
 232 680 237 691 245 700 c 1
 218 701 197 723 197 750 c 0
 197 778 219 800 247 800 c 0
 256 800 265 797 272 793 c 1
 279 797 288 800 297 800 c 0
 325 800 347 778 347 750 c 0xe080
 347 737 343 726 335 717 c 1
 362 716 382 694 382 667 c 0xe040
 382 654 377 642 369 633 c 1
 396 633 418 610 418 583 c 0xe1
 418 570 414 559 406 550 c 1
 433 549 454 527 454 500 c 0
 454 487 449 476 441 467 c 1
 451 467 459 463 467 458 c 0
 471 460 475 463 479 464 c 1
 470 473 464 486 464 500 c 0xe022
 464 522 478 540 497 547 c 1
 488 556 481 569 481 583 c 0xe001
 481 605 495 623 515 630 c 1
 505 639 499 653 499 667 c 0xe00080
 499 689 513 707 532 714 c 1
 523 723 517 736 517 750 c 0
 517 778 539 800 567 800 c 0
 576 800 585 797 592 793 c 1
 599 797 608 800 617 800 c 0
 645 800 667 778 667 750 c 0xe00040
 667 728 653 710 634 703 c 1
 643 694 649 681 649 667 c 0xe00080
 649 645 635 627 615 620 c 1
 625 611 631 597 631 583 c 0xe001
 631 561 617 543 598 536 c 1
 607 527 614 514 614 500 c 0xe002
 614 478 599 460 580 453 c 1
 589 444 596 431 596 417 c 0xe010
 596 389 574 367 546 367 c 0
 537 367 528 370 521 374 c 0
 518 372 514 370 510 369 c 1
 519 360 525 347 525 333 c 0xe008
 525 320 520 309 512 300 c 1
 539 299 560 277 560 250 c 0xe004
EndSplineSet
EndChar

StartChar: O
Encoding: 79 79 48
Width: 600
Flags: MW
HStem: 200 100<161 232 227 230.5 276.5 286.5 327.5 337.5 383.5 393.5> 700 100<327.5 337.5 383.5 393.5 434.5 444.5 490.5 494>
VStem: 90 150<326.5 340 326.5 344> 108 150<410 424 406 428> 126 150<493 507 489 511> 143 150<576 590 572 594> 161 150<660 674 656 681> 410 150<326 340 319 344> 428 150<410 424 406 428> 446 150<493 507 489 511> 463 150<576 590 572 594> 481 150<660 673.5>
LayerCount: 2
Back
Fore
SplineSet
227 300 m 1xe0
 237 300 246 296 254 291 c 1
 262 297 271 300 282 300 c 0
 291 300 300 297 307 293 c 1
 314 297 323 300 332 300 c 0
 343 300 353 297 361 291 c 1
 369 297 378 300 389 300 c 0
 398 300 407 297 414 293 c 0
 417 295 420 297 424 298 c 1
 415 307 410 319 410 333 c 0xe1
 410 355 424 373 444 380 c 1
 434 389 428 403 428 417 c 0xc080
 428 439 442 457 461 464 c 1
 452 473 446 486 446 500 c 0xc040
 446 522 460 540 479 547 c 1
 470 556 463 569 463 583 c 0xc020
 463 605 477 623 497 630 c 1
 487 639 481 653 481 667 c 0
 481 680 486 691 494 700 c 1
 484 700 476 704 468 709 c 1
 460 703 450 700 439 700 c 0
 430 700 421 703 414 707 c 1
 407 703 398 700 389 700 c 0
 378 700 369 703 361 709 c 1
 353 703 343 700 332 700 c 0
 323 700 314 703 307 707 c 0
 304 705 301 703 297 702 c 1
 306 693 311 681 311 667 c 0xc210
 311 645 297 627 277 620 c 1
 287 611 293 597 293 583 c 0xc4
 293 561 279 543 260 536 c 1
 269 527 276 514 276 500 c 0xc8
 276 478 261 460 242 453 c 1
 251 444 258 431 258 417 c 0xd0
 258 395 244 377 224 370 c 1
 234 361 240 347 240 333 c 0
 240 320 235 309 227 300 c 1xe0
489 250 m 0
 489 222 467 200 439 200 c 0
 430 200 421 203 414 207 c 1
 407 203 398 200 389 200 c 0
 378 200 369 203 361 209 c 1
 353 203 343 200 332 200 c 0
 323 200 314 203 307 207 c 1
 300 203 291 200 282 200 c 0
 271 200 262 203 254 209 c 1
 246 203 236 200 225 200 c 0
 216 200 207 203 200 207 c 1
 193 203 184 200 175 200 c 0
 147 200 125 222 125 250 c 0
 125 263 129 274 137 283 c 1
 110 284 90 306 90 333 c 0xe1
 90 355 104 373 124 380 c 1
 114 389 108 403 108 417 c 0xd0
 108 439 122 457 141 464 c 1
 132 473 126 486 126 500 c 0xc8
 126 522 140 540 159 547 c 1
 150 556 143 569 143 583 c 0xc4
 143 605 157 623 177 630 c 1
 167 639 161 653 161 667 c 0
 161 695 183 717 211 717 c 0
 220 717 229 714 236 710 c 0
 239 712 243 714 247 715 c 1
 238 724 232 736 232 750 c 0
 232 778 254 800 282 800 c 0
 291 800 300 797 307 793 c 1
 314 797 323 800 332 800 c 0
 343 800 353 797 361 791 c 1
 369 797 378 800 389 800 c 0
 398 800 407 797 414 793 c 1
 421 797 430 800 439 800 c 0
 450 800 460 797 468 791 c 1
 476 797 485 800 496 800 c 0
 505 800 514 797 521 793 c 1
 528 797 537 800 546 800 c 0
 574 800 596 778 596 750 c 0xc240
 596 737 592 726 584 717 c 1
 611 716 631 694 631 667 c 0xc010
 631 645 617 627 597 620 c 1
 607 611 613 597 613 583 c 0xc020
 613 561 599 543 580 536 c 1
 589 527 596 514 596 500 c 0xc040
 596 478 581 460 562 453 c 1
 571 444 578 431 578 417 c 0xc080
 578 395 564 377 544 370 c 1
 554 361 560 347 560 333 c 0
 560 305 538 283 510 283 c 0
 501 283 492 286 485 290 c 0
 482 288 479 286 475 285 c 1
 484 276 489 264 489 250 c 0
EndSplineSet
EndChar

StartChar: P
Encoding: 80 80 49
Width: 600
Flags: MW
HStem: 200 21G<126 144.5 185.5 204> 200 21G<126 144.5 185.5 204> 450 100<299 301 301 305.5 346.5 356 402 411.5 452.5 471> 700 100<348.5 358.5 399.5 409 455 464.5 505.5 510 510 512>
VStem: 90 150<236 257 236 261> 108 150<326 340 322 344> 126 150<410 424 406 428> 161 150<576.5 590 576.5 594> 179 150<660 674 656 678> 481 150<569 590 569 594> 499 150<660 673.5>
LayerCount: 2
Back
Fore
SplineSet
240 250 m 0xb8
 240 222 218 200 190 200 c 0
 181 200 172 203 165 207 c 1
 158 203 149 200 140 200 c 0
 112 200 90 222 90 250 c 0xb8
 90 272 104 290 123 297 c 1
 114 306 108 319 108 333 c 0xb4
 108 355 122 373 142 380 c 1
 132 389 126 403 126 417 c 0xb2
 126 439 140 457 159 464 c 1
 150 473 144 486 144 500 c 0
 144 522 158 540 177 547 c 1
 168 556 161 569 161 583 c 0xb1
 161 605 175 623 195 630 c 1
 185 639 179 653 179 667 c 0
 179 689 193 707 212 714 c 1
 203 723 197 736 197 750 c 0
 197 778 219 800 247 800 c 0
 256 800 265 797 272 793 c 1
 279 797 288 800 297 800 c 0
 308 800 318 797 326 791 c 1
 334 797 343 800 354 800 c 0
 363 800 372 797 379 793 c 1
 386 797 395 800 404 800 c 0
 414 800 424 796 432 791 c 1
 440 796 450 800 460 800 c 0
 469 800 478 797 485 793 c 1
 492 797 501 800 510 800 c 0
 538 800 560 778 560 750 c 0
 560 737 556 726 548 717 c 1
 549 717 l 2
 558 717 567 714 574 710 c 1
 581 714 590 717 599 717 c 0
 627 717 649 695 649 667 c 0xb0a0
 649 645 635 627 615 620 c 1
 625 611 631 597 631 583 c 0
 631 555 609 533 581 533 c 0
 572 533 563 536 556 540 c 1
 549 536 540 533 531 533 c 0
 503 533 481 555 481 583 c 0xb040
 481 605 495 623 515 630 c 1
 505 639 499 653 499 667 c 0
 499 680 504 691 512 700 c 1
 510 700 l 2
 501 700 492 703 485 707 c 1
 478 703 469 700 460 700 c 0
 450 700 440 704 432 709 c 1
 424 704 414 700 404 700 c 0
 395 700 386 703 379 707 c 1
 372 703 363 700 354 700 c 0
 343 700 334 703 326 709 c 1
 322 707 318 704 314 703 c 1
 323 694 329 681 329 667 c 0xb0a0
 329 645 315 627 295 620 c 1
 305 611 311 597 311 583 c 0xb1
 311 570 307 559 299 550 c 1
 301 550 l 2
 310 550 319 547 326 543 c 1
 333 547 342 550 351 550 c 0
 361 550 371 546 379 541 c 1
 387 546 397 550 407 550 c 0
 416 550 425 547 432 543 c 1
 439 547 448 550 457 550 c 0
 485 550 507 528 507 500 c 0
 507 472 485 450 457 450 c 0
 448 450 439 453 432 457 c 1
 425 453 416 450 407 450 c 0
 397 450 387 454 379 459 c 1
 371 454 361 450 351 450 c 0
 342 450 333 453 326 457 c 1
 319 453 310 450 301 450 c 0
 290 450 280 453 272 459 c 1
 268 457 264 454 260 453 c 1
 269 444 276 431 276 417 c 0xb2
 276 395 262 377 242 370 c 1
 252 361 258 347 258 333 c 0xb4
 258 311 244 293 225 286 c 1
 234 277 240 264 240 250 c 0xb8
EndSplineSet
EndChar

StartChar: Q
Encoding: 81 81 50
Width: 600
Flags: MW
HStem: 200 100<161 232 227 230.5 276.5 286.5 327.5 346> 367 100<357 370> 700 100<327.5 337.5 383.5 393.5 434.5 444.5 490.5 494>
VStem: 90 150<326.5 340 326.5 344> 108 150<410 424 406 428> 125 257<236 256.5> 126 150<493 507 489 511> 143 150<576 590 572 594> 161 150<660 674 656 681> 321 257<403.5 424 403 431> 357 150<326.5 339.5> 392 150<236 256.5> 446 150<493 507 489 511> 463 150<576 590 572 594> 481 150<660 673.5>
LayerCount: 2
Back
Fore
SplineSet
542 250 m 0xe010
 542 222 520 200 492 200 c 0
 483 200 474 203 467 207 c 1
 460 203 451 200 442 200 c 0
 414 200 392 222 392 250 c 0xe010
 392 263 396 274 404 283 c 1
 377 284 357 306 357 333 c 0xe020
 357 346 362 358 370 367 c 1
 343 367 321 390 321 417 c 0xe040
 321 445 343 467 371 467 c 0
 380 467 389 464 396 460 c 1
 403 464 412 467 421 467 c 0
 432 467 441 464 449 458 c 1
 453 460 457 463 461 464 c 1
 452 473 446 486 446 500 c 0xe008
 446 522 460 540 479 547 c 1
 470 556 463 569 463 583 c 0xe004
 463 605 477 623 497 630 c 1
 487 639 481 653 481 667 c 0
 481 680 486 691 494 700 c 1
 484 700 476 704 468 709 c 1
 460 703 450 700 439 700 c 0
 430 700 421 703 414 707 c 1
 407 703 398 700 389 700 c 0
 378 700 369 703 361 709 c 1
 353 703 343 700 332 700 c 0
 323 700 314 703 307 707 c 0
 304 705 301 703 297 702 c 1
 306 693 311 681 311 667 c 0xe082
 311 645 297 627 277 620 c 1
 287 611 293 597 293 583 c 0xe1
 293 561 279 543 260 536 c 1
 269 527 276 514 276 500 c 0xe2
 276 478 261 460 242 453 c 1
 251 444 258 431 258 417 c 0xe8
 258 395 244 377 224 370 c 1
 234 361 240 347 240 333 c 0xf0
 240 320 235 309 227 300 c 1
 237 300 246 296 254 291 c 1
 262 297 271 300 282 300 c 0
 291 300 300 297 307 293 c 1
 314 297 323 300 332 300 c 0
 360 300 382 278 382 250 c 0
 382 222 360 200 332 200 c 0
 323 200 314 203 307 207 c 1
 300 203 291 200 282 200 c 0
 271 200 262 203 254 209 c 1
 246 203 236 200 225 200 c 0
 216 200 207 203 200 207 c 1
 193 203 184 200 175 200 c 0
 147 200 125 222 125 250 c 0xe4
 125 263 129 274 137 283 c 1
 110 284 90 306 90 333 c 0xf0
 90 355 104 373 124 380 c 1
 114 389 108 403 108 417 c 0xe8
 108 439 122 457 141 464 c 1
 132 473 126 486 126 500 c 0xe2
 126 522 140 540 159 547 c 1
 150 556 143 569 143 583 c 0xe1
 143 605 157 623 177 630 c 1
 167 639 161 653 161 667 c 0
 161 695 183 717 211 717 c 0
 220 717 229 714 236 710 c 0
 239 712 243 714 247 715 c 1
 238 724 232 736 232 750 c 0
 232 778 254 800 282 800 c 0
 291 800 300 797 307 793 c 1
 314 797 323 800 332 800 c 0
 343 800 353 797 361 791 c 1
 369 797 378 800 389 800 c 0
 398 800 407 797 414 793 c 1
 421 797 430 800 439 800 c 0
 450 800 460 797 468 791 c 1
 476 797 485 800 496 800 c 0
 505 800 514 797 521 793 c 1
 528 797 537 800 546 800 c 0
 574 800 596 778 596 750 c 0xe088
 596 737 592 726 584 717 c 1
 611 716 631 694 631 667 c 0xe002
 631 645 617 627 597 620 c 1
 607 611 613 597 613 583 c 0xe004
 613 561 599 543 580 536 c 1
 589 527 596 514 596 500 c 0xe008
 596 478 581 460 562 453 c 1
 571 444 578 431 578 417 c 0xe040
 578 389 556 367 528 367 c 0
 519 367 510 370 503 374 c 0
 500 372 496 370 492 369 c 1
 501 360 507 347 507 333 c 0xe020
 507 320 502 309 494 300 c 1
 521 299 542 277 542 250 c 0xe010
EndSplineSet
EndChar

StartChar: R
Encoding: 82 82 51
Width: 600
Flags: MW
HStem: 200 100 450 100<299 301 301 305.5 346.5 351> 700 100<348.5 358.5 399.5 409 455 464.5 505.5 510 510 512>
VStem: 90 150<236 257 236 261> 108 150<326 340 322 344> 126 150<410 424 406 428> 161 150<576.5 590 576.5 594> 179 150<660 674 656 678> 339 150<410.5 423.5> 375 150<326.5 339.5> 410 150<236 256.5> 481 150<569 590 569 594> 499 150<660 673.5>
CounterMasks: 1 e0
LayerCount: 2
Back
Fore
SplineSet
560 250 m 0xe020
 560 222 538 200 510 200 c 0
 501 200 492 203 485 207 c 1
 478 203 469 200 460 200 c 0
 432 200 410 222 410 250 c 0xe020
 410 263 414 274 422 283 c 1
 395 284 375 306 375 333 c 0xe040
 375 346 380 358 388 367 c 1
 361 367 339 390 339 417 c 0
 339 430 343 441 351 450 c 1
 342 450 333 453 326 457 c 1
 319 453 310 450 301 450 c 0
 290 450 280 453 272 459 c 1
 268 457 264 454 260 453 c 1
 269 444 276 431 276 417 c 0xe480
 276 395 262 377 242 370 c 1
 252 361 258 347 258 333 c 0xe8
 258 311 244 293 225 286 c 1
 234 277 240 264 240 250 c 0
 240 222 218 200 190 200 c 0
 181 200 172 203 165 207 c 1
 158 203 149 200 140 200 c 0
 112 200 90 222 90 250 c 0xf0
 90 272 104 290 123 297 c 1
 114 306 108 319 108 333 c 0xe8
 108 355 122 373 142 380 c 1
 132 389 126 403 126 417 c 0xe4
 126 439 140 457 159 464 c 1
 150 473 144 486 144 500 c 0
 144 522 158 540 177 547 c 1
 168 556 161 569 161 583 c 0xe2
 161 605 175 623 195 630 c 1
 185 639 179 653 179 667 c 0
 179 689 193 707 212 714 c 1
 203 723 197 736 197 750 c 0
 197 778 219 800 247 800 c 0
 256 800 265 797 272 793 c 1
 279 797 288 800 297 800 c 0
 308 800 318 797 326 791 c 1
 334 797 343 800 354 800 c 0
 363 800 372 797 379 793 c 1
 386 797 395 800 404 800 c 0
 414 800 424 796 432 791 c 1
 440 796 450 800 460 800 c 0
 469 800 478 797 485 793 c 1
 492 797 501 800 510 800 c 0
 538 800 560 778 560 750 c 0xe120
 560 737 556 726 548 717 c 1
 549 717 l 2
 558 717 567 714 574 710 c 1
 581 714 590 717 599 717 c 0
 627 717 649 695 649 667 c 0xe008
 649 645 635 627 615 620 c 1
 625 611 631 597 631 583 c 0
 631 555 609 533 581 533 c 0
 572 533 563 536 556 540 c 1
 549 536 540 533 531 533 c 0
 503 533 481 555 481 583 c 0xe010
 481 605 495 623 515 630 c 1
 505 639 499 653 499 667 c 0
 499 680 504 691 512 700 c 1
 510 700 l 2
 501 700 492 703 485 707 c 1
 478 703 469 700 460 700 c 0
 450 700 440 704 432 709 c 1
 424 704 414 700 404 700 c 0
 395 700 386 703 379 707 c 1
 372 703 363 700 354 700 c 0
 343 700 334 703 326 709 c 1
 322 707 318 704 314 703 c 1
 323 694 329 681 329 667 c 0xe108
 329 645 315 627 295 620 c 1
 305 611 311 597 311 583 c 0
 311 570 307 559 299 550 c 1
 301 550 l 2
 310 550 319 547 326 543 c 1
 333 547 342 550 351 550 c 0
 361 550 371 546 379 541 c 1
 387 546 397 550 407 550 c 0
 416 550 425 547 432 543 c 1
 439 547 448 550 457 550 c 0
 485 550 507 528 507 500 c 0
 507 478 492 460 473 453 c 1
 482 444 489 431 489 417 c 0xe280
 489 404 483 392 475 383 c 1
 502 383 525 360 525 333 c 0xe040
 525 320 520 309 512 300 c 1
 539 299 560 277 560 250 c 0xe020
EndSplineSet
EndChar

StartChar: S
Encoding: 83 83 52
Width: 600
Flags: MW
HStem: 200 100<161 232 227 230.5 276.5 286.5 327.5 337.5 383.5 393.5> 283 100 450 100<215 286 281 284.5 330.5 340.5 381.5 391.5 437.5 440> 617 100 700 100<327.5 337.5 383.5 393.5 434.5 444.5 490.5 494>
VStem: 90 150<326.5 347 326.5 347> 143 150<576.5 590 576.5 594> 161 150<660 674 656 681> 410 150<326 340 319 344> 428 150<410 423.5> 481 150<653 673.5>
LayerCount: 2
Back
Fore
SplineSet
489 250 m 0x6880
 489 222 467 200 439 200 c 0
 430 200 421 203 414 207 c 1
 407 203 398 200 389 200 c 0
 378 200 369 203 361 209 c 1
 353 203 343 200 332 200 c 0
 323 200 314 203 307 207 c 1
 300 203 291 200 282 200 c 0
 271 200 262 203 254 209 c 1
 246 203 236 200 225 200 c 0
 216 200 207 203 200 207 c 1
 193 203 184 200 175 200 c 0xa080
 147 200 125 222 125 250 c 0
 125 263 129 274 137 283 c 1
 110 284 90 306 90 333 c 0
 90 361 112 383 140 383 c 0
 149 383 158 380 165 376 c 1
 172 380 181 383 190 383 c 0x6480
 218 383 240 361 240 333 c 0
 240 320 235 309 227 300 c 1
 237 300 246 296 254 291 c 1
 262 297 271 300 282 300 c 0
 291 300 300 297 307 293 c 1
 314 297 323 300 332 300 c 0
 343 300 353 297 361 291 c 1
 369 297 378 300 389 300 c 0
 398 300 407 297 414 293 c 0
 417 295 420 297 424 298 c 1
 415 307 410 319 410 333 c 0xa480
 410 355 424 373 444 380 c 1
 434 389 428 403 428 417 c 0
 428 430 432 441 440 450 c 1
 430 450 422 454 414 459 c 1
 406 453 397 450 386 450 c 0
 377 450 368 453 361 457 c 1
 354 453 345 450 336 450 c 0
 325 450 315 453 307 459 c 1
 299 453 290 450 279 450 c 0
 270 450 261 453 254 457 c 1
 247 453 238 450 229 450 c 0
 201 450 179 472 179 500 c 0
 179 513 183 524 191 533 c 1
 164 534 143 556 143 583 c 0xa240
 143 605 157 623 177 630 c 1
 167 639 161 653 161 667 c 0
 161 695 183 717 211 717 c 0xb1
 220 717 229 714 236 710 c 0
 239 712 243 714 247 715 c 1
 238 724 232 736 232 750 c 0
 232 778 254 800 282 800 c 0
 291 800 300 797 307 793 c 1
 314 797 323 800 332 800 c 0
 343 800 353 797 361 791 c 1
 369 797 378 800 389 800 c 0
 398 800 407 797 414 793 c 1
 421 797 430 800 439 800 c 0
 450 800 460 797 468 791 c 1
 476 797 485 800 496 800 c 0
 505 800 514 797 521 793 c 1
 528 797 537 800 546 800 c 0x29
 574 800 596 778 596 750 c 0
 596 737 592 726 584 717 c 1
 611 716 631 694 631 667 c 0
 631 639 609 617 581 617 c 0
 572 617 563 620 556 624 c 1
 549 620 540 617 531 617 c 0x3120
 503 617 481 639 481 667 c 0
 481 680 486 691 494 700 c 1
 484 700 476 704 468 709 c 1
 460 703 450 700 439 700 c 0
 430 700 421 703 414 707 c 1
 407 703 398 700 389 700 c 0
 378 700 369 703 361 709 c 1
 353 703 343 700 332 700 c 0
 323 700 314 703 307 707 c 0
 304 705 301 703 297 702 c 1
 306 693 311 681 311 667 c 0x2920
 311 645 297 627 277 620 c 1
 287 611 293 597 293 583 c 0
 293 570 289 559 281 550 c 1
 291 550 299 546 307 541 c 1
 315 547 325 550 336 550 c 0
 345 550 354 547 361 543 c 1
 368 547 377 550 386 550 c 0
 397 550 406 547 414 541 c 1
 422 547 432 550 443 550 c 0
 452 550 461 547 468 543 c 1
 475 547 484 550 493 550 c 0
 521 550 543 528 543 500 c 0
 543 487 538 476 530 467 c 1
 557 466 578 444 578 417 c 0x2a40
 578 395 564 377 544 370 c 1
 554 361 560 347 560 333 c 0
 560 305 538 283 510 283 c 0
 501 283 492 286 485 290 c 0
 482 288 479 286 475 285 c 1
 484 276 489 264 489 250 c 0x6880
EndSplineSet
EndChar

StartChar: T
Encoding: 84 84 53
Width: 600
Flags: MW
HStem: 200 21G<179 197.5 238.5 257> 200 21G<179 197.5 238.5 257> 700 100<126 144.5 185.5 195.5 241.5 245 398.5 408.5 454.5 464.5 505.5 524>
VStem: 143 150<236 257 236 261> 161 150<326 340 322 344> 179 150<410 424 406 428> 197 150<493 507 489 511> 214 150<576 590 572 594> 232 150<660 673.5>
LayerCount: 2
Back
Fore
SplineSet
293 250 m 0xb0
 293 222 271 200 243 200 c 0
 234 200 225 203 218 207 c 1
 211 203 202 200 193 200 c 0
 165 200 143 222 143 250 c 0xb0
 143 272 157 290 176 297 c 1
 167 306 161 319 161 333 c 0xa8
 161 355 175 373 195 380 c 1
 185 389 179 403 179 417 c 0xa4
 179 439 193 457 212 464 c 1
 203 473 197 486 197 500 c 0xa2
 197 522 211 540 230 547 c 1
 221 556 214 569 214 583 c 0xa1
 214 605 228 623 248 630 c 1
 238 639 232 653 232 667 c 0
 232 680 237 691 245 700 c 1
 235 700 227 704 219 709 c 1
 211 703 201 700 190 700 c 0
 181 700 172 703 165 707 c 1
 158 703 149 700 140 700 c 0
 112 700 90 722 90 750 c 0
 90 778 112 800 140 800 c 0
 149 800 158 797 165 793 c 1
 172 797 181 800 190 800 c 0
 201 800 211 797 219 791 c 1
 227 797 236 800 247 800 c 0
 256 800 265 797 272 793 c 1
 279 797 288 800 297 800 c 0
 307 800 317 796 325 791 c 1
 333 796 343 800 353 800 c 0
 362 800 371 797 378 793 c 1
 385 797 394 800 403 800 c 0
 414 800 424 797 432 791 c 1
 440 797 449 800 460 800 c 0
 469 800 478 797 485 793 c 1
 492 797 501 800 510 800 c 0
 538 800 560 778 560 750 c 0
 560 722 538 700 510 700 c 0
 501 700 492 703 485 707 c 1
 478 703 469 700 460 700 c 0
 449 700 440 703 432 709 c 1
 424 703 414 700 403 700 c 0
 394 700 385 703 378 707 c 0
 375 705 372 703 368 702 c 1
 377 693 382 681 382 667 c 0xa080
 382 645 368 627 348 620 c 1
 358 611 364 597 364 583 c 0xa1
 364 561 350 543 331 536 c 1
 340 527 347 514 347 500 c 0xa2
 347 478 332 460 313 453 c 1
 322 444 329 431 329 417 c 0xa4
 329 395 315 377 295 370 c 1
 305 361 311 347 311 333 c 0xa8
 311 311 297 293 278 286 c 1
 287 277 293 264 293 250 c 0xb0
EndSplineSet
EndChar

StartChar: U
Encoding: 85 85 54
Width: 600
Flags: MW
HStem: 200 100<161 232 227 230.5 276.5 286.5 327.5 337.5 383.5 393.5> 780 20G<215 233.5 274.5 293 535 553.5 594.5 613>
VStem: 90 150<326.5 340 326.5 344> 108 150<410 424 406 428> 126 150<493 507 489 511> 143 150<576 590 572 594> 161 150<660 674 656 678> 179 150<743 764> 410 150<326 340 319 344> 428 150<410 424 406 428> 446 150<493 507 489 511> 463 150<576 590 572 594> 481 150<660 674 656 678> 499 150<743 764>
LayerCount: 2
Back
Fore
SplineSet
489 250 m 0xc080
 489 222 467 200 439 200 c 0
 430 200 421 203 414 207 c 1
 407 203 398 200 389 200 c 0
 378 200 369 203 361 209 c 1
 353 203 343 200 332 200 c 0
 323 200 314 203 307 207 c 1
 300 203 291 200 282 200 c 0
 271 200 262 203 254 209 c 1
 246 203 236 200 225 200 c 0
 216 200 207 203 200 207 c 1
 193 203 184 200 175 200 c 0
 147 200 125 222 125 250 c 0
 125 263 129 274 137 283 c 1
 110 284 90 306 90 333 c 0xe080
 90 355 104 373 124 380 c 1
 114 389 108 403 108 417 c 0xd0
 108 439 122 457 141 464 c 1
 132 473 126 486 126 500 c 0xc8
 126 522 140 540 159 547 c 1
 150 556 143 569 143 583 c 0xc4
 143 605 157 623 177 630 c 1
 167 639 161 653 161 667 c 0xc2
 161 689 175 707 194 714 c 1
 185 723 179 736 179 750 c 0
 179 778 201 800 229 800 c 0
 238 800 247 797 254 793 c 1
 261 797 270 800 279 800 c 0
 307 800 329 778 329 750 c 0xc1
 329 728 315 710 296 703 c 1
 305 694 311 681 311 667 c 0xc2
 311 645 297 627 277 620 c 1
 287 611 293 597 293 583 c 0xc4
 293 561 279 543 260 536 c 1
 269 527 276 514 276 500 c 0xc8
 276 478 261 460 242 453 c 1
 251 444 258 431 258 417 c 0xd0
 258 395 244 377 224 370 c 1
 234 361 240 347 240 333 c 0
 240 320 235 309 227 300 c 1
 237 300 246 296 254 291 c 1
 262 297 271 300 282 300 c 0
 291 300 300 297 307 293 c 1
 314 297 323 300 332 300 c 0
 343 300 353 297 361 291 c 1
 369 297 378 300 389 300 c 0
 398 300 407 297 414 293 c 0
 417 295 420 297 424 298 c 1
 415 307 410 319 410 333 c 0xe080
 410 355 424 373 444 380 c 1
 434 389 428 403 428 417 c 0xc040
 428 439 442 457 461 464 c 1
 452 473 446 486 446 500 c 0xc020
 446 522 460 540 479 547 c 1
 470 556 463 569 463 583 c 0xc010
 463 605 477 623 497 630 c 1
 487 639 481 653 481 667 c 0xc008
 481 689 495 707 514 714 c 1
 505 723 499 736 499 750 c 0
 499 778 521 800 549 800 c 0
 558 800 567 797 574 793 c 1
 581 797 590 800 599 800 c 0
 627 800 649 778 649 750 c 0xc004
 649 728 635 710 616 703 c 1
 625 694 631 681 631 667 c 0xc008
 631 645 617 627 597 620 c 1
 607 611 613 597 613 583 c 0xc010
 613 561 599 543 580 536 c 1
 589 527 596 514 596 500 c 0xc020
 596 478 581 460 562 453 c 1
 571 444 578 431 578 417 c 0xc040
 578 395 564 377 544 370 c 1
 554 361 560 347 560 333 c 0
 560 305 538 283 510 283 c 0
 501 283 492 286 485 290 c 0
 482 288 479 286 475 285 c 1
 484 276 489 264 489 250 c 0xc080
EndSplineSet
EndChar

StartChar: V
Encoding: 86 86 55
Width: 600
Flags: MW
HStem: 200 21G<232 250.5 291.5 310> 200 21G<232 250.5 291.5 310> 780 20G<179 197.5 238.5 257 499 517.5 558.5 577>
VStem: 107 150<576 590 572 594> 125 150<410.5 423.5 660 674> 143 150<743 764> 161 256<319.5 339.5> 196 150<236 256.5> 339 150<410 424 403 431> 410 150<493 507 486 511> 427 150<576 590 572 594> 445 150<660 674 656 678> 463 150<743 764>
LayerCount: 2
Back
Fore
SplineSet
346 250 m 0xa1
 346 222 324 200 296 200 c 0
 287 200 278 203 271 207 c 1
 264 203 255 200 246 200 c 0
 218 200 196 222 196 250 c 0xa1
 196 263 200 274 208 283 c 1
 181 284 161 306 161 333 c 0xa2
 161 346 166 358 174 367 c 1
 147 367 125 390 125 417 c 0xa8
 125 430 129 441 137 450 c 1
 110 451 90 473 90 500 c 0
 90 522 104 540 123 547 c 1
 114 556 107 569 107 583 c 0xb0
 107 605 121 623 141 630 c 1
 131 639 125 653 125 667 c 0xa8
 125 689 139 707 158 714 c 1
 149 723 143 736 143 750 c 0
 143 778 165 800 193 800 c 0
 202 800 211 797 218 793 c 1
 225 797 234 800 243 800 c 0
 271 800 293 778 293 750 c 0xa4
 293 728 279 710 260 703 c 1
 269 694 275 681 275 667 c 0xa8
 275 645 261 627 241 620 c 1
 251 611 257 597 257 583 c 0xb0
 257 561 243 543 224 536 c 1
 233 527 240 514 240 500 c 0
 240 487 235 476 227 467 c 1
 254 466 275 444 275 417 c 0
 275 404 269 392 261 383 c 1
 271 383 281 379 289 374 c 1
 297 379 307 383 317 383 c 0
 326 383 335 380 342 376 c 0
 346 378 350 380 354 381 c 1
 345 390 339 403 339 417 c 0xa880
 339 445 361 467 389 467 c 0
 398 467 407 464 414 460 c 0
 417 462 420 464 424 465 c 1
 415 474 410 486 410 500 c 0xa040
 410 522 424 540 443 547 c 1
 434 556 427 569 427 583 c 0xa020
 427 605 441 623 461 630 c 1
 451 639 445 653 445 667 c 0xa010
 445 689 459 707 478 714 c 1
 469 723 463 736 463 750 c 0
 463 778 485 800 513 800 c 0
 522 800 531 797 538 793 c 1
 545 797 554 800 563 800 c 0
 591 800 613 778 613 750 c 0xa008
 613 728 599 710 580 703 c 1
 589 694 595 681 595 667 c 0xa010
 595 645 581 627 561 620 c 1
 571 611 577 597 577 583 c 0xa020
 577 561 563 543 544 536 c 1
 553 527 560 514 560 500 c 0xa040
 560 472 538 450 510 450 c 0
 501 450 492 453 485 457 c 0
 482 455 478 453 474 452 c 1
 483 443 489 431 489 417 c 0xa080
 489 389 467 367 439 367 c 0
 430 367 421 370 414 374 c 0
 410 372 406 370 402 369 c 1
 411 360 417 347 417 333 c 0xa2
 417 305 395 283 367 283 c 0
 358 283 349 286 342 290 c 0
 339 288 336 286 332 285 c 1
 341 276 346 264 346 250 c 0xa1
EndSplineSet
EndChar

StartChar: W
Encoding: 87 87 56
Width: 600
Flags: MW
HStem: 200 21G<161 179.5 220.5 239 375 393.5 434.5 453> 200 21G<161 179.5 220.5 239 375 393.5 434.5 453> 780 20G<215 233.5 274.5 293 535 553.5 594.5 613>
VStem: 125 150<236 256.5> 143 150<576 590 572 594> 161 150<660 674 656 678> 179 150<743 764> 286 150<493 514> 339 150<236 256.5> 428 150<410 424 406 428> 446 150<493 507 489 511> 463 150<576 590 572 594> 481 150<660 674 656 678> 499 150<743 764>
LayerCount: 2
Back
Fore
SplineSet
489 250 m 0xa080
 489 222 467 200 439 200 c 0
 430 200 421 203 414 207 c 1
 407 203 398 200 389 200 c 0
 361 200 339 222 339 250 c 0
 339 263 343 274 351 283 c 1
 341 283 333 287 325 292 c 1
 317 287 307 283 297 283 c 0
 288 283 279 286 272 290 c 0
 269 288 265 286 261 285 c 1
 270 276 275 264 275 250 c 0
 275 222 253 200 225 200 c 0
 216 200 207 203 200 207 c 1
 193 203 184 200 175 200 c 0
 147 200 125 222 125 250 c 0xb080
 125 263 129 274 137 283 c 1
 110 284 90 306 90 333 c 0
 90 355 104 373 124 380 c 1
 114 389 108 403 108 417 c 0
 108 439 122 457 141 464 c 1
 132 473 126 486 126 500 c 0
 126 522 140 540 159 547 c 1
 150 556 143 569 143 583 c 0xa8
 143 605 157 623 177 630 c 1
 167 639 161 653 161 667 c 0xa4
 161 689 175 707 194 714 c 1
 185 723 179 736 179 750 c 0
 179 778 201 800 229 800 c 0
 238 800 247 797 254 793 c 1
 261 797 270 800 279 800 c 0
 307 800 329 778 329 750 c 0xa2
 329 728 315 710 296 703 c 1
 305 694 311 681 311 667 c 0xa4
 311 645 297 627 277 620 c 1
 287 611 293 597 293 583 c 0xa8
 293 561 279 543 260 536 c 1
 269 527 276 514 276 500 c 0
 276 478 261 460 242 453 c 1
 251 444 258 431 258 417 c 0
 258 404 252 392 244 383 c 1
 247 383 l 2
 256 383 265 380 272 376 c 0
 275 378 279 380 283 381 c 1
 274 390 268 403 268 417 c 0
 268 439 282 457 301 464 c 1
 292 473 286 486 286 500 c 0
 286 528 308 550 336 550 c 0
 345 550 354 547 361 543 c 1
 368 547 377 550 386 550 c 0
 414 550 436 528 436 500 c 0xa1
 436 478 421 460 402 453 c 1
 411 444 418 431 418 417 c 0
 418 404 412 392 404 383 c 1
 414 383 423 379 431 374 c 1
 435 377 440 378 444 380 c 1
 434 389 428 403 428 417 c 0xa040
 428 439 442 457 461 464 c 1
 452 473 446 486 446 500 c 0xa020
 446 522 460 540 479 547 c 1
 470 556 463 569 463 583 c 0xa010
 463 605 477 623 497 630 c 1
 487 639 481 653 481 667 c 0xa008
 481 689 495 707 514 714 c 1
 505 723 499 736 499 750 c 0
 499 778 521 800 549 800 c 0
 558 800 567 797 574 793 c 1
 581 797 590 800 599 800 c 0
 627 800 649 778 649 750 c 0xa004
 649 728 635 710 616 703 c 1
 625 694 631 681 631 667 c 0xa008
 631 645 617 627 597 620 c 1
 607 611 613 597 613 583 c 0xa010
 613 561 599 543 580 536 c 1
 589 527 596 514 596 500 c 0xa020
 596 478 581 460 562 453 c 1
 571 444 578 431 578 417 c 0xa040
 578 395 564 377 544 370 c 1
 554 361 560 347 560 333 c 0
 560 305 538 283 510 283 c 0
 501 283 492 286 485 290 c 0
 482 288 479 286 475 285 c 1
 484 276 489 264 489 250 c 0xa080
EndSplineSet
EndChar

StartChar: X
Encoding: 88 88 57
Width: 600
Flags: MW
HStem: 200 100<126 144.5 126 204> 613 20G<369 374 419 428.5> 700 100<612.5 631>
VStem: 90 150<236 257 236 264> 161 150<326 340 319 347> 197 150<743.5 764 743.5 764> 232 150<660.5 673.5> 233 256<410.5 430.5 410.5 431> 268 256<569.5 589.5> 304 150<493.5 506.5> 375 150<326.5 339.5> 410 150<236 256.5> 446 150<660 674 653 681> 517 150<743 764>
LayerCount: 2
Back
Fore
SplineSet
560 250 m 0xe010
 560 222 538 200 510 200 c 0
 501 200 492 203 485 207 c 1
 478 203 469 200 460 200 c 0
 432 200 410 222 410 250 c 0xe010
 410 263 414 274 422 283 c 1
 395 284 375 306 375 333 c 0
 375 346 380 358 388 367 c 1
 378 367 369 371 361 376 c 1
 353 371 343 367 333 367 c 0
 324 367 315 370 308 374 c 0
 304 372 300 370 296 369 c 1
 305 360 311 347 311 333 c 0xe820
 311 305 289 283 261 283 c 0
 252 283 243 286 236 290 c 0
 233 288 230 286 226 285 c 1
 235 276 240 264 240 250 c 0
 240 222 218 200 190 200 c 0
 181 200 172 203 165 207 c 1
 158 203 149 200 140 200 c 0
 112 200 90 222 90 250 c 0xf0
 90 278 112 300 140 300 c 0
 149 300 158 297 165 293 c 0
 168 295 171 297 175 298 c 1
 166 307 161 319 161 333 c 0xe8
 161 361 183 383 211 383 c 0
 220 383 229 380 236 376 c 0
 240 378 244 380 248 381 c 1
 239 390 233 403 233 417 c 0xe1
 233 445 255 467 283 467 c 0
 292 467 301 464 308 460 c 0
 311 462 314 464 318 465 c 1
 309 474 304 486 304 500 c 0xe040
 304 513 308 524 316 533 c 1
 289 534 268 556 268 583 c 0xe080
 268 596 274 608 282 617 c 1
 255 617 232 640 232 667 c 0xe2
 232 680 237 691 245 700 c 1
 218 701 197 723 197 750 c 0
 197 778 219 800 247 800 c 0
 256 800 265 797 272 793 c 1
 279 797 288 800 297 800 c 0
 325 800 347 778 347 750 c 0xe4
 347 737 343 726 335 717 c 1
 362 716 382 694 382 667 c 0
 382 654 377 642 369 633 c 1
 379 633 388 629 396 624 c 1
 404 629 414 633 424 633 c 0
 433 633 442 630 449 626 c 0
 453 628 457 630 461 631 c 1
 452 640 446 653 446 667 c 0xe208
 446 695 468 717 496 717 c 0
 505 717 514 714 521 710 c 0
 524 712 528 714 532 715 c 1
 523 724 517 736 517 750 c 0
 517 778 539 800 567 800 c 0
 576 800 585 797 592 793 c 1
 599 797 608 800 617 800 c 0
 645 800 667 778 667 750 c 0xe004
 667 722 645 700 617 700 c 0
 608 700 599 703 592 707 c 0
 589 705 586 703 582 702 c 1
 591 693 596 681 596 667 c 0xe008
 596 639 574 617 546 617 c 0
 537 617 528 620 521 624 c 0
 517 622 513 620 509 619 c 1
 518 610 524 597 524 583 c 0xe080
 524 555 502 533 474 533 c 0
 465 533 456 536 449 540 c 0
 446 538 443 536 439 535 c 1
 448 526 454 514 454 500 c 0xe040
 454 487 449 476 441 467 c 1
 468 466 489 444 489 417 c 0xe1
 489 404 483 392 475 383 c 1
 502 383 525 360 525 333 c 0xe020
 525 320 520 309 512 300 c 1
 539 299 560 277 560 250 c 0xe010
EndSplineSet
EndChar

StartChar: Y
Encoding: 89 89 58
Width: 600
Flags: MW
HStem: 200 21G<179 197.5 238.5 257> 200 21G<179 197.5 238.5 257> 613 20G<262 267 312 321.5> 700 100<505.5 524>
VStem: 90 150<743.5 764 743.5 764> 125 150<660.5 673.5> 143 150<236 257 236 261> 161 150<326 340 322 344> 161 256<326 590 569.5 589.5> 179 150<410 424 406 428> 197 150<493 506.5> 339 150<660 674 653 681> 410 150<743 764>
LayerCount: 2
Back
Fore
SplineSet
293 250 m 0xb2
 293 222 271 200 243 200 c 0
 234 200 225 203 218 207 c 1
 211 203 202 200 193 200 c 0
 165 200 143 222 143 250 c 0xb2
 143 272 157 290 176 297 c 1
 167 306 161 319 161 333 c 0xb1
 161 355 175 373 195 380 c 1
 185 389 179 403 179 417 c 0xb040
 179 439 193 457 212 464 c 1
 203 473 197 486 197 500 c 0xb020
 197 513 201 524 209 533 c 1
 182 534 161 556 161 583 c 0xb080
 161 596 167 608 175 617 c 1
 148 617 125 640 125 667 c 0xb4
 125 680 130 691 138 700 c 1
 111 701 90 723 90 750 c 0
 90 778 112 800 140 800 c 0
 149 800 158 797 165 793 c 1
 172 797 181 800 190 800 c 0
 218 800 240 778 240 750 c 0xb8
 240 737 236 726 228 717 c 1
 255 716 275 694 275 667 c 0
 275 654 270 642 262 633 c 1
 272 633 281 629 289 624 c 1
 297 629 307 633 317 633 c 0
 326 633 335 630 342 626 c 0
 346 628 350 630 354 631 c 1
 345 640 339 653 339 667 c 0xb410
 339 695 361 717 389 717 c 0
 398 717 407 714 414 710 c 0
 417 712 421 714 425 715 c 1
 416 724 410 736 410 750 c 0
 410 778 432 800 460 800 c 0
 469 800 478 797 485 793 c 1
 492 797 501 800 510 800 c 0
 538 800 560 778 560 750 c 0xb008
 560 722 538 700 510 700 c 0
 501 700 492 703 485 707 c 0
 482 705 479 703 475 702 c 1
 484 693 489 681 489 667 c 0xb010
 489 639 467 617 439 617 c 0
 430 617 421 620 414 624 c 0
 410 622 406 620 402 619 c 1
 411 610 417 597 417 583 c 0xb080
 417 555 395 533 367 533 c 0
 358 533 349 536 342 540 c 0
 339 538 336 536 332 535 c 1
 341 526 347 514 347 500 c 0xb020
 347 478 332 460 313 453 c 1
 322 444 329 431 329 417 c 0xb040
 329 395 315 377 295 370 c 1
 305 361 311 347 311 333 c 0xb1
 311 311 297 293 278 286 c 1
 287 277 293 264 293 250 c 0xb2
EndSplineSet
EndChar

StartChar: Z
Encoding: 90 90 59
Width: 600
Flags: MW
HStem: 200 100<126 144.5 126 195.5 126 251.5 298 302 348 357.5 398.5 408.5 454.5 464.5 505.5 524> 613 20G<410 428.5> 700 100<233 251.5 292.5 302.5 348.5 358.5 399.5 409 455 459 612.5 631>
VStem: 161 150<326.5 340 326.5 347> 233 150<410 424 403 431> 304 150<493 507 486 514> 374 150<576 590 569 597> 446 150<660 673.5>
LayerCount: 2
Back
Fore
SplineSet
560 250 m 0xf0
 560 222 538 200 510 200 c 0
 501 200 492 203 485 207 c 1
 478 203 469 200 460 200 c 0
 449 200 440 203 432 209 c 1
 424 203 414 200 403 200 c 0
 394 200 385 203 378 207 c 1
 371 203 362 200 353 200 c 0
 343 200 333 204 325 209 c 1
 317 204 307 200 297 200 c 0
 288 200 279 203 272 207 c 1
 265 203 256 200 247 200 c 0
 236 200 227 203 219 209 c 1
 211 203 201 200 190 200 c 0
 181 200 172 203 165 207 c 1
 158 203 149 200 140 200 c 0
 112 200 90 222 90 250 c 0
 90 278 112 300 140 300 c 0
 149 300 158 297 165 293 c 0
 168 295 171 297 175 298 c 1
 166 307 161 319 161 333 c 0xf0
 161 361 183 383 211 383 c 0
 220 383 229 380 236 376 c 0
 240 378 244 380 248 381 c 1
 239 390 233 403 233 417 c 0xe8
 233 445 255 467 283 467 c 0
 292 467 301 464 308 460 c 0
 311 462 314 464 318 465 c 1
 309 474 304 486 304 500 c 0xe4
 304 528 326 550 354 550 c 0
 363 550 372 547 379 543 c 0
 382 545 385 547 389 548 c 1
 380 557 374 569 374 583 c 0xe2
 374 611 396 633 424 633 c 0
 433 633 442 630 449 626 c 0
 453 628 457 630 461 631 c 1
 452 640 446 653 446 667 c 0
 446 680 451 691 459 700 c 1
 449 700 440 704 432 709 c 1
 424 704 414 700 404 700 c 0
 395 700 386 703 379 707 c 1
 372 703 363 700 354 700 c 0
 343 700 334 703 326 709 c 1
 318 703 308 700 297 700 c 0
 288 700 279 703 272 707 c 1
 265 703 256 700 247 700 c 0
 219 700 197 722 197 750 c 0
 197 778 219 800 247 800 c 0
 256 800 265 797 272 793 c 1
 279 797 288 800 297 800 c 0
 308 800 318 797 326 791 c 1
 334 797 343 800 354 800 c 0
 363 800 372 797 379 793 c 1
 386 797 395 800 404 800 c 0
 414 800 424 796 432 791 c 1
 440 796 450 800 460 800 c 0
 469 800 478 797 485 793 c 1
 492 797 501 800 510 800 c 0
 521 800 531 797 539 791 c 1
 547 797 556 800 567 800 c 0
 576 800 585 797 592 793 c 1
 599 797 608 800 617 800 c 0
 645 800 667 778 667 750 c 0
 667 722 645 700 617 700 c 0
 608 700 599 703 592 707 c 0
 589 705 586 703 582 702 c 1
 591 693 596 681 596 667 c 0xe1
 596 639 574 617 546 617 c 0
 537 617 528 620 521 624 c 0
 517 622 513 620 509 619 c 1
 518 610 524 597 524 583 c 0xe2
 524 555 502 533 474 533 c 0
 465 533 456 536 449 540 c 0
 446 538 443 536 439 535 c 1
 448 526 454 514 454 500 c 0xe4
 454 472 432 450 404 450 c 0
 395 450 386 453 379 457 c 0
 376 455 372 453 368 452 c 1
 377 443 383 431 383 417 c 0xe8
 383 389 361 367 333 367 c 0
 324 367 315 370 308 374 c 0
 304 372 300 370 296 369 c 1
 305 360 311 347 311 333 c 0
 311 320 306 309 298 300 c 1
 308 300 317 296 325 291 c 1
 333 296 343 300 353 300 c 0
 362 300 371 297 378 293 c 1
 385 297 394 300 403 300 c 0
 414 300 424 297 432 291 c 1
 440 297 449 300 460 300 c 0
 469 300 478 297 485 293 c 1
 492 297 501 300 510 300 c 0
 538 300 560 278 560 250 c 0xf0
EndSplineSet
EndChar

StartChar: bracketleft
Encoding: 91 91 60
Width: 600
Flags: MW
HStem: 200 100<185.5 247 245 247 247 251.5 292.5 302.5 348.5 358.5 399.5 418> 700 100<348.5 358.5 399.5 409.5 455.5 465.5 506.5 525>
VStem: 108 150<326.5 340 326.5 344> 126 150<410 424 406 428> 144 150<493 507 489 511> 161 150<576 590 572 594> 179 150<660 674 656 678>
LayerCount: 2
Back
Fore
SplineSet
454 250 m 0xe0
 454 222 432 200 404 200 c 0
 395 200 386 203 379 207 c 1
 372 203 363 200 354 200 c 0
 343 200 334 203 326 209 c 1
 318 203 308 200 297 200 c 0
 288 200 279 203 272 207 c 1
 265 203 256 200 247 200 c 0
 236 200 227 203 219 209 c 1
 211 203 201 200 190 200 c 0
 181 200 172 203 165 207 c 1
 158 203 149 200 140 200 c 0
 112 200 90 222 90 250 c 0
 90 272 104 290 123 297 c 1
 114 306 108 319 108 333 c 0xe0
 108 355 122 373 142 380 c 1
 132 389 126 403 126 417 c 0xd0
 126 439 140 457 159 464 c 1
 150 473 144 486 144 500 c 0xc8
 144 522 158 540 177 547 c 1
 168 556 161 569 161 583 c 0xc4
 161 605 175 623 195 630 c 1
 185 639 179 653 179 667 c 0
 179 689 193 707 212 714 c 1
 203 723 197 736 197 750 c 0
 197 778 219 800 247 800 c 0
 256 800 265 797 272 793 c 1
 279 797 288 800 297 800 c 0
 308 800 318 797 326 791 c 1
 334 797 343 800 354 800 c 0
 363 800 372 797 379 793 c 1
 386 797 395 800 404 800 c 0
 415 800 425 797 433 791 c 1
 441 797 450 800 461 800 c 0
 470 800 479 797 486 793 c 1
 493 797 502 800 511 800 c 0
 539 800 561 778 561 750 c 0
 561 722 539 700 511 700 c 0
 502 700 493 703 486 707 c 1
 479 703 470 700 461 700 c 0
 450 700 441 703 433 709 c 1
 425 703 415 700 404 700 c 0
 395 700 386 703 379 707 c 1
 372 703 363 700 354 700 c 0
 343 700 334 703 326 709 c 1
 322 707 318 704 314 703 c 1
 323 694 329 681 329 667 c 0xc2
 329 645 315 627 295 620 c 1
 305 611 311 597 311 583 c 0xc4
 311 561 297 543 278 536 c 1
 287 527 294 514 294 500 c 0xc8
 294 478 279 460 260 453 c 1
 269 444 276 431 276 417 c 0xd0
 276 395 262 377 242 370 c 1
 252 361 258 347 258 333 c 0
 258 320 253 309 245 300 c 1
 247 300 l 2
 256 300 265 297 272 293 c 1
 279 297 288 300 297 300 c 0
 308 300 318 297 326 291 c 1
 334 297 343 300 354 300 c 0
 363 300 372 297 379 293 c 1
 386 297 395 300 404 300 c 0
 432 300 454 278 454 250 c 0xe0
EndSplineSet
EndChar

StartChar: backslash
Encoding: 92 92 61
Width: 600
Flags: MW
HStem: 200 21G<339 357.5 398.5 417> 200 100 700 100
VStem: 90 150<743.5 764 743.5 764> 125 150<660.5 673.5> 161 150<576.5 589.5> 197 150<493.5 506.5> 232 150<410.5 423.5> 268 150<326.5 339.5> 303 150<236 256.5>
LayerCount: 2
Back
Fore
SplineSet
453 250 m 0x6040
 453 222 431 200 403 200 c 0
 394 200 385 203 378 207 c 1
 371 203 362 200 353 200 c 0
 325 200 303 222 303 250 c 0xa040
 303 263 307 274 315 283 c 1
 288 284 268 306 268 333 c 0xa080
 268 346 273 358 281 367 c 1
 254 367 232 390 232 417 c 0xa1
 232 430 236 441 244 450 c 1
 217 451 197 473 197 500 c 0xa2
 197 513 201 524 209 533 c 1
 182 534 161 556 161 583 c 0xa4
 161 596 167 608 175 617 c 1
 148 617 125 640 125 667 c 0xa8
 125 680 130 691 138 700 c 1
 111 701 90 723 90 750 c 0
 90 778 112 800 140 800 c 0
 149 800 158 797 165 793 c 1
 172 797 181 800 190 800 c 0
 218 800 240 778 240 750 c 0xb0
 240 737 236 726 228 717 c 1
 255 716 275 694 275 667 c 0xa8
 275 654 270 642 262 633 c 1
 289 633 311 610 311 583 c 0xa4
 311 570 307 559 299 550 c 1
 326 549 347 527 347 500 c 0xa2
 347 487 342 476 334 467 c 1
 361 466 382 444 382 417 c 0xa1
 382 404 376 392 368 383 c 1
 395 383 418 360 418 333 c 0xa080
 418 320 413 309 405 300 c 1
 432 299 453 277 453 250 c 0x6040
EndSplineSet
EndChar

StartChar: bracketright
Encoding: 93 93 62
Width: 600
Flags: MW
HStem: 200 100<126 144.5 185.5 195.5 241.5 251.5 292.5 302.5> 700 100<233 251.5 292.5 302.5 348.5 358.5 399.5 404 404 406>
VStem: 322 150<326 340 322 344> 340 150<410 424 406 428> 358 150<493 507 489 511> 375 150<576 590 572 594> 393 150<660 673.5>
LayerCount: 2
Back
Fore
SplineSet
454 250 m 0xe0
 454 222 432 200 404 200 c 0
 395 200 386 203 379 207 c 1
 372 203 363 200 354 200 c 0
 343 200 334 203 326 209 c 1
 318 203 308 200 297 200 c 0
 288 200 279 203 272 207 c 1
 265 203 256 200 247 200 c 0
 236 200 227 203 219 209 c 1
 211 203 201 200 190 200 c 0
 181 200 172 203 165 207 c 1
 158 203 149 200 140 200 c 0
 112 200 90 222 90 250 c 0
 90 278 112 300 140 300 c 0
 149 300 158 297 165 293 c 1
 172 297 181 300 190 300 c 0
 201 300 211 297 219 291 c 1
 227 297 236 300 247 300 c 0
 256 300 265 297 272 293 c 1
 279 297 288 300 297 300 c 0
 308 300 318 297 326 291 c 1
 330 293 333 296 337 297 c 1
 328 306 322 319 322 333 c 0xe0
 322 355 336 373 356 380 c 1
 346 389 340 403 340 417 c 0xd0
 340 439 354 457 373 464 c 1
 364 473 358 486 358 500 c 0xc8
 358 522 372 540 391 547 c 1
 382 556 375 569 375 583 c 0xc4
 375 605 389 623 409 630 c 1
 399 639 393 653 393 667 c 0
 393 680 398 691 406 700 c 1
 404 700 l 2
 395 700 386 703 379 707 c 1
 372 703 363 700 354 700 c 0
 343 700 334 703 326 709 c 1
 318 703 308 700 297 700 c 0
 288 700 279 703 272 707 c 1
 265 703 256 700 247 700 c 0
 219 700 197 722 197 750 c 0
 197 778 219 800 247 800 c 0
 256 800 265 797 272 793 c 1
 279 797 288 800 297 800 c 0
 308 800 318 797 326 791 c 1
 334 797 343 800 354 800 c 0
 363 800 372 797 379 793 c 1
 386 797 395 800 404 800 c 0
 415 800 425 797 433 791 c 1
 441 797 450 800 461 800 c 0
 470 800 479 797 486 793 c 1
 493 797 502 800 511 800 c 0
 539 800 561 778 561 750 c 0
 561 728 547 710 528 703 c 1
 537 694 543 681 543 667 c 0xc2
 543 645 529 627 509 620 c 1
 519 611 525 597 525 583 c 0xc4
 525 561 511 543 492 536 c 1
 501 527 508 514 508 500 c 0xc8
 508 478 493 460 474 453 c 1
 483 444 490 431 490 417 c 0xd0
 490 395 476 377 456 370 c 1
 466 361 472 347 472 333 c 0
 472 311 458 293 439 286 c 1
 448 277 454 264 454 250 c 0xe0
EndSplineSet
EndChar

StartChar: asciicircum
Encoding: 94 94 63
Width: 600
Flags: MW
HStem: 617 100<126 144.5 126 204> 700 100<256.5 266.5 312.5 322.5 363.5 373.5 419.5 423>
VStem: 90 150<653 674 653 681> 410 150<653 673.5>
LayerCount: 2
Back
Fore
SplineSet
560 667 m 0xb0
 560 639 538 617 510 617 c 0
 501 617 492 620 485 624 c 1
 478 620 469 617 460 617 c 0xb0
 432 617 410 639 410 667 c 0
 410 680 415 691 423 700 c 1
 413 700 405 704 397 709 c 1
 389 703 379 700 368 700 c 0
 359 700 350 703 343 707 c 1
 336 703 327 700 318 700 c 0
 307 700 298 703 290 709 c 1
 282 703 272 700 261 700 c 0x70
 252 700 243 703 236 707 c 0
 233 705 230 703 226 702 c 1
 235 693 240 681 240 667 c 0
 240 639 218 617 190 617 c 0
 181 617 172 620 165 624 c 1
 158 620 149 617 140 617 c 0
 112 617 90 639 90 667 c 0
 90 695 112 717 140 717 c 0xb0
 149 717 158 714 165 710 c 0
 168 712 172 714 176 715 c 1
 167 724 161 736 161 750 c 0
 161 778 183 800 211 800 c 0
 220 800 229 797 236 793 c 1
 243 797 252 800 261 800 c 0
 272 800 282 797 290 791 c 1
 298 797 307 800 318 800 c 0
 327 800 336 797 343 793 c 1
 350 797 359 800 368 800 c 0
 379 800 389 797 397 791 c 1
 405 797 414 800 425 800 c 0
 434 800 443 797 450 793 c 1
 457 797 466 800 475 800 c 0x70
 503 800 525 778 525 750 c 0
 525 737 521 726 513 717 c 1
 540 716 560 694 560 667 c 0xb0
EndSplineSet
EndChar

StartChar: underscore
Encoding: 95 95 64
Width: 600
Flags: MW
HStem: 200 100<126 144.5 185.5 195.5 241.5 251.5 292.5 302 348 357.5 398.5 408.5 454.5 464.5 505.5 524>
LayerCount: 2
Back
Fore
SplineSet
560 250 m 0
 560 222 538 200 510 200 c 0
 501 200 492 203 485 207 c 1
 478 203 469 200 460 200 c 0
 449 200 440 203 432 209 c 1
 424 203 414 200 403 200 c 0
 394 200 385 203 378 207 c 1
 371 203 362 200 353 200 c 0
 343 200 333 204 325 209 c 1
 317 204 307 200 297 200 c 0
 288 200 279 203 272 207 c 1
 265 203 256 200 247 200 c 0
 236 200 227 203 219 209 c 1
 211 203 201 200 190 200 c 0
 181 200 172 203 165 207 c 1
 158 203 149 200 140 200 c 0
 112 200 90 222 90 250 c 0
 90 278 112 300 140 300 c 0
 149 300 158 297 165 293 c 1
 172 297 181 300 190 300 c 0
 201 300 211 297 219 291 c 1
 227 297 236 300 247 300 c 0
 256 300 265 297 272 293 c 1
 279 297 288 300 297 300 c 0
 307 300 317 296 325 291 c 1
 333 296 343 300 353 300 c 0
 362 300 371 297 378 293 c 1
 385 297 394 300 403 300 c 0
 414 300 424 297 432 291 c 1
 440 297 449 300 460 300 c 0
 469 300 478 297 485 293 c 1
 492 297 501 300 510 300 c 0
 538 300 560 278 560 250 c 0
EndSplineSet
EndChar

StartChar: grave
Encoding: 96 96 65
Width: 600
Flags: MW
HStem: 533 100 700 100
VStem: 90 150<743.5 764 743.5 764> 125 150<660.5 673.5> 160 150<569 589.5>
LayerCount: 2
Back
Fore
SplineSet
310 583 m 0xc8
 310 555 288 533 260 533 c 0
 251 533 242 536 235 540 c 1
 228 536 219 533 210 533 c 0
 182 533 160 555 160 583 c 0xc8
 160 596 166 608 174 617 c 1
 147 618 125 640 125 667 c 0xd0
 125 680 130 691 138 700 c 1
 111 701 90 723 90 750 c 0
 90 778 112 800 140 800 c 0
 149 800 158 797 165 793 c 1
 172 797 181 800 190 800 c 0
 218 800 240 778 240 750 c 0xe0
 240 737 236 726 228 717 c 1
 255 716 275 694 275 667 c 0xd0
 275 654 270 642 262 633 c 1
 289 632 310 610 310 583 c 0xc8
EndSplineSet
EndChar

StartChar: a
Encoding: 97 97 66
Width: 600
Flags: MW
HStem: 200 100<161 232 227 230.5 276.5 286.5 327.5 337.5 383.5 393.5> 283 100<510 510> 367 100<256.5 266.5 312.5 322.5 363.5 373.5 419.5 423> 450 100 533 100<232 250.5 291.5 301.5 347.5 357.5 398.5 408.5 454.5 458>
VStem: 90 150<326.5 340 326.5 347> 410 150<326 339.5> 446 150<493 506.5>
LayerCount: 2
Back
Fore
SplineSet
227 300 m 1xa6
 237 300 246 296 254 291 c 1
 262 297 271 300 282 300 c 0
 291 300 300 297 307 293 c 1
 314 297 323 300 332 300 c 0
 343 300 353 297 361 291 c 1
 369 297 378 300 389 300 c 0
 398 300 407 297 414 293 c 0
 417 295 420 297 424 298 c 1
 415 307 410 319 410 333 c 0
 410 346 415 358 423 367 c 1
 413 367 404 371 396 376 c 1
 388 370 379 367 368 367 c 0
 359 367 350 370 343 374 c 1
 336 370 327 367 318 367 c 0
 307 367 297 370 289 376 c 1
 281 370 272 367 261 367 c 0
 252 367 243 370 236 374 c 0
 233 372 229 370 225 369 c 1
 234 360 240 347 240 333 c 0
 240 320 235 309 227 300 c 1xa6
489 250 m 0
 489 222 467 200 439 200 c 0
 430 200 421 203 414 207 c 1
 407 203 398 200 389 200 c 0
 378 200 369 203 361 209 c 1
 353 203 343 200 332 200 c 0
 323 200 314 203 307 207 c 1
 300 203 291 200 282 200 c 0
 271 200 262 203 254 209 c 1
 246 203 236 200 225 200 c 0
 216 200 207 203 200 207 c 1
 193 203 184 200 175 200 c 0x86
 147 200 125 222 125 250 c 0
 125 263 129 274 137 283 c 1
 110 284 90 306 90 333 c 0
 90 361 112 383 140 383 c 0x46
 149 383 158 380 165 376 c 0
 168 378 172 380 176 381 c 1
 167 390 161 403 161 417 c 0
 161 445 183 467 211 467 c 0
 220 467 229 464 236 460 c 1
 243 464 252 467 261 467 c 0
 272 467 281 464 289 458 c 1
 297 464 307 467 318 467 c 0
 327 467 336 464 343 460 c 1
 350 464 359 467 368 467 c 0
 379 467 388 464 396 458 c 1
 404 464 414 467 425 467 c 0
 434 467 443 464 450 460 c 0
 453 462 456 464 460 465 c 1
 451 474 446 486 446 500 c 0x25
 446 513 450 524 458 533 c 1
 448 533 440 537 432 542 c 1
 424 536 414 533 403 533 c 0
 394 533 385 536 378 540 c 1
 371 536 362 533 353 533 c 0
 342 533 333 536 325 542 c 1
 317 536 307 533 296 533 c 0
 287 533 278 536 271 540 c 1
 264 536 255 533 246 533 c 0
 218 533 196 555 196 583 c 0
 196 611 218 633 246 633 c 0
 255 633 264 630 271 626 c 1
 278 630 287 633 296 633 c 0
 307 633 317 630 325 624 c 1
 333 630 342 633 353 633 c 0
 362 633 371 630 378 626 c 1
 385 630 394 633 403 633 c 0
 414 633 424 630 432 624 c 1
 440 630 449 633 460 633 c 0
 469 633 478 630 485 626 c 1
 492 630 501 633 510 633 c 0
 538 633 560 611 560 583 c 0x2e
 560 570 556 559 548 550 c 1
 575 549 596 527 596 500 c 0x15
 596 472 574 450 546 450 c 0
 537 450 528 453 521 457 c 0
 518 455 514 453 510 452 c 1
 519 443 525 431 525 417 c 0
 525 404 519 392 511 383 c 1
 538 382 560 360 560 333 c 0
 560 305 538 283 510 283 c 0x56
 501 283 492 286 485 290 c 0
 482 288 479 286 475 285 c 1
 484 276 489 264 489 250 c 0
EndSplineSet
EndChar

StartChar: b
Encoding: 98 98 67
Width: 600
Flags: MW
HStem: 200 100<185.5 247 245 247 247 251.5 292.5 302 348 357.5 398.5 417> 533 100<316 319.5 365.5 375.5 416.5 426.5 472.5 476> 780 20G<233 251.5 292.5 311>
VStem: 108 150<326.5 340 326.5 344> 126 150<410 424 406 428> 144 150<493 507 489 514> 179 150<660.5 674 660.5 678> 197 150<743 764> 428 150<319 340 319 344> 446 150<410 424 406 428> 464 150<493 506.5>
LayerCount: 2
Back
Fore
SplineSet
453 250 m 0xf0
 453 222 431 200 403 200 c 0
 394 200 385 203 378 207 c 1
 371 203 362 200 353 200 c 0
 343 200 333 204 325 209 c 1
 317 204 307 200 297 200 c 0
 288 200 279 203 272 207 c 1
 265 203 256 200 247 200 c 0
 236 200 227 203 219 209 c 1
 211 203 201 200 190 200 c 0
 181 200 172 203 165 207 c 1
 158 203 149 200 140 200 c 0
 112 200 90 222 90 250 c 0
 90 272 104 290 123 297 c 1
 114 306 108 319 108 333 c 0xf0
 108 355 122 373 142 380 c 1
 132 389 126 403 126 417 c 0xe8
 126 439 140 457 159 464 c 1
 150 473 144 486 144 500 c 0xe4
 144 528 166 550 194 550 c 0
 203 550 212 547 219 543 c 0
 222 545 225 547 229 548 c 1
 220 557 214 569 214 583 c 0
 214 596 220 608 228 617 c 1
 201 618 179 640 179 667 c 0xe2
 179 689 193 707 212 714 c 1
 203 723 197 736 197 750 c 0
 197 778 219 800 247 800 c 0
 256 800 265 797 272 793 c 1
 279 797 288 800 297 800 c 0
 325 800 347 778 347 750 c 0xe1
 347 728 333 710 314 703 c 1
 323 694 329 681 329 667 c 0
 329 654 324 642 316 633 c 1
 326 633 335 629 343 624 c 1
 351 630 360 633 371 633 c 0
 380 633 389 630 396 626 c 1
 403 630 412 633 421 633 c 0
 432 633 442 630 450 624 c 1
 458 630 467 633 478 633 c 0
 487 633 496 630 503 626 c 1
 510 630 519 633 528 633 c 0
 556 633 578 611 578 583 c 0xe280
 578 570 574 559 566 550 c 1
 593 549 614 527 614 500 c 0xe020
 614 478 599 460 580 453 c 1
 589 444 596 431 596 417 c 0xe040
 596 395 582 377 562 370 c 1
 572 361 578 347 578 333 c 0
 578 305 556 283 528 283 c 0
 519 283 510 286 503 290 c 1
 496 286 487 283 478 283 c 0
 450 283 428 305 428 333 c 0xe080
 428 355 442 373 462 380 c 1
 452 389 446 403 446 417 c 0xe040
 446 439 460 457 479 464 c 1
 470 473 464 486 464 500 c 0
 464 513 468 524 476 533 c 1
 466 533 458 537 450 542 c 1
 442 536 432 533 421 533 c 0
 412 533 403 536 396 540 c 1
 389 536 380 533 371 533 c 0
 360 533 351 536 343 542 c 1
 335 536 325 533 314 533 c 0
 305 533 296 536 289 540 c 0
 286 538 283 536 279 535 c 1
 288 526 294 514 294 500 c 0xe420
 294 478 279 460 260 453 c 1
 269 444 276 431 276 417 c 0xe8
 276 395 262 377 242 370 c 1
 252 361 258 347 258 333 c 0
 258 320 253 309 245 300 c 1
 247 300 l 2
 256 300 265 297 272 293 c 1
 279 297 288 300 297 300 c 0
 307 300 317 296 325 291 c 1
 333 296 343 300 353 300 c 0
 362 300 371 297 378 293 c 1
 385 297 394 300 403 300 c 0
 431 300 453 278 453 250 c 0xf0
EndSplineSet
EndChar

StartChar: c
Encoding: 99 99 68
Width: 600
Flags: MW
HStem: 200 100<161 232 227 230.5 276.5 286.5 327.5 337.5 383.5 393.5 434.5 453> 450 100 533 100<291.5 301.5 347.5 357.5 398.5 408.5 454.5 458>
VStem: 90 150<326.5 340 326.5 344> 108 150<410 424 406 428> 126 150<493 507 489 514> 446 150<486 506.5>
LayerCount: 2
Back
Fore
SplineSet
489 250 m 0xb2
 489 222 467 200 439 200 c 0
 430 200 421 203 414 207 c 1
 407 203 398 200 389 200 c 0
 378 200 369 203 361 209 c 1
 353 203 343 200 332 200 c 0
 323 200 314 203 307 207 c 1
 300 203 291 200 282 200 c 0
 271 200 262 203 254 209 c 1
 246 203 236 200 225 200 c 0
 216 200 207 203 200 207 c 1
 193 203 184 200 175 200 c 0
 147 200 125 222 125 250 c 0
 125 263 129 274 137 283 c 1
 110 284 90 306 90 333 c 0xb2
 90 355 104 373 124 380 c 1
 114 389 108 403 108 417 c 0xaa
 108 439 122 457 141 464 c 1
 132 473 126 486 126 500 c 0
 126 528 148 550 176 550 c 0xc6
 185 550 194 547 201 543 c 0
 204 545 207 547 211 548 c 1
 202 557 196 569 196 583 c 0
 196 611 218 633 246 633 c 0
 255 633 264 630 271 626 c 1
 278 630 287 633 296 633 c 0
 307 633 317 630 325 624 c 1
 333 630 342 633 353 633 c 0
 362 633 371 630 378 626 c 1
 385 630 394 633 403 633 c 0
 414 633 424 630 432 624 c 1
 440 630 449 633 460 633 c 0
 469 633 478 630 485 626 c 1
 492 630 501 633 510 633 c 0xa6
 538 633 560 611 560 583 c 0
 560 570 556 559 548 550 c 1
 575 549 596 527 596 500 c 0
 596 472 574 450 546 450 c 0
 537 450 528 453 521 457 c 1
 514 453 505 450 496 450 c 0xc6
 468 450 446 472 446 500 c 0
 446 513 450 524 458 533 c 1
 448 533 440 537 432 542 c 1
 424 536 414 533 403 533 c 0
 394 533 385 536 378 540 c 1
 371 536 362 533 353 533 c 0
 342 533 333 536 325 542 c 1
 317 536 307 533 296 533 c 0
 287 533 278 536 271 540 c 0
 268 538 265 536 261 535 c 1
 270 526 276 514 276 500 c 0xa6
 276 478 261 460 242 453 c 1
 251 444 258 431 258 417 c 0xaa
 258 395 244 377 224 370 c 1
 234 361 240 347 240 333 c 0
 240 320 235 309 227 300 c 1
 237 300 246 296 254 291 c 1
 262 297 271 300 282 300 c 0
 291 300 300 297 307 293 c 1
 314 297 323 300 332 300 c 0
 343 300 353 297 361 291 c 1
 369 297 378 300 389 300 c 0
 398 300 407 297 414 293 c 1
 421 297 430 300 439 300 c 0
 467 300 489 278 489 250 c 0xb2
EndSplineSet
EndChar

StartChar: d
Encoding: 100 100 69
Width: 600
Flags: MW
HStem: 200 100<227 229 229 233.5 274.5 284 330 339.5 380.5 390.5> 533 100<291.5 301.5 347.5 357.5 398.5 408.5 454.5 458> 780 20G<535 553.5 594.5 613>
VStem: 90 150<326.5 340 326.5 344> 108 150<410 424 406 428> 126 150<493 507 489 514> 410 150<326 340 322 344> 428 150<410 424 406 428> 446 150<493 506.5> 481 150<660 674 653 678> 499 150<743 764>
LayerCount: 2
Back
Fore
SplineSet
224 370 m 1xe8
 234 361 240 347 240 333 c 0
 240 320 235 309 227 300 c 1
 229 300 l 2
 238 300 247 297 254 293 c 1
 261 297 270 300 279 300 c 0
 289 300 299 296 307 291 c 1
 315 296 325 300 335 300 c 0
 344 300 353 297 360 293 c 1
 367 297 376 300 385 300 c 0
 396 300 406 297 414 291 c 1
 418 293 421 296 425 297 c 1
 416 306 410 319 410 333 c 0xf2
 410 355 424 373 444 380 c 1
 434 389 428 403 428 417 c 0xe1
 428 439 442 457 461 464 c 1
 452 473 446 486 446 500 c 0
 446 513 450 524 458 533 c 1
 448 533 440 537 432 542 c 1
 424 536 414 533 403 533 c 0
 394 533 385 536 378 540 c 1
 371 536 362 533 353 533 c 0
 342 533 333 536 325 542 c 1
 317 536 307 533 296 533 c 0
 287 533 278 536 271 540 c 0
 268 538 265 536 261 535 c 1
 270 526 276 514 276 500 c 0xe480
 276 478 261 460 242 453 c 1
 251 444 258 431 258 417 c 0
 258 395 244 377 224 370 c 1xe8
542 250 m 0
 542 222 520 200 492 200 c 0
 483 200 474 203 467 207 c 1
 460 203 451 200 442 200 c 0
 431 200 422 203 414 209 c 1
 406 203 396 200 385 200 c 0
 376 200 367 203 360 207 c 1
 353 203 344 200 335 200 c 0
 325 200 315 204 307 209 c 1
 299 204 289 200 279 200 c 0
 270 200 261 203 254 207 c 1
 247 203 238 200 229 200 c 0
 201 200 179 222 179 250 c 0
 179 263 183 274 191 283 c 1
 190 283 l 2
 181 283 172 286 165 290 c 1
 158 286 149 283 140 283 c 0
 112 283 90 305 90 333 c 0xf2
 90 355 104 373 124 380 c 1
 114 389 108 403 108 417 c 0xe8
 108 439 122 457 141 464 c 1
 132 473 126 486 126 500 c 0
 126 528 148 550 176 550 c 0
 185 550 194 547 201 543 c 0
 204 545 207 547 211 548 c 1
 202 557 196 569 196 583 c 0
 196 611 218 633 246 633 c 0
 255 633 264 630 271 626 c 1
 278 630 287 633 296 633 c 0
 307 633 317 630 325 624 c 1
 333 630 342 633 353 633 c 0
 362 633 371 630 378 626 c 1
 385 630 394 633 403 633 c 0
 414 633 424 630 432 624 c 1
 440 630 449 633 460 633 c 0
 469 633 478 630 485 626 c 0
 488 628 492 630 496 631 c 1
 487 640 481 653 481 667 c 0xe440
 481 689 495 707 514 714 c 1
 505 723 499 736 499 750 c 0
 499 778 521 800 549 800 c 0
 558 800 567 797 574 793 c 1
 581 797 590 800 599 800 c 0
 627 800 649 778 649 750 c 0xe020
 649 728 635 710 616 703 c 1
 625 694 631 681 631 667 c 0xe040
 631 639 609 617 581 617 c 0
 572 617 563 620 556 624 c 0
 553 622 549 620 545 619 c 1
 554 610 560 597 560 583 c 0xe2
 560 570 556 559 548 550 c 1
 575 549 596 527 596 500 c 0xe080
 596 478 581 460 562 453 c 1
 571 444 578 431 578 417 c 0xe1
 578 395 564 377 544 370 c 1
 554 361 560 347 560 333 c 0
 560 311 546 293 527 286 c 1
 536 277 542 264 542 250 c 0
EndSplineSet
EndChar

StartChar: e
Encoding: 101 101 70
Width: 600
Flags: MW
HStem: 200 100<161 232 227 230.5 276.5 286.5 327.5 337.5 383.5 393.5 434.5 453> 367 100<263 265 265 269.5 310.5 320 366 375.5 416.5 426.5> 533 100<291.5 301.5 347.5 357.5 398.5 408.5 454.5 458>
VStem: 90 150<326.5 340 326.5 344> 126 150<493.5 507 493.5 514> 446 150<493 506.5>
LayerCount: 2
Back
Fore
SplineSet
449 458 m 1xec
 453 460 457 463 461 464 c 1
 452 473 446 486 446 500 c 0
 446 513 450 524 458 533 c 1
 448 533 440 537 432 542 c 1
 424 536 414 533 403 533 c 0
 394 533 385 536 378 540 c 1
 371 536 362 533 353 533 c 0
 342 533 333 536 325 542 c 1
 317 536 307 533 296 533 c 0
 287 533 278 536 271 540 c 0
 268 538 265 536 261 535 c 1
 270 526 276 514 276 500 c 0
 276 487 271 476 263 467 c 1
 265 467 l 2
 274 467 283 464 290 460 c 1
 297 464 306 467 315 467 c 0
 325 467 335 463 343 458 c 1
 351 463 361 467 371 467 c 0
 380 467 389 464 396 460 c 1
 403 464 412 467 421 467 c 0
 432 467 441 464 449 458 c 1xec
489 250 m 0
 489 222 467 200 439 200 c 0
 430 200 421 203 414 207 c 1
 407 203 398 200 389 200 c 0
 378 200 369 203 361 209 c 1
 353 203 343 200 332 200 c 0
 323 200 314 203 307 207 c 1
 300 203 291 200 282 200 c 0
 271 200 262 203 254 209 c 1
 246 203 236 200 225 200 c 0
 216 200 207 203 200 207 c 1
 193 203 184 200 175 200 c 0
 147 200 125 222 125 250 c 0
 125 263 129 274 137 283 c 1
 110 284 90 306 90 333 c 0xf4
 90 355 104 373 124 380 c 1
 114 389 108 403 108 417 c 0
 108 439 122 457 141 464 c 1
 132 473 126 486 126 500 c 0xec
 126 528 148 550 176 550 c 0
 185 550 194 547 201 543 c 0
 204 545 207 547 211 548 c 1
 202 557 196 569 196 583 c 0
 196 611 218 633 246 633 c 0
 255 633 264 630 271 626 c 1
 278 630 287 633 296 633 c 0
 307 633 317 630 325 624 c 1
 333 630 342 633 353 633 c 0
 362 633 371 630 378 626 c 1
 385 630 394 633 403 633 c 0
 414 633 424 630 432 624 c 1
 440 630 449 633 460 633 c 0
 469 633 478 630 485 626 c 1
 492 630 501 633 510 633 c 0
 538 633 560 611 560 583 c 0
 560 570 556 559 548 550 c 1
 575 549 596 527 596 500 c 0
 596 478 581 460 562 453 c 1
 571 444 578 431 578 417 c 0
 578 389 556 367 528 367 c 0
 519 367 510 370 503 374 c 1
 496 370 487 367 478 367 c 0
 467 367 457 370 449 376 c 1
 441 370 432 367 421 367 c 0
 412 367 403 370 396 374 c 1
 389 370 380 367 371 367 c 0
 361 367 351 371 343 376 c 1
 335 371 325 367 315 367 c 0
 306 367 297 370 290 374 c 1
 283 370 274 367 265 367 c 0
 254 367 244 370 236 376 c 1
 232 373 228 372 224 370 c 1
 234 361 240 347 240 333 c 0xf4
 240 320 235 309 227 300 c 1
 237 300 246 296 254 291 c 1
 262 297 271 300 282 300 c 0
 291 300 300 297 307 293 c 1
 314 297 323 300 332 300 c 0
 343 300 353 297 361 291 c 1
 369 297 378 300 389 300 c 0
 398 300 407 297 414 293 c 1
 421 297 430 300 439 300 c 0
 467 300 489 278 489 250 c 0
EndSplineSet
EndChar

StartChar: f
Encoding: 102 102 71
Width: 600
Flags: MW
HStem: 200 21G<162 180.5 221.5 240> 200 21G<162 180.5 221.5 240> 533 100<126 144.5 185.5 190 190 192 352 353 353 357.5 398.5 417> 617 100 700 100<381.5 391.5 437.5 441>
VStem: 126 150<236 257 236 261> 144 150<326 340 322 344> 162 150<410 424 406 428> 180 150<493 506.5> 215 150<660.5 674 660.5 681> 286 257<743.5 764 743.5 764> 428 150<653 673.5>
LayerCount: 2
Back
Fore
SplineSet
276 250 m 0x2c
 276 222 254 200 226 200 c 0
 217 200 208 203 201 207 c 1
 194 203 185 200 176 200 c 0
 148 200 126 222 126 250 c 0xac
 126 272 140 290 159 297 c 1
 150 306 144 319 144 333 c 0xaa
 144 355 158 373 178 380 c 1
 168 389 162 403 162 417 c 0xa9
 162 439 176 457 195 464 c 1
 186 473 180 486 180 500 c 0
 180 513 184 524 192 533 c 1
 190 533 l 2
 181 533 172 536 165 540 c 1
 158 536 149 533 140 533 c 0
 112 533 90 555 90 583 c 0
 90 611 112 633 140 633 c 0
 149 633 158 630 165 626 c 1
 172 630 181 633 190 633 c 0xa880
 201 633 211 630 219 624 c 1
 223 627 227 628 231 630 c 1
 221 639 215 653 215 667 c 0
 215 695 237 717 265 717 c 0x1040
 274 717 283 714 290 710 c 0
 293 712 297 714 301 715 c 1
 292 724 286 736 286 750 c 0
 286 778 308 800 336 800 c 0
 345 800 354 797 361 793 c 1
 368 797 377 800 386 800 c 0
 397 800 407 797 415 791 c 1
 423 797 432 800 443 800 c 0
 452 800 461 797 468 793 c 1
 475 797 484 800 493 800 c 0
 521 800 543 778 543 750 c 0x0820
 543 737 539 726 531 717 c 1
 558 716 578 694 578 667 c 0
 578 639 556 617 528 617 c 0
 519 617 510 620 503 624 c 1
 496 620 487 617 478 617 c 0x1010
 450 617 428 639 428 667 c 0
 428 680 433 691 441 700 c 1
 431 700 423 704 415 709 c 1
 407 703 397 700 386 700 c 0
 377 700 368 703 361 707 c 0
 358 705 355 703 351 702 c 1
 360 693 365 681 365 667 c 0x0850
 365 654 360 642 352 633 c 1
 353 633 l 2
 362 633 371 630 378 626 c 1
 385 630 394 633 403 633 c 0
 431 633 453 611 453 583 c 0
 453 555 431 533 403 533 c 0
 394 533 385 536 378 540 c 1
 371 536 362 533 353 533 c 0
 343 533 333 537 325 542 c 0
 322 540 318 537 314 536 c 1
 323 527 330 514 330 500 c 0x2880
 330 478 315 460 296 453 c 1
 305 444 312 431 312 417 c 0x29
 312 395 298 377 278 370 c 1
 288 361 294 347 294 333 c 0x2a
 294 311 280 293 261 286 c 1
 270 277 276 264 276 250 c 0x2c
EndSplineSet
EndChar

StartChar: g
Encoding: 103 103 72
Width: 600
Flags: MW
HStem: 200 100<126 144.5 185.5 195.5 241.5 251.5 292.5 302 348 357.5 398.5 408.5> 367 100<215 286 281 284.5 330.5 340.5 381.5 391.5 437.5 441> 450 100 533 100<309.5 319.5 365.5 375.5 416.5 426.5 472.5 476> 617 100<594.5 613>
VStem: 144 150<493.5 507 493.5 514> 428 150<326 339.5> 464 150<493 506.5> 499 150<660 681>
LayerCount: 2
Back
Fore
SplineSet
281 467 m 1xd5
 291 467 299 463 307 458 c 1
 315 464 325 467 336 467 c 0
 345 467 354 464 361 460 c 1
 368 464 377 467 386 467 c 0
 397 467 406 464 414 458 c 1
 422 464 432 467 443 467 c 0
 452 467 461 464 468 460 c 0
 471 462 474 464 478 465 c 1
 469 474 464 486 464 500 c 0
 464 513 468 524 476 533 c 1
 466 533 458 537 450 542 c 1
 442 536 432 533 421 533 c 0
 412 533 403 536 396 540 c 1
 389 536 380 533 371 533 c 0
 360 533 351 536 343 542 c 1
 335 536 325 533 314 533 c 0
 305 533 296 536 289 540 c 0
 286 538 283 536 279 535 c 1
 288 526 294 514 294 500 c 0
 294 487 289 476 281 467 c 1xd5
560 250 m 0
 560 222 538 200 510 200 c 0
 501 200 492 203 485 207 c 1
 478 203 469 200 460 200 c 0
 449 200 440 203 432 209 c 1
 424 203 414 200 403 200 c 0
 394 200 385 203 378 207 c 1
 371 203 362 200 353 200 c 0
 343 200 333 204 325 209 c 1
 317 204 307 200 297 200 c 0
 288 200 279 203 272 207 c 1
 265 203 256 200 247 200 c 0
 236 200 227 203 219 209 c 1
 211 203 201 200 190 200 c 0
 181 200 172 203 165 207 c 1
 158 203 149 200 140 200 c 0
 112 200 90 222 90 250 c 0
 90 278 112 300 140 300 c 0
 149 300 158 297 165 293 c 1
 172 297 181 300 190 300 c 0
 201 300 211 297 219 291 c 1
 227 297 236 300 247 300 c 0
 256 300 265 297 272 293 c 1
 279 297 288 300 297 300 c 0
 307 300 317 296 325 291 c 1
 333 296 343 300 353 300 c 0
 362 300 371 297 378 293 c 1
 385 297 394 300 403 300 c 0
 414 300 424 297 432 291 c 1
 436 293 439 296 443 297 c 1
 434 306 428 319 428 333 c 0
 428 346 433 358 441 367 c 1
 431 367 422 371 414 376 c 1
 406 370 397 367 386 367 c 0
 377 367 368 370 361 374 c 1
 354 370 345 367 336 367 c 0
 325 367 315 370 307 376 c 1
 299 370 290 367 279 367 c 0
 270 367 261 370 254 374 c 1
 247 370 238 367 229 367 c 0xc6
 201 367 179 389 179 417 c 0
 179 430 183 441 191 450 c 1
 164 451 144 473 144 500 c 0
 144 528 166 550 194 550 c 0xa6
 203 550 212 547 219 543 c 0
 222 545 225 547 229 548 c 1
 220 557 214 569 214 583 c 0
 214 611 236 633 264 633 c 0
 273 633 282 630 289 626 c 1
 296 630 305 633 314 633 c 0
 325 633 335 630 343 624 c 1
 351 630 360 633 371 633 c 0
 380 633 389 630 396 626 c 1
 403 630 412 633 421 633 c 0
 432 633 442 630 450 624 c 1
 458 630 467 633 478 633 c 0x96
 487 633 496 630 503 626 c 0
 506 628 510 630 514 631 c 1
 505 640 499 653 499 667 c 0
 499 695 521 717 549 717 c 0
 558 717 567 714 574 710 c 1
 581 714 590 717 599 717 c 0
 627 717 649 695 649 667 c 0x8c80
 649 639 627 617 599 617 c 0
 590 617 581 620 574 624 c 0
 571 622 567 620 563 619 c 1
 572 610 578 597 578 583 c 0x8e
 578 570 574 559 566 550 c 1
 593 549 614 527 614 500 c 0xad
 614 472 592 450 564 450 c 0
 555 450 546 453 539 457 c 0
 536 455 532 453 528 452 c 1
 537 443 543 431 543 417 c 0
 543 404 537 392 529 383 c 1
 556 382 578 360 578 333 c 0xae
 578 311 564 293 545 286 c 1
 554 277 560 264 560 250 c 0
EndSplineSet
EndChar

StartChar: h
Encoding: 104 104 73
Width: 600
Flags: MW
HStem: 200 21G<126 144.5 185.5 204 446 464.5 505.5 524> 200 21G<126 144.5 185.5 204 446 464.5 505.5 524> 533 100<316 319.5 365.5 375.5 416.5 426.5 472.5 476> 780 20G<233 251.5 292.5 311>
VStem: 90 150<236 257 236 261> 108 150<326 340 322 344> 126 150<410 424 406 428> 144 150<493 507 489 514> 179 150<660.5 674 660.5 678> 197 150<743 764> 410 150<236 257 236 261> 428 150<326 340 322 344> 446 150<410 424 406 428> 464 150<493 506.5>
LayerCount: 2
Back
Fore
SplineSet
560 250 m 0xb020
 560 222 538 200 510 200 c 0
 501 200 492 203 485 207 c 1
 478 203 469 200 460 200 c 0
 432 200 410 222 410 250 c 0xb020
 410 272 424 290 443 297 c 1
 434 306 428 319 428 333 c 0xb010
 428 355 442 373 462 380 c 1
 452 389 446 403 446 417 c 0xb008
 446 439 460 457 479 464 c 1
 470 473 464 486 464 500 c 0
 464 513 468 524 476 533 c 1
 466 533 458 537 450 542 c 1
 442 536 432 533 421 533 c 0
 412 533 403 536 396 540 c 1
 389 536 380 533 371 533 c 0
 360 533 351 536 343 542 c 1
 335 536 325 533 314 533 c 0
 305 533 296 536 289 540 c 0
 286 538 283 536 279 535 c 1
 288 526 294 514 294 500 c 0xb104
 294 478 279 460 260 453 c 1
 269 444 276 431 276 417 c 0xb2
 276 395 262 377 242 370 c 1
 252 361 258 347 258 333 c 0xb4
 258 311 244 293 225 286 c 1
 234 277 240 264 240 250 c 0
 240 222 218 200 190 200 c 0
 181 200 172 203 165 207 c 1
 158 203 149 200 140 200 c 0
 112 200 90 222 90 250 c 0xb8
 90 272 104 290 123 297 c 1
 114 306 108 319 108 333 c 0xb4
 108 355 122 373 142 380 c 1
 132 389 126 403 126 417 c 0xb2
 126 439 140 457 159 464 c 1
 150 473 144 486 144 500 c 0xb1
 144 528 166 550 194 550 c 0
 203 550 212 547 219 543 c 0
 222 545 225 547 229 548 c 1
 220 557 214 569 214 583 c 0
 214 596 220 608 228 617 c 1
 201 618 179 640 179 667 c 0xb080
 179 689 193 707 212 714 c 1
 203 723 197 736 197 750 c 0
 197 778 219 800 247 800 c 0
 256 800 265 797 272 793 c 1
 279 797 288 800 297 800 c 0
 325 800 347 778 347 750 c 0xb040
 347 728 333 710 314 703 c 1
 323 694 329 681 329 667 c 0
 329 654 324 642 316 633 c 1
 326 633 335 629 343 624 c 1
 351 630 360 633 371 633 c 0
 380 633 389 630 396 626 c 1
 403 630 412 633 421 633 c 0
 432 633 442 630 450 624 c 1
 458 630 467 633 478 633 c 0
 487 633 496 630 503 626 c 1
 510 630 519 633 528 633 c 0
 556 633 578 611 578 583 c 0xb090
 578 570 574 559 566 550 c 1
 593 549 614 527 614 500 c 0xb004
 614 478 599 460 580 453 c 1
 589 444 596 431 596 417 c 0xb008
 596 395 582 377 562 370 c 1
 572 361 578 347 578 333 c 0xb010
 578 311 564 293 545 286 c 1
 554 277 560 264 560 250 c 0xb020
EndSplineSet
EndChar

StartChar: i
Encoding: 105 105 74
Width: 600
Flags: MW
HStem: 200 100<126 144.5 185.5 195.5 126 251.5 352 354 354 358.5 399.5 418> 533 100<197 215.5 256.5 261 261 263> 700 100<340 358.5 399.5 418>
VStem: 161 257<572 597 572 597> 215 150<326.5 340 326.5 344> 233 150<410 424 406 428> 251 150<493 506.5> 304 150<736 764>
LayerCount: 2
Back
Fore
SplineSet
454 750 m 0xe1
 454 722 432 700 404 700 c 0
 395 700 386 703 379 707 c 1
 372 703 363 700 354 700 c 0
 326 700 304 722 304 750 c 0
 304 778 326 800 354 800 c 0
 363 800 372 797 379 793 c 1
 386 797 395 800 404 800 c 0
 432 800 454 778 454 750 c 0xe1
454 250 m 0
 454 222 432 200 404 200 c 0
 395 200 386 203 379 207 c 1
 372 203 363 200 354 200 c 0
 343 200 334 203 326 209 c 1
 318 203 308 200 297 200 c 0
 288 200 279 203 272 207 c 1
 265 203 256 200 247 200 c 0
 236 200 227 203 219 209 c 1
 211 203 201 200 190 200 c 0
 181 200 172 203 165 207 c 1
 158 203 149 200 140 200 c 0
 112 200 90 222 90 250 c 0
 90 278 112 300 140 300 c 0
 149 300 158 297 165 293 c 1
 172 297 181 300 190 300 c 0
 201 300 211 297 219 291 c 1
 223 293 226 296 230 297 c 1
 221 306 215 319 215 333 c 0xe8
 215 355 229 373 249 380 c 1
 239 389 233 403 233 417 c 0xe4
 233 439 247 457 266 464 c 1
 257 473 251 486 251 500 c 0xe2
 251 513 255 524 263 533 c 1
 261 533 l 2
 252 533 243 536 236 540 c 1
 229 536 220 533 211 533 c 0
 183 533 161 555 161 583 c 0
 161 611 183 633 211 633 c 0
 220 633 229 630 236 626 c 1
 243 630 252 633 261 633 c 0
 272 633 282 630 290 624 c 1
 298 630 307 633 318 633 c 0
 327 633 336 630 343 626 c 1
 350 630 359 633 368 633 c 0
 396 633 418 611 418 583 c 0xf0
 418 561 404 543 385 536 c 1
 394 527 401 514 401 500 c 0xe2
 401 478 386 460 367 453 c 1
 376 444 383 431 383 417 c 0xe4
 383 395 369 377 349 370 c 1
 359 361 365 347 365 333 c 0xe8
 365 320 360 309 352 300 c 1
 354 300 l 2
 363 300 372 297 379 293 c 1
 386 297 395 300 404 300 c 0
 432 300 454 278 454 250 c 0
EndSplineSet
EndChar

StartChar: j
Encoding: 106 106 75
Width: 600
Flags: MW
HStem: 200 100<161 232 227 230.5 276.5 286.5 327.5 337.5 383.5 393.5> 283 100 613 20G<499 517.5 558.5 577> 700 100<535 553.5 594.5 613>
VStem: 90 150<326.5 347 326.5 347> 410 150<326 340 319 344> 428 150<410 424 406 428> 446 150<493 507 489 511> 463 150<576 597> 499 150<736 764>
LayerCount: 2
Back
Fore
SplineSet
649 750 m 0x3840
 649 722 627 700 599 700 c 0
 590 700 581 703 574 707 c 1
 567 703 558 700 549 700 c 0
 521 700 499 722 499 750 c 0
 499 778 521 800 549 800 c 0
 558 800 567 797 574 793 c 1
 581 797 590 800 599 800 c 0
 627 800 649 778 649 750 c 0x3840
489 250 m 0
 489 222 467 200 439 200 c 0
 430 200 421 203 414 207 c 1
 407 203 398 200 389 200 c 0
 378 200 369 203 361 209 c 1
 353 203 343 200 332 200 c 0
 323 200 314 203 307 207 c 1
 300 203 291 200 282 200 c 0
 271 200 262 203 254 209 c 1
 246 203 236 200 225 200 c 0
 216 200 207 203 200 207 c 1
 193 203 184 200 175 200 c 0xbc
 147 200 125 222 125 250 c 0
 125 263 129 274 137 283 c 1
 110 284 90 306 90 333 c 0
 90 361 112 383 140 383 c 0
 149 383 158 380 165 376 c 1
 172 380 181 383 190 383 c 0x7c
 218 383 240 361 240 333 c 0
 240 320 235 309 227 300 c 1
 237 300 246 296 254 291 c 1
 262 297 271 300 282 300 c 0
 291 300 300 297 307 293 c 1
 314 297 323 300 332 300 c 0
 343 300 353 297 361 291 c 1
 369 297 378 300 389 300 c 0
 398 300 407 297 414 293 c 0
 417 295 420 297 424 298 c 1
 415 307 410 319 410 333 c 0xbc
 410 355 424 373 444 380 c 1
 434 389 428 403 428 417 c 0xba
 428 439 442 457 461 464 c 1
 452 473 446 486 446 500 c 0xb9
 446 522 460 540 479 547 c 1
 470 556 463 569 463 583 c 0
 463 611 485 633 513 633 c 0
 522 633 531 630 538 626 c 1
 545 630 554 633 563 633 c 0
 591 633 613 611 613 583 c 0xb880
 613 561 599 543 580 536 c 1
 589 527 596 514 596 500 c 0xb9
 596 478 581 460 562 453 c 1
 571 444 578 431 578 417 c 0xba
 578 395 564 377 544 370 c 1
 554 361 560 347 560 333 c 0
 560 305 538 283 510 283 c 0x7c
 501 283 492 286 485 290 c 0
 482 288 479 286 475 285 c 1
 484 276 489 264 489 250 c 0
EndSplineSet
EndChar

StartChar: k
Encoding: 107 107 76
Width: 600
Flags: MW
HStem: 200 100<458 460 460 464.5 505.5 524> 283 100<369 371 371 375.5 416.5 421 421 422> 533 100<469.5 488> 780 20G<233 251.5 292.5 311>
VStem: 90 150<236 257 236 261> 108 150<326 340 322 344> 144 150<493.5 507 493.5 511> 161 150<576 590 572 594> 179 150<660 674 656 678> 197 150<743 764> 304 150<493 507 486 514> 321 150<326.5 339.5> 374 150<576 597> 410 150<236 256.5>
LayerCount: 2
Back
Fore
SplineSet
560 250 m 0xb004
 560 222 538 200 510 200 c 0
 501 200 492 203 485 207 c 1
 478 203 469 200 460 200 c 0
 432 200 410 222 410 250 c 0xb004
 410 263 414 274 422 283 c 1
 421 283 l 2
 412 283 403 286 396 290 c 1
 389 286 380 283 371 283 c 0
 343 283 321 305 321 333 c 0
 321 346 326 358 334 367 c 1
 333 367 l 2
 324 367 315 370 308 374 c 1
 301 370 292 367 283 367 c 0
 272 367 262 370 254 376 c 1
 250 373 246 372 242 370 c 1
 252 361 258 347 258 333 c 0x7410
 258 311 244 293 225 286 c 1
 234 277 240 264 240 250 c 0
 240 222 218 200 190 200 c 0
 181 200 172 203 165 207 c 1
 158 203 149 200 140 200 c 0
 112 200 90 222 90 250 c 0xb8
 90 272 104 290 123 297 c 1
 114 306 108 319 108 333 c 0xb4
 108 355 122 373 142 380 c 1
 132 389 126 403 126 417 c 0
 126 439 140 457 159 464 c 1
 150 473 144 486 144 500 c 0xb2
 144 522 158 540 177 547 c 1
 168 556 161 569 161 583 c 0xb1
 161 605 175 623 195 630 c 1
 185 639 179 653 179 667 c 0xb080
 179 689 193 707 212 714 c 1
 203 723 197 736 197 750 c 0
 197 778 219 800 247 800 c 0
 256 800 265 797 272 793 c 1
 279 797 288 800 297 800 c 0
 325 800 347 778 347 750 c 0xb040
 347 728 333 710 314 703 c 1
 323 694 329 681 329 667 c 0xb080
 329 645 315 627 295 620 c 1
 305 611 311 597 311 583 c 0xb1
 311 561 297 543 278 536 c 1
 287 527 294 514 294 500 c 0
 294 487 289 476 281 467 c 1
 283 467 l 2
 292 467 301 464 308 460 c 0
 311 462 314 464 318 465 c 1
 309 474 304 486 304 500 c 0xb220
 304 528 326 550 354 550 c 0
 363 550 372 547 379 543 c 0
 382 545 385 547 389 548 c 1
 380 557 374 569 374 583 c 0
 374 611 396 633 424 633 c 0
 433 633 442 630 449 626 c 1
 456 630 465 633 474 633 c 0
 502 633 524 611 524 583 c 0xb008
 524 555 502 533 474 533 c 0
 465 533 456 536 449 540 c 0
 446 538 443 536 439 535 c 1
 448 526 454 514 454 500 c 0xb020
 454 472 432 450 404 450 c 0
 395 450 386 453 379 457 c 0
 376 455 372 453 368 452 c 1
 377 443 383 431 383 417 c 0
 383 404 377 392 369 383 c 1
 371 383 l 2
 380 383 389 380 396 376 c 1
 403 380 412 383 421 383 c 0
 449 383 471 361 471 333 c 0x7010
 471 320 466 309 458 300 c 1
 460 300 l 2
 469 300 478 297 485 293 c 1
 492 297 501 300 510 300 c 0
 538 300 560 278 560 250 c 0xb004
EndSplineSet
EndChar

StartChar: l
Encoding: 108 108 77
Width: 600
Flags: MW
HStem: 200 100<126 144.5 185.5 195.5 126 251.5 352 354 354 358.5 399.5 418> 700 100<233 251.5 292.5 297 297 299>
VStem: 197 257<739 764> 215 150<326.5 340 326.5 344> 233 150<410 424 406 428> 251 150<493 507 489 511> 268 150<576 590 572 594> 286 150<660 673.5>
LayerCount: 2
Back
Fore
SplineSet
454 250 m 0xe0
 454 222 432 200 404 200 c 0
 395 200 386 203 379 207 c 1
 372 203 363 200 354 200 c 0
 343 200 334 203 326 209 c 1
 318 203 308 200 297 200 c 0
 288 200 279 203 272 207 c 1
 265 203 256 200 247 200 c 0
 236 200 227 203 219 209 c 1
 211 203 201 200 190 200 c 0
 181 200 172 203 165 207 c 1
 158 203 149 200 140 200 c 0
 112 200 90 222 90 250 c 0
 90 278 112 300 140 300 c 0
 149 300 158 297 165 293 c 1
 172 297 181 300 190 300 c 0
 201 300 211 297 219 291 c 1
 223 293 226 296 230 297 c 1
 221 306 215 319 215 333 c 0xd0
 215 355 229 373 249 380 c 1
 239 389 233 403 233 417 c 0xc8
 233 439 247 457 266 464 c 1
 257 473 251 486 251 500 c 0xc4
 251 522 265 540 284 547 c 1
 275 556 268 569 268 583 c 0xc2
 268 605 282 623 302 630 c 1
 292 639 286 653 286 667 c 0xc1
 286 680 291 691 299 700 c 1
 297 700 l 2
 288 700 279 703 272 707 c 1
 265 703 256 700 247 700 c 0
 219 700 197 722 197 750 c 0
 197 778 219 800 247 800 c 0
 256 800 265 797 272 793 c 1
 279 797 288 800 297 800 c 0
 308 800 318 797 326 791 c 1
 334 797 343 800 354 800 c 0
 363 800 372 797 379 793 c 1
 386 797 395 800 404 800 c 0
 432 800 454 778 454 750 c 0xe0
 454 728 440 710 421 703 c 1
 430 694 436 681 436 667 c 0xc1
 436 645 422 627 402 620 c 1
 412 611 418 597 418 583 c 0xc2
 418 561 404 543 385 536 c 1
 394 527 401 514 401 500 c 0xc4
 401 478 386 460 367 453 c 1
 376 444 383 431 383 417 c 0xc8
 383 395 369 377 349 370 c 1
 359 361 365 347 365 333 c 0xd0
 365 320 360 309 352 300 c 1
 354 300 l 2
 363 300 372 297 379 293 c 1
 386 297 395 300 404 300 c 0
 432 300 454 278 454 250 c 0xe0
EndSplineSet
EndChar

StartChar: m
Encoding: 109 109 78
Width: 600
Flags: MW
HStem: 200 21G<126 144.5 185.5 204 286 304.5 345.5 364 446 464.5 505.5 524> 200 21G<126 144.5 185.5 204 286 304.5 345.5 364 446 464.5 505.5 524> 533 100<312.5 316 469.5 474 474 476>
VStem: 90 150<236 257 236 261> 108 150<326 340 322 344> 126 150<410 424 406 428> 144 150<493 507 489 511> 250 150<236 257 236 261> 268 150<326 340 322 344> 286 150<410 424 406 428> 304 150<493 506.5> 410 150<236 257 236 261> 428 150<326 340 322 344> 446 150<410 424 406 428> 464 150<493 506.5>
LayerCount: 2
Back
Fore
SplineSet
560 250 m 0xa010
 560 222 538 200 510 200 c 0
 501 200 492 203 485 207 c 1
 478 203 469 200 460 200 c 0
 432 200 410 222 410 250 c 0xa010
 410 272 424 290 443 297 c 1
 434 306 428 319 428 333 c 0xa008
 428 355 442 373 462 380 c 1
 452 389 446 403 446 417 c 0xa004
 446 439 460 457 479 464 c 1
 470 473 464 486 464 500 c 0
 464 513 468 524 476 533 c 1
 474 533 l 2
 465 533 456 536 449 540 c 0
 446 538 443 536 439 535 c 1
 448 526 454 514 454 500 c 0xa022
 454 478 439 460 420 453 c 1
 429 444 436 431 436 417 c 0xa040
 436 395 422 377 402 370 c 1
 412 361 418 347 418 333 c 0xa080
 418 311 404 293 385 286 c 1
 394 277 400 264 400 250 c 0
 400 222 378 200 350 200 c 0
 341 200 332 203 325 207 c 1
 318 203 309 200 300 200 c 0
 272 200 250 222 250 250 c 0xa1
 250 272 264 290 283 297 c 1
 274 306 268 319 268 333 c 0xa080
 268 355 282 373 302 380 c 1
 292 389 286 403 286 417 c 0xa040
 286 439 300 457 319 464 c 1
 310 473 304 486 304 500 c 0
 304 513 308 524 316 533 c 1
 306 533 298 537 290 542 c 0
 286 540 282 537 278 536 c 1
 287 527 294 514 294 500 c 0xa220
 294 478 279 460 260 453 c 1
 269 444 276 431 276 417 c 0xa4
 276 395 262 377 242 370 c 1
 252 361 258 347 258 333 c 0xa8
 258 311 244 293 225 286 c 1
 234 277 240 264 240 250 c 0
 240 222 218 200 190 200 c 0
 181 200 172 203 165 207 c 1
 158 203 149 200 140 200 c 0
 112 200 90 222 90 250 c 0xb0
 90 272 104 290 123 297 c 1
 114 306 108 319 108 333 c 0xa8
 108 355 122 373 142 380 c 1
 132 389 126 403 126 417 c 0xa4
 126 439 140 457 159 464 c 1
 150 473 144 486 144 500 c 0
 144 522 158 540 177 547 c 1
 168 556 161 569 161 583 c 0
 161 611 183 633 211 633 c 0
 220 633 229 630 236 626 c 1
 243 630 252 633 261 633 c 0
 272 633 282 630 290 624 c 1
 298 630 307 633 318 633 c 0
 327 633 336 630 343 626 c 1
 350 630 359 633 368 633 c 0
 378 633 388 629 396 624 c 1
 404 629 414 633 424 633 c 0
 433 633 442 630 449 626 c 1
 456 630 465 633 474 633 c 0
 502 633 524 611 524 583 c 0
 524 570 520 559 512 550 c 1
 514 550 l 2
 523 550 532 547 539 543 c 1
 546 547 555 550 564 550 c 0
 592 550 614 528 614 500 c 0xa202
 614 478 599 460 580 453 c 1
 589 444 596 431 596 417 c 0xa004
 596 395 582 377 562 370 c 1
 572 361 578 347 578 333 c 0xa008
 578 311 564 293 545 286 c 1
 554 277 560 264 560 250 c 0xa010
EndSplineSet
EndChar

StartChar: n
Encoding: 110 110 79
Width: 600
Flags: MW
HStem: 200 21G<126 144.5 185.5 204 446 464.5 505.5 524> 200 21G<126 144.5 185.5 204 446 464.5 505.5 524> 533 100<312.5 322.5 363.5 373 419 428.5 469.5 474 474 476>
VStem: 90 150<236 257 236 261> 108 150<326 340 322 344> 126 150<410 424 406 428> 144 150<493 507 489 511> 410 150<236 257 236 261> 428 150<326 340 322 344> 446 150<410 424 406 428> 464 150<493 506.5>
LayerCount: 2
Back
Fore
SplineSet
560 250 m 0xa1
 560 222 538 200 510 200 c 0
 501 200 492 203 485 207 c 1
 478 203 469 200 460 200 c 0
 432 200 410 222 410 250 c 0xa1
 410 272 424 290 443 297 c 1
 434 306 428 319 428 333 c 0xa080
 428 355 442 373 462 380 c 1
 452 389 446 403 446 417 c 0xa040
 446 439 460 457 479 464 c 1
 470 473 464 486 464 500 c 0
 464 513 468 524 476 533 c 1
 474 533 l 2
 465 533 456 536 449 540 c 1
 442 536 433 533 424 533 c 0
 414 533 404 537 396 542 c 1
 388 537 378 533 368 533 c 0
 359 533 350 536 343 540 c 1
 336 536 327 533 318 533 c 0
 307 533 298 536 290 542 c 1
 286 540 282 537 278 536 c 1
 287 527 294 514 294 500 c 0xa220
 294 478 279 460 260 453 c 1
 269 444 276 431 276 417 c 0xa4
 276 395 262 377 242 370 c 1
 252 361 258 347 258 333 c 0xa8
 258 311 244 293 225 286 c 1
 234 277 240 264 240 250 c 0
 240 222 218 200 190 200 c 0
 181 200 172 203 165 207 c 1
 158 203 149 200 140 200 c 0
 112 200 90 222 90 250 c 0xb0
 90 272 104 290 123 297 c 1
 114 306 108 319 108 333 c 0xa8
 108 355 122 373 142 380 c 1
 132 389 126 403 126 417 c 0xa4
 126 439 140 457 159 464 c 1
 150 473 144 486 144 500 c 0
 144 522 158 540 177 547 c 1
 168 556 161 569 161 583 c 0
 161 611 183 633 211 633 c 0
 220 633 229 630 236 626 c 1
 243 630 252 633 261 633 c 0
 272 633 282 630 290 624 c 1
 298 630 307 633 318 633 c 0
 327 633 336 630 343 626 c 1
 350 630 359 633 368 633 c 0
 378 633 388 629 396 624 c 1
 404 629 414 633 424 633 c 0
 433 633 442 630 449 626 c 1
 456 630 465 633 474 633 c 0
 502 633 524 611 524 583 c 0
 524 570 520 559 512 550 c 1
 514 550 l 2
 523 550 532 547 539 543 c 1
 546 547 555 550 564 550 c 0
 592 550 614 528 614 500 c 0xa220
 614 478 599 460 580 453 c 1
 589 444 596 431 596 417 c 0xa040
 596 395 582 377 562 370 c 1
 572 361 578 347 578 333 c 0xa080
 578 311 564 293 545 286 c 1
 554 277 560 264 560 250 c 0xa1
EndSplineSet
EndChar

StartChar: o
Encoding: 111 111 80
Width: 600
Flags: MW
HStem: 200 100<161 232 227 230.5 276.5 286.5 327.5 337.5 383.5 393.5> 533 100<291.5 301.5 347.5 357.5 398.5 408.5 454.5 458>
VStem: 90 150<326.5 340 326.5 344> 108 150<410 424 406 428> 126 150<493 507 489 514> 410 150<326 340 319 344> 428 150<410 424 406 428> 446 150<493 506.5>
LayerCount: 2
Back
Fore
SplineSet
227 300 m 1xe0
 237 300 246 296 254 291 c 1
 262 297 271 300 282 300 c 0
 291 300 300 297 307 293 c 1
 314 297 323 300 332 300 c 0
 343 300 353 297 361 291 c 1
 369 297 378 300 389 300 c 0
 398 300 407 297 414 293 c 0
 417 295 420 297 424 298 c 1
 415 307 410 319 410 333 c 0xe4
 410 355 424 373 444 380 c 1
 434 389 428 403 428 417 c 0xc2
 428 439 442 457 461 464 c 1
 452 473 446 486 446 500 c 0
 446 513 450 524 458 533 c 1
 448 533 440 537 432 542 c 1
 424 536 414 533 403 533 c 0
 394 533 385 536 378 540 c 1
 371 536 362 533 353 533 c 0
 342 533 333 536 325 542 c 1
 317 536 307 533 296 533 c 0
 287 533 278 536 271 540 c 0
 268 538 265 536 261 535 c 1
 270 526 276 514 276 500 c 0xc9
 276 478 261 460 242 453 c 1
 251 444 258 431 258 417 c 0xd0
 258 395 244 377 224 370 c 1
 234 361 240 347 240 333 c 0
 240 320 235 309 227 300 c 1xe0
489 250 m 0
 489 222 467 200 439 200 c 0
 430 200 421 203 414 207 c 1
 407 203 398 200 389 200 c 0
 378 200 369 203 361 209 c 1
 353 203 343 200 332 200 c 0
 323 200 314 203 307 207 c 1
 300 203 291 200 282 200 c 0
 271 200 262 203 254 209 c 1
 246 203 236 200 225 200 c 0
 216 200 207 203 200 207 c 1
 193 203 184 200 175 200 c 0
 147 200 125 222 125 250 c 0
 125 263 129 274 137 283 c 1
 110 284 90 306 90 333 c 0xe4
 90 355 104 373 124 380 c 1
 114 389 108 403 108 417 c 0xd0
 108 439 122 457 141 464 c 1
 132 473 126 486 126 500 c 0
 126 528 148 550 176 550 c 0
 185 550 194 547 201 543 c 0
 204 545 207 547 211 548 c 1
 202 557 196 569 196 583 c 0
 196 611 218 633 246 633 c 0
 255 633 264 630 271 626 c 1
 278 630 287 633 296 633 c 0
 307 633 317 630 325 624 c 1
 333 630 342 633 353 633 c 0
 362 633 371 630 378 626 c 1
 385 630 394 633 403 633 c 0
 414 633 424 630 432 624 c 1
 440 630 449 633 460 633 c 0
 469 633 478 630 485 626 c 1
 492 630 501 633 510 633 c 0
 538 633 560 611 560 583 c 0xcc
 560 570 556 559 548 550 c 1
 575 549 596 527 596 500 c 0xc1
 596 478 581 460 562 453 c 1
 571 444 578 431 578 417 c 0xc2
 578 395 564 377 544 370 c 1
 554 361 560 347 560 333 c 0
 560 305 538 283 510 283 c 0
 501 283 492 286 485 290 c 0
 482 288 479 286 475 285 c 1
 484 276 489 264 489 250 c 0
EndSplineSet
EndChar

StartChar: p
Encoding: 112 112 81
Width: 600
Flags: MW
HStem: 200 21G<126 144.5 185.5 204> 200 21G<126 144.5 185.5 204> 367 100<281 284.5 330.5 340.5 381.5 391.5 437.5 447.5> 450 100<559.5 578> 533 100<312.5 322.5 363.5 373 419 428.5 469.5 474 474 476>
VStem: 90 150<236 257 236 261> 108 150<326 340 322 347> 144 150<493.5 507 493.5 511> 464 150<493 506.5>
LayerCount: 2
Back
Fore
SplineSet
281 467 m 1x2980
 291 467 299 463 307 458 c 1
 315 464 325 467 336 467 c 0
 345 467 354 464 361 460 c 1
 368 464 377 467 386 467 c 0
 397 467 406 464 414 458 c 1
 422 464 432 467 443 467 c 0
 452 467 461 464 468 460 c 0
 471 462 474 464 478 465 c 1
 469 474 464 486 464 500 c 0
 464 513 468 524 476 533 c 1
 474 533 l 2
 465 533 456 536 449 540 c 1
 442 536 433 533 424 533 c 0
 414 533 404 537 396 542 c 1
 388 537 378 533 368 533 c 0
 359 533 350 536 343 540 c 1
 336 536 327 533 318 533 c 0
 307 533 298 536 290 542 c 1
 286 540 282 537 278 536 c 1
 287 527 294 514 294 500 c 0
 294 487 289 476 281 467 c 1x2980
240 250 m 0x2480
 240 222 218 200 190 200 c 0
 181 200 172 203 165 207 c 1
 158 203 149 200 140 200 c 0
 112 200 90 222 90 250 c 0xa480
 90 272 104 290 123 297 c 1
 114 306 108 319 108 333 c 0
 108 361 130 383 158 383 c 0
 167 383 176 380 183 376 c 0
 186 378 190 380 194 381 c 1
 185 390 179 403 179 417 c 0
 179 430 183 441 191 450 c 1x9280
 164 451 144 473 144 500 c 0
 144 522 158 540 177 547 c 1
 168 556 161 569 161 583 c 0
 161 611 183 633 211 633 c 0
 220 633 229 630 236 626 c 1
 243 630 252 633 261 633 c 0
 272 633 282 630 290 624 c 1
 298 630 307 633 318 633 c 0
 327 633 336 630 343 626 c 1
 350 630 359 633 368 633 c 0
 378 633 388 629 396 624 c 1
 404 629 414 633 424 633 c 0
 433 633 442 630 449 626 c 1
 456 630 465 633 474 633 c 0x0980
 502 633 524 611 524 583 c 0
 524 570 520 559 512 550 c 1
 514 550 l 2
 523 550 532 547 539 543 c 1
 546 547 555 550 564 550 c 0
 592 550 614 528 614 500 c 0
 614 472 592 450 564 450 c 0x1180
 555 450 546 453 539 457 c 0
 536 455 532 453 528 452 c 1
 537 443 543 431 543 417 c 0
 543 389 521 367 493 367 c 0
 484 367 475 370 468 374 c 1
 461 370 452 367 443 367 c 0
 432 367 422 370 414 376 c 1
 406 370 397 367 386 367 c 0
 377 367 368 370 361 374 c 1
 354 370 345 367 336 367 c 0
 325 367 315 370 307 376 c 1
 299 370 290 367 279 367 c 0
 270 367 261 370 254 374 c 0
 251 372 247 370 243 369 c 1
 252 360 258 347 258 333 c 0x2280
 258 311 244 293 225 286 c 1
 234 277 240 264 240 250 c 0x2480
EndSplineSet
EndChar

StartChar: q
Encoding: 113 113 82
Width: 600
Flags: MW
HStem: 200 100<161 232 227 230.5 276.5 286.5 327.5 346> 367 100<357 370> 533 100<291.5 301.5 347.5 357.5 398.5 408.5 454.5 458>
VStem: 90 150<326.5 340 326.5 344> 108 150<410 424 406 428> 125 257<236 256.5> 126 150<493 507 489 514> 321 257<403.5 424 403 431> 357 150<326.5 339.5> 392 150<236 256.5> 446 150<493 506.5>
LayerCount: 2
Back
Fore
SplineSet
542 250 m 0xe040
 542 222 520 200 492 200 c 0
 483 200 474 203 467 207 c 1
 460 203 451 200 442 200 c 0
 414 200 392 222 392 250 c 0xe040
 392 263 396 274 404 283 c 1
 377 284 357 306 357 333 c 0xe080
 357 346 362 358 370 367 c 1
 343 367 321 390 321 417 c 0xe1
 321 445 343 467 371 467 c 0
 380 467 389 464 396 460 c 1
 403 464 412 467 421 467 c 0
 432 467 441 464 449 458 c 1
 453 460 457 463 461 464 c 1
 452 473 446 486 446 500 c 0
 446 513 450 524 458 533 c 1
 448 533 440 537 432 542 c 1
 424 536 414 533 403 533 c 0
 394 533 385 536 378 540 c 1
 371 536 362 533 353 533 c 0
 342 533 333 536 325 542 c 1
 317 536 307 533 296 533 c 0
 287 533 278 536 271 540 c 0
 268 538 265 536 261 535 c 1
 270 526 276 514 276 500 c 0xe220
 276 478 261 460 242 453 c 1
 251 444 258 431 258 417 c 0xe8
 258 395 244 377 224 370 c 1
 234 361 240 347 240 333 c 0xf0
 240 320 235 309 227 300 c 1
 237 300 246 296 254 291 c 1
 262 297 271 300 282 300 c 0
 291 300 300 297 307 293 c 1
 314 297 323 300 332 300 c 0
 360 300 382 278 382 250 c 0
 382 222 360 200 332 200 c 0
 323 200 314 203 307 207 c 1
 300 203 291 200 282 200 c 0
 271 200 262 203 254 209 c 1
 246 203 236 200 225 200 c 0
 216 200 207 203 200 207 c 1
 193 203 184 200 175 200 c 0
 147 200 125 222 125 250 c 0xe4
 125 263 129 274 137 283 c 1
 110 284 90 306 90 333 c 0xf0
 90 355 104 373 124 380 c 1
 114 389 108 403 108 417 c 0xe8
 108 439 122 457 141 464 c 1
 132 473 126 486 126 500 c 0
 126 528 148 550 176 550 c 0
 185 550 194 547 201 543 c 0
 204 545 207 547 211 548 c 1
 202 557 196 569 196 583 c 0
 196 611 218 633 246 633 c 0
 255 633 264 630 271 626 c 1
 278 630 287 633 296 633 c 0
 307 633 317 630 325 624 c 1
 333 630 342 633 353 633 c 0
 362 633 371 630 378 626 c 1
 385 630 394 633 403 633 c 0
 414 633 424 630 432 624 c 1
 440 630 449 633 460 633 c 0
 469 633 478 630 485 626 c 1
 492 630 501 633 510 633 c 0
 538 633 560 611 560 583 c 0
 560 570 556 559 548 550 c 1
 575 549 596 527 596 500 c 0xe220
 596 478 581 460 562 453 c 1
 571 444 578 431 578 417 c 0xe1
 578 389 556 367 528 367 c 0
 519 367 510 370 503 374 c 0
 500 372 496 370 492 369 c 1
 501 360 507 347 507 333 c 0xe080
 507 320 502 309 494 300 c 1
 521 299 542 277 542 250 c 0xe040
EndSplineSet
EndChar

